<svg xmlns="http://www.w3.org/2000/svg" xmlns:xlink="http://www.w3.org/1999/xlink" width="32" height="32" viewBox="0 0 32 32">
  <defs>
    <filter id="椭圆_1" x="0" y="0" width="32" height="32" filterUnits="userSpaceOnUse">
      <feOffset dy="-1" input="SourceAlpha"/>
      <feGaussianBlur result="blur"/>
      <feFlood flood-opacity="0.161" result="color"/>
      <feComposite operator="out" in="SourceGraphic" in2="blur"/>
      <feComposite operator="in" in="color"/>
      <feComposite operator="in" in2="SourceGraphic"/>
    </filter>
    <filter id="减去_1" x="5.499" y="6.5" width="21.001" height="21" filterUnits="userSpaceOnUse">
      <feOffset dy="1" input="SourceAlpha"/>
      <feGaussianBlur stdDeviation="0.5" result="blur-2"/>
      <feFlood flood-opacity="0.161"/>
      <feComposite operator="in" in2="blur-2"/>
      <feComposite in="SourceGraphic"/>
    </filter>
  </defs>
  <g id="组_636" data-name="组 636" transform="translate(-1567 -40)">
    <g data-type="innerShadowGroup">
      <circle id="椭圆_1-2" data-name="椭圆 1" cx="16" cy="16" r="16" transform="translate(1567 40)" fill="#fdfdfd"/>
      <g transform="matrix(1, 0, 0, 1, 1567, 40)" filter="url(#椭圆_1)">
        <circle id="椭圆_1-3" data-name="椭圆 1" cx="16" cy="16" r="16" fill="#fff"/>
      </g>
    </g>
    <g transform="matrix(1, 0, 0, 1, 1567, 40)" filter="url(#减去_1)">
      <path id="减去_1-2" data-name="减去 1" d="M-5627,0a9,9,0,0,1,9,9,9,9,0,0,1-9,9,9,9,0,0,1-9-9A9,9,0,0,1-5627,0Z" transform="translate(5643 7)" fill="#ffc936"/>
    </g>
    <g id="矩形_829" data-name="矩形 829" transform="translate(1582 43)" fill="#fff" stroke="#ffc936" stroke-width="1">
      <rect width="2" height="3" stroke="none"/>
      <rect x="0.5" y="0.5" width="1" height="2" fill="none"/>
    </g>
    <g id="矩形_830" data-name="矩形 830" transform="translate(1582 66)" fill="#fff" stroke="#ffc936" stroke-width="1">
      <rect width="2" height="3" stroke="none"/>
      <rect x="0.5" y="0.5" width="1" height="2" fill="none"/>
    </g>
    <g id="矩形_833" data-name="矩形 833" transform="translate(1574.476 61.761) rotate(49)" fill="#fff" stroke="#ffc936" stroke-width="1">
      <rect width="2" height="3" stroke="none"/>
      <rect x="0.5" y="0.5" width="1" height="2" fill="none"/>
    </g>
    <g id="矩形_836" data-name="矩形 836" transform="translate(1590.205 63.333) rotate(-51)" fill="#fff" stroke="#ffc936" stroke-width="1">
      <rect width="2" height="3" stroke="none"/>
      <rect x="0.5" y="0.5" width="1" height="2" fill="none"/>
    </g>
    <g id="矩形_834" data-name="矩形 834" transform="translate(1572.221 47.208) rotate(-47)" fill="#fff" stroke="#ffc936" stroke-width="1">
      <rect width="2" height="3" stroke="none"/>
      <rect x="0.5" y="0.5" width="1" height="2" fill="none"/>
    </g>
    <g id="矩形_835" data-name="矩形 835" transform="translate(1592.292 45.721) rotate(43)" fill="#fff" stroke="#ffc936" stroke-width="1">
      <rect width="2" height="3" stroke="none"/>
      <rect x="0.5" y="0.5" width="1" height="2" fill="none"/>
    </g>
    <g id="矩形_831" data-name="矩形 831" transform="translate(1570 57) rotate(-90)" fill="#fff" stroke="#ffc936" stroke-width="1">
      <rect width="2" height="3" stroke="none"/>
      <rect x="0.5" y="0.5" width="1" height="2" fill="none"/>
    </g>
    <g id="矩形_832" data-name="矩形 832" transform="translate(1593 57) rotate(-90)" fill="#fff" stroke="#ffc936" stroke-width="1">
      <rect width="2" height="3" stroke="none"/>
      <rect x="0.5" y="0.5" width="1" height="2" fill="none"/>
    </g>
  </g>
</svg>
