<svg xmlns="http://www.w3.org/2000/svg" xmlns:xlink="http://www.w3.org/1999/xlink" width="408" height="303" viewBox="0 0 408 303">
  <defs>
    <clipPath id="clip-path">
      <rect id="矩形_859" data-name="矩形 859" width="408" height="303" transform="translate(1299 1894)" fill="#fff" stroke="#707070" stroke-width="1"/>
    </clipPath>
    <clipPath id="clip-path-2">
      <rect id="矩形_857" data-name="矩形 857" width="359.142" height="233.736" fill="none"/>
    </clipPath>
  </defs>
  <g id="蒙版组_6" data-name="蒙版组 6" transform="translate(-1299 -1894)" clip-path="url(#clip-path)">
    <g id="组_1396" data-name="组 1396" transform="translate(1316.883 1932)">
      <g id="组_1395" data-name="组 1395" clip-path="url(#clip-path-2)">
        <path id="路径_15289" data-name="路径 15289" d="M134.931.378.577,164.572l237.51,68.779,71.04-101.48L358.6,61.2Z" fill="none" stroke="#696969" stroke-miterlimit="10" stroke-width="1"/>
        <path id="路径_15290" data-name="路径 15290" d="M223.066,98.3l78.221,19.111a.643.643,0,0,1-.023.953.757.757,0,0,1-.42.189.744.744,0,0,1-.606-.192L224.933,99.7Z" fill="#3b3c3b"/>
        <path id="路径_15291" data-name="路径 15291" d="M87.481,110.607c3.327,1.417,3.68,4.326.79,6.5a12.533,12.533,0,0,1-11.257,1.368c-3.326-1.416-3.68-4.326-.79-6.5a12.531,12.531,0,0,1,11.257-1.369" fill="#4b3c31" fill-rule="evenodd"/>
        <path id="路径_15292" data-name="路径 15292" d="M171.288,72.311c-2.026,1.522-1.779,3.561.553,4.554a8.772,8.772,0,0,0,7.888-.959c2.026-1.523,1.778-3.562-.554-4.554a8.778,8.778,0,0,0-7.887.959" fill="#4b3c31" fill-rule="evenodd"/>
        <path id="路径_15293" data-name="路径 15293" d="M256.567,118.072l-67,50.368-16.483,12.387-106.346-45.3,83.483-62.755L211.88,99.034Z" fill="#9d7d36"/>
        <path id="路径_15294" data-name="路径 15294" d="M212.236,90.888a206.8,206.8,0,0,0,35.076,25.48l-29.3,22.024Zm-26.172,71.518,23.923-72.654,6.09,50.094-30.013,22.56M208.01,81.041l-2.975.362-31.954,99.424,83.486-62.756a337.829,337.829,0,0,1-48.557-37.03" fill="#9d7d36"/>
        <path id="路径_15295" data-name="路径 15295" d="M218.012,138.391,213.3,99.645l22.733,9.681q5.477,3.629,11.28,7.042Z" fill="#ccbb98"/>
        <path id="路径_15296" data-name="路径 15296" d="M236.033,109.326,213.3,99.645l-.019-.152q.771-3.165,1.483-6.312c4.086,3.619,8.466,7.1,13.1,10.463q3.984,2.91,8.173,5.682" fill="#bcaf92"/>
        <path id="路径_15297" data-name="路径 15297" d="M218.011,138.391l-4.729-38.9.019.152,4.71,38.746,29.3-22.023Zm29.3-22.023q-5.794-3.417-11.279-7.042-4.187-2.772-8.173-5.682c6.089,4.428,12.607,8.651,19.452,12.724" fill="#ccbb98"/>
        <path id="路径_15298" data-name="路径 15298" d="M196.15,154.825q3.591-9.774,6.776-19.431,1.962-5.95,3.754-11.852,1.554-4.8,3.107-9.59-.315.586-.633,1.174,1.419-5,2.706-9.969l4.217,34.689Z" fill="#ccbb98"/>
        <path id="路径_15299" data-name="路径 15299" d="M224.094,154.371a.606.606,0,0,1-.675-.528l-8.356-68.73a.606.606,0,0,1,1.2-.147l8.357,68.73a.607.607,0,0,1-.53.675" fill="#3b3c3b"/>
        <path id="路径_15300" data-name="路径 15300" d="M50.662,128.692,134.15,65.936,83.3,27.156C79.537,62.281,68.11,96.027,50.662,128.692" fill="#9d7d36"/>
        <path id="路径_15301" data-name="路径 15301" d="M216.724,83.968a438.474,438.474,0,0,1-13.8,51.426c-5.416,16.449-11.776,33.173-18.843,50.119l-11-4.682L91.466,146.066,66.733,135.533l-16.065-6.842q4.986-12.384,9.485-24.744c.25-.676.484-1.333.733-2.009.8-2.208,1.59-4.434,2.352-6.638A661.1,661.1,0,0,0,83.289,27.148c39.78,19.33,85.015,38.191,133.435,56.82" fill="#876b2c"/>
        <path id="路径_15302" data-name="路径 15302" d="M118.71,97.885l12.269,17.032-21.512-9.161Zm-.488-4.009-14.6,12.149,33.9,14.438L118.222,93.876" fill="#80652a"/>
        <path id="路径_15303" data-name="路径 15303" d="M128.022,113.657l-.2-.084L116.453,99.808l.007-.007Z" fill="#c1b395"/>
        <path id="路径_15304" data-name="路径 15304" d="M131.084,83.353,115.217,98.31,138.9,126.7Z" fill="#9d7d36"/>
        <path id="路径_15305" data-name="路径 15305" d="M97.891,110.257l33.193-26.9L115.217,98.31Z" fill="#a88539"/>
        <path id="路径_15306" data-name="路径 15306" d="M184.084,185.513l-11-4.682-7.254-3.09-.546-3.469-.15-1-.053-.344c3.873,1.586,7.935,2.794,11.781,2.326a12.18,12.18,0,0,0,3.771-1.079c4.651-2.205,7.2-7.192,9.414-11.84q6.45-13.453,12.882-26.938-3.178,9.652-6.776,19.43-5.586,15.21-12.066,30.689m-23.226-9.889L91.466,146.066l-16.753-7.135-.061-.382,0-.026-.606-3.886a85.142,85.142,0,0,0,13.8,7.35c1.511.655,3.021,1.308,4.529,1.944,22.5,9.469,45.9,16.784,68.07,26.942l.135,1.554.278,3.2M50.668,128.691q4.986-12.384,9.485-24.744c-.077.654-.12,1.306-.161,1.973a36.63,36.63,0,0,0,.683,11.643,24.887,24.887,0,0,0,5.192,9.875l.705,8.025" fill="#7d632b"/>
        <path id="路径_15307" data-name="路径 15307" d="M65.245,120.363a57.587,57.587,0,0,1-4.359-18.425c.749-2.079,1.5-4.173,2.218-6.251l.221,2.516c.081,2.621.167,5.244.243,7.858a42.321,42.321,0,0,0,.461,6.087,26.739,26.739,0,0,0,.777,3.219Z" fill="#7d632b"/>
        <path id="路径_15308" data-name="路径 15308" d="M206.68,123.542q1.281-4.223,2.473-8.416l.634-1.174q-1.554,4.794-3.107,9.59" fill="#bbab8c"/>
        <path id="路径_15309" data-name="路径 15309" d="M178.69,169.157c5.092-7.114,9.266-14.831,13.428-22.527l17.036-31.505q-1.191,4.2-2.473,8.416l-1.132,3.49a30.591,30.591,0,0,1-2.161,5.455c-1.142,2.067-2.744,3.839-4.075,5.789a88.739,88.739,0,0,0-4.924,9.176c-4.144,7.931-9.945,14.853-15.7,21.706" fill="#7d632b"/>
        <path id="路径_15310" data-name="路径 15310" d="M138.9,126.7l-27.544-5.386L97.892,110.256l5.984-4.126,27.459,11.694Z" fill="#7d632b"/>
        <path id="路径_15311" data-name="路径 15311" d="M131.334,117.824,103.875,106.13l11.342-7.821,1.236,1.5-6.986,5.948,18.354,7.818,3.512,4.251" fill="#765e28"/>
        <path id="路径_15312" data-name="路径 15312" d="M127.822,113.573l-18.355-7.818,6.987-5.948Z" fill="#b1a388"/>
        <path id="路径_15313" data-name="路径 15313" d="M184.481,217.729a.875.875,0,0,0-.545-.4.979.979,0,0,0-.719.093.549.549,0,0,1-.722-.2.5.5,0,0,1,.227-.687,2.13,2.13,0,0,1,1.519-.176,1.918,1.918,0,0,1,1.188.87l1.293,2.179-1.161.141Z" fill="#9c9c9b"/>
        <path id="路径_15314" data-name="路径 15314" d="M198.885,144.066l-14.574,74.091a.641.641,0,0,0,.25.92.767.767,0,0,0,.453.084.756.756,0,0,0,.543-.333l14.176-74.015Z" fill="#3b3c3b"/>
        <path id="路径_15315" data-name="路径 15315" d="M301.018,117.04a.871.871,0,0,1,.433-.519.98.98,0,0,1,.722-.082.549.549,0,0,0,.653-.363.5.5,0,0,0-.385-.613,2.13,2.13,0,0,0-1.518.193,1.925,1.925,0,0,0-.945,1.129l-.731,2.426,1.159-.141Z" fill="#9c9c9b"/>
      </g>
    </g>
  </g>
</svg>
