<svg xmlns="http://www.w3.org/2000/svg" xmlns:xlink="http://www.w3.org/1999/xlink" width="1265.185" height="454.89" viewBox="0 0 1265.185 454.89">
  <defs>
    <clipPath id="clip-path">
      <rect id="矩形_2713" data-name="矩形 2713" width="1265.185" height="454.89" fill="none"/>
    </clipPath>
  </defs>
  <g id="组_3705" data-name="组 3705" transform="translate(0 0)">
    <rect id="矩形_2709" data-name="矩形 2709" width="14.334" height="39.095" transform="translate(0 13.941) rotate(-76.546)" fill="#ff535a"/>
    <rect id="矩形_2710" data-name="矩形 2710" width="14.335" height="30.232" transform="translate(75.269 99.595) rotate(-76.548)" fill="#ff535a"/>
    <rect id="矩形_2711" data-name="矩形 2711" width="30.233" height="14.335" transform="translate(44.605 172.132) rotate(-45)" fill="#ff535a"/>
    <rect id="矩形_2712" data-name="矩形 2712" width="14.335" height="30.232" transform="translate(112.925 207.09) rotate(-54.751)" fill="#ff535a"/>
    <path id="路径_27577" data-name="路径 27577" d="M159.406,243.99h14.878l3.221,9.526-9.543,9.286Z" fill="#1b4e6d"/>
    <path id="路径_27578" data-name="路径 27578" d="M1194.683,243.99h-14.878l-3.221,9.526,9.542,9.286Z" fill="#1b4e6d"/>
    <g id="组_3704" data-name="组 3704">
      <g id="组_3703" data-name="组 3703" clip-path="url(#clip-path)">
        <path id="路径_27579" data-name="路径 27579" d="M114.374,314.465c-.551-.275-23.78-11.774-24.281-12.025a1.143,1.143,0,0,0-1.458.187L69.858,327.253a3.556,3.556,0,0,1-1.162,1.013,3.44,3.44,0,0,1-2.645.044c-.424-.146-.964-.394-1.6-.686-2.895-1.331-7.748-3.539-10.657.276a5.906,5.906,0,0,0,.563,8.134,6.249,6.249,0,0,0,.674.627,15.94,15.94,0,0,0,6.284,2.651,6.948,6.948,0,0,0,6.211-3.018l16.619-21.8a1.025,1.025,0,0,1,1.266-.3l17.993,8.739a1.031,1.031,0,0,1,.482,1.376.968.968,0,0,1-.107.174L93.545,337.909a3.709,3.709,0,0,1-1.3,1.179,3.425,3.425,0,0,1-2.655.035c-.424-.145-1.068-.472-1.7-.763-2.9-1.331-7.74-3.549-10.648.266a5.915,5.915,0,0,0,.5,8.229,10.656,10.656,0,0,0,2.06,1.425,14.785,14.785,0,0,0,4.76,1.521,6.8,6.8,0,0,0,6.591-2.793l23.627-30.987a1.022,1.022,0,0,0-.193-1.432,1.009,1.009,0,0,0-.21-.124" fill="#3a3a3a"/>
        <path id="路径_27580" data-name="路径 27580" d="M1264.361,373.348c-.6-.15-25.761-6.366-26.3-6.5a1.142,1.142,0,0,0-1.383.5l-13.021,28.1a3.555,3.555,0,0,1-.916,1.239,3.435,3.435,0,0,1-2.573.613c-.446-.05-1.027-.176-1.712-.324-3.115-.675-8.329-1.783-10.346,2.569a5.905,5.905,0,0,0,2.3,7.821,6.253,6.253,0,0,0,.794.467,15.924,15.924,0,0,0,6.708,1.233,6.951,6.951,0,0,0,5.414-4.287l11.525-24.868a1.023,1.023,0,0,1,1.171-.565l19.455,4.651a1.031,1.031,0,0,1,.767,1.24,1.081,1.081,0,0,1-.066.192l-7.1,15.313a3.7,3.7,0,0,1-1.019,1.432,3.426,3.426,0,0,1-2.585.608c-.446-.051-1.144-.231-1.828-.378-3.115-.675-8.324-1.795-10.341,2.557a5.917,5.917,0,0,0,2.269,7.926,10.632,10.632,0,0,0,2.319.947,14.8,14.8,0,0,0,4.976.459,6.8,6.8,0,0,0,5.833-4.149l16.385-35.356a1.021,1.021,0,0,0-.5-1.357,1.048,1.048,0,0,0-.232-.075" fill="#3a3a3a"/>
        <path id="路径_27581" data-name="路径 27581" d="M143.524,413.726c-.465.089-11.691,2.388-12.1,2.466a.879.879,0,0,0-.8.794V442.25a2.721,2.721,0,0,1-.238,1.159,2.635,2.635,0,0,1-1.594,1.258c-.327.109-.772.209-1.3.327-2.387.535-6.378,1.447-6.378,5.13a4.6,4.6,0,0,0,3.467,4.666,7.528,7.528,0,0,0,1.366.1,11.73,11.73,0,0,0,5.071-1.307,5.337,5.337,0,0,0,2.388-4.734V426.1a.786.786,0,0,1,.634-.772l9.185-1.881a1.591,1.591,0,0,0,1.268-1.55v-7.415a.782.782,0,0,0-.793-.773.764.764,0,0,0-.172.021"/>
      </g>
    </g>
  </g>
</svg>
