<svg xmlns="http://www.w3.org/2000/svg" xmlns:xlink="http://www.w3.org/1999/xlink" width="556" height="419" viewBox="0 0 556 419">
  <defs>
    <clipPath id="clip-path">
      <rect id="矩形_858" data-name="矩形 858" width="556" height="419" transform="translate(1291 1359)" fill="#fff" stroke="#707070" stroke-width="1"/>
    </clipPath>
    <clipPath id="clip-path-2">
      <rect id="矩形_856" data-name="矩形 856" width="474.006" height="366.399" fill="none"/>
    </clipPath>
  </defs>
  <g id="蒙版组_5" data-name="蒙版组 5" transform="translate(-1291 -1359)" clip-path="url(#clip-path)">
    <g id="组_1394" data-name="组 1394" transform="translate(1011.007 1359)">
      <g id="组_1393" data-name="组 1393" transform="translate(308 29)" clip-path="url(#clip-path-2)">
        <path id="路径_15247" data-name="路径 15247" d="M1.234,329.084,220.7,131.7l252.145,43.726-200.108,199.9Z" transform="translate(0 -9.518)" fill="none" stroke="#696969" stroke-miterlimit="10" stroke-width="1"/>
        <path id="路径_15248" data-name="路径 15248" d="M158.144,234.95l-1.4,4.4-1.469,4.63-1.127,2.6-1.021,2.318-.365.8-.273,4.962-.908,2.125-2.113,4.814.2.674,1.894,6.141,1.655,5.338,3.525-1.847.194.625-.7,4.717,4.626,3.895c.225-.338,3.124-.815,7.854-1.322l.043-.006c1.773-.212,10.56-3.091,20.05-6.178,11.008-3.576,22.966-7.424,26.055-7.688,29.2-2.572,76.836-5.463,78.323-4.238l.03-5.722.083-.781.606-7.233.03-.233,2.6-3.247,2.628-1.872.364-7.171.126-2.387-4.33-1.993-1.317-4.347-1.372-4.619-2.167-6.582c-.907,2.856-129.751,22.045-132.324,19.431" transform="translate(0 -15.576)" fill="#3c2f28"/>
        <path id="路径_15249" data-name="路径 15249" d="M296.851,258.811a21.992,21.992,0,0,0-3.549-1.079l.607-7.233a21.391,21.391,0,0,1,4.009.456l-.646,7.28Z" transform="translate(0 -18.104)" fill="#9d8c5c"/>
        <path id="路径_15250" data-name="路径 15250" d="M293.3,257.722l-1.024-.206a27.327,27.327,0,0,0-3.2-.65c-.937-.119-1.958-.227-3.02-.3l-.653-.045c-1.222-.086-2.492-.138-3.783-.17-2.719-1.1-5.7-2.344-8.882-3.691q1.521-.266,3.055-.556c2.621-.411,5.275-.866,7.86-1.184a42.206,42.206,0,0,1,9.365-.468l.892.032Z" transform="translate(0 -18.094)" fill="#584a3f"/>
        <path id="路径_15251" data-name="路径 15251" d="M172.071,270.959a11.816,11.816,0,0,1-1.647.386,121.709,121.709,0,0,1-12.844.8c-2.031,0-4.066-.039-6.02-.135l-1.9-6.141c2.557.737,5.358,1.51,8.233,2.136,4.553.827,9.111,1.792,12.541,2.056a23.734,23.734,0,0,0,5.63-1.206c3.084-.88,7.059-2.155,11.148-3.5l-.624.669c-5.994,2.152-11.661,4.121-14.522,4.937" transform="translate(0 -19.178)" fill="#584a3f"/>
        <path id="路径_15252" data-name="路径 15252" d="M264.677,243.1l-.658-.185c-.315-.071-.69-.189-1.131-.3.028-.071.055-.148.077-.218.413.148.76.309,1.047.424Zm-81.762,12.356c-9.619,2.612-18.745,5.09-20.694,4.818-4.378-.66-8.022-1.185-10.641-1.553l.908-2.125.273-4.963.365-.8c2.551.6,6.05,1.453,10.2,2.45,1.371.339,6.473-.745,12.8-2.27l1.161,1.248c.208.4,2.247,1.534,5.625,3.2" transform="translate(0 -17.519)" fill="#584a3f"/>
        <path id="路径_15253" data-name="路径 15253" d="M170.476,284.157a13.641,13.641,0,0,1-1.715.392l-.042,0-.046-.092c.159-.1.826-.608,1.877-1.406.811-.533,1.765-1.346,2.928-2.008q-1.548,1.621-3,3.11" transform="translate(0 -20.312)" fill="#584a3f"/>
        <path id="路径_15254" data-name="路径 15254" d="M301.444,237.147c-.209-.073-.876-.353-1.916-.828l.126-2.387-4.33-1.993-1.317-4.347a23.233,23.233,0,0,1,4.2.212l1.171,3.856,3.617,1.67Z" transform="translate(0 -16.447)" fill="#9d8c5c"/>
        <path id="路径_15255" data-name="路径 15255" d="M299.528,236.32l-.664-.323a26.941,26.941,0,0,0-6.685-1.229c-2.159-.121-4.637-.136-7.283-.182-4.552-.007-9.627.074-14.582.049-1.67,0-3.336-.009-4.982-.01q.443-1.252.877-2.46.222-.643.449-1.265c1.145-.151,2.289-.3,3.438-.462,5.656-.666,11.18-1.506,16.227-2.132,2.021-.276,4-.461,5.862-.635.6-.038,1.211-.079,1.822-.078l1.317,4.347,4.33,1.993Z" transform="translate(0 -16.449)" fill="#584a3f"/>
        <path id="路径_15256" data-name="路径 15256" d="M165.157,246.582a25.368,25.368,0,0,1-3.213.777c-2.782.33-5.455.56-7.8.815l1.127-2.6,1.469-4.63c1.593.071,3.3.133,5.048.195,1.365.052,5.8-1.1,11.4-2.7.92-.263,1.882-.537,2.86-.823l.132.853-.916,4.957c-4.037,1.307-7.619,2.442-10.111,3.152" transform="translate(0 -17.173)" fill="#584a3f"/>
        <path id="路径_15257" data-name="路径 15257" d="M290.468,215.519l-2.868,9.037-1.278,2.877-1.278,2.843-.149,3.439-.082,1.518-3.063,6.945,1.9,6.23,1.75,5.6.1.316.557-.271,3.323-1.741-.3,2.037-.554,3.471,4.669,3.889,3.662-5.424.421-.576.646-7.28.072-.968,2.6-3.247,2.626-1.88.448-9.553-.67-.322-3.617-1.669-1.171-3.856-1.561-5.113Z" transform="translate(0 -15.576)" fill="#624e42"/>
        <path id="路径_15258" data-name="路径 15258" d="M235.731,205.206l6.235,1.133,7.007.85.891.111L253,210.158l.309.3,6.426,1.549.907,4.8.367,1.945,3.212,5.386,1.93,3.288-1.672,4.246c-.4,3.221-70.311,76.307-79.555,89.774l-7.393-9.582-2.88,2.7L167.9,310l-2.584,1.931-6.369-12.478,1.392-4.889-3.74-2.9c3.036.565,79.6-83.149,79.136-86.456" transform="translate(0 -14.831)" fill="#3c2f28"/>
        <path id="路径_15259" data-name="路径 15259" d="M207.845,283.665s.38-.481,1.2-1.373a16.6,16.6,0,0,0,2.137-4.625,48.889,48.889,0,0,1,2.155-6.181l.961.428a46.888,46.888,0,0,0-2.634,5.987,16.152,16.152,0,0,1-2.5,4.519c-.877.826-1.314,1.245-1.314,1.245" transform="translate(0 -19.621)" fill="#584a3f"/>
        <path id="路径_15260" data-name="路径 15260" d="M179.225,319.318l-3.987-7.2c.668-.387,9.944-5.736,19.054-10.989,2.108-1.43,4.471-2.581,6.284-4.193,1.74-1.683,3.494-3.165,4.843-4.645,2.616-3.084,4.343-5.135,4.343-5.135s-1.38,2.381-3.466,5.972c-1.1,1.753-2.627,3.642-4.191,5.793-1.628,2.079-3.785,3.713-5.779,5.685-8.165,7.186-16.48,14.17-17.1,14.713" transform="translate(0 -20.754)" fill="#584a3f"/>
        <path id="路径_15261" data-name="路径 15261" d="M173.809,309.359l-6.775-3.716c.208-.382,1.092-1.968,2.474-4.453a65.2,65.2,0,0,1,5.886-9.428c1.315-1.779,2.73-3.692,4.216-5.709,1.644-1.838,3.464-3.669,5.281-5.6q1.366-1.432,2.773-2.9,1.564-1.257,3.147-2.54c2.123-1.673,4.226-3.494,6.39-5.038,1.856-1.217,3.624-2.437,5.27-3.735,1.059.477,2.146.967,3.246,1.459a68.566,68.566,0,0,1-6.439,5.719c-2.007,1.745-3.817,3.652-5.7,5.437q-1.395,1.346-2.767,2.677-1.206,1.522-2.384,3c-1.555,1.988-3.1,3.855-4.5,5.711-1.226,2.007-2.387,3.917-3.471,5.693a60.561,60.561,0,0,0-4.708,9.175c-1.084,2.366-1.777,3.883-1.946,4.247" transform="translate(0 -19.242)" fill="#584a3f"/>
        <path id="路径_15262" data-name="路径 15262" d="M156.591,298.406l6.227,1.128,7.922.982,3.407,3.147,6.437,1.539,1.289,6.755,5.149,8.679-1.68,4.269-.423,3.3-5.559-1.263-4.76-5.119-2.877,2.688-6.742-4.553-2.6,1.92-6.361-12.495,1.409-4.873Z" transform="translate(0 -21.567)" fill="#624e42"/>
        <path id="路径_15263" data-name="路径 15263" d="M243.229,191.835l3.558-.426,3.748-.445,2.19-.575,1.96-.524.686-.2,3.605.915,1.789-.455,4.074-1.085.419.378,3.762,3.531,3.266,3.075-2.406,3.325.385.36,3.562.408,1.321,5.911c-.314.16-1.553,3.152-3.39,8.091l-.014.046c-1.52,4.006-3.394,9.172-5.536,15.209-10.936,30.667-27.841,81-27.435,82.9l-4.072-1.365-.584-.1-5.314-1.115-.175-.028-3.112,1.991-2.153,2.355-5.2-1.358-1.733-.453-.061-5.12-2.673-2.472-2.851-2.6-3.991-3.928c2.312-.281,37.424-102.85,36.375-106.242" transform="translate(0 -13.663)" fill="#362923"/>
        <path id="路径_15264" data-name="路径 15264" d="M234.117,317.728h0l-5.314-1.115.254-.964a69.541,69.541,0,0,1,3.252-9.925c1.032-2.688,2.184-5.424,3.293-8.133,1.936-4.49,3.815-8.928,5.3-12.812.45.2.907.408,1.362.608-1.056,4.127-2.418,8.846-3.812,13.532-.963,3.454-1.944,6.849-2.713,10.052l-.173.709c-.282,1.148-.519,2.275-.732,3.311-.25,1.264-.408,2.468-.541,3.587Z" transform="translate(0 -20.582)" fill="#514439"/>
        <path id="路径_15265" data-name="路径 15265" d="M260.384,219.055s.534-2.51,1.369-6.321c.881-3.74,1.618-8.856,2.444-13.941.457-3.232.786-6.422,1.062-9.342l3.761,3.53c-.542,2.12-1.149,4.307-1.782,6.489-1.616,5.037-3.1,9.985-4.571,13.565-1.354,3.628-2.283,6.02-2.283,6.02" transform="translate(0 -13.692)" fill="#514439"/>
        <path id="路径_15266" data-name="路径 15266" d="M233.09,276.748l.015-.776c0-.408,0-.927.039-1.541.062.024.123.049.186.08-.075.59-.109,1.085-.164,1.485Zm17.62-38.035-2.647-1.174a26.5,26.5,0,0,0,.866-3.552c1.226-5.5,1.66-11.542,2.434-17.082.677-5.59,1.33-10.893,1.877-15.463.594-4.7,1.078-8.652,1.445-11.529l.686-.2,3.605.915,1.789-.454c-.555,2.9-1.321,6.932-2.217,11.784-.877,4.574-1.861,9.788-2.9,15.37-1.131,5.538-1.946,11.405-3.712,17.51a28.717,28.717,0,0,1-1.225,3.872" transform="translate(0 -13.711)" fill="#514439"/>
        <path id="路径_15267" data-name="路径 15267" d="M257.833,243.76c-.491-.218-.987-.434-1.478-.652,1.2-2.736,2.585-5.868,3.975-9.022,2.05-4.509,4.22-9.156,6.6-12.495a25.5,25.5,0,0,1,3.191-3.915c.9-.938,1.47-1.528,1.588-1.667l.052.063-.015.045c-1.52,4.006-3.393,9.173-5.536,15.21-1.091,1.49-2.238,3.151-3.358,4.824-1.745,2.647-3.482,5.275-5.017,7.608" transform="translate(0 -15.612)" fill="#514439"/>
        <path id="路径_15268" data-name="路径 15268" d="M218.158,323.911l-3.193.729-.057-4.286-2.368-2.2a37.891,37.891,0,0,1,1.156-4.548l2.673,2.472.061,5.12,1.733.453c.017,1.23,0,2.013,0,2.254" transform="translate(0 -22.665)" fill="#9b8a59"/>
        <path id="路径_15269" data-name="路径 15269" d="M218.163,319.066h0l-1.733-.453-.061-5.12-2.673-2.472.625-1.94c.7-1.948,1.452-4.028,2.278-6.125,2.016-5.256,4.336-10.971,6.572-16.865,1.1-2.8,2.2-5.6,3.255-8.3.713.322,1.431.636,2.145.96-.808,2.8-1.65,5.7-2.486,8.6-1.534,5.322-3.17,10.744-4.585,15.618-.792,2.843-1.556,5.5-2.141,7.847a43.454,43.454,0,0,0-1.214,7.47Z" transform="translate(0 -20.076)" fill="#514439"/>
        <path id="路径_15270" data-name="路径 15270" d="M238.85,233.451c-.32-.148-.639-.3-.957-.436.132-.192.266-.378.4-.57.849-1.2,1.773-2.52,2.756-3.909.452-.69.948-1.407,1.466-2.165a4.571,4.571,0,0,0,.856-2.076,3.477,3.477,0,0,0-.528-1.85c-.429-.671-.991-1.353-1.549-2.38a6.79,6.79,0,0,1-.728-4.332,32.185,32.185,0,0,1,.89-3.981c1.274-4.89,2.636-10.03,3.9-14.783.5-1.891.993-3.736,1.436-5.455l3.747-.445,2.191-.576c-.909,2.456-1.909,5.261-3.011,8.165-1.7,4.557-3.555,9.542-5.305,14.224a27.105,27.105,0,0,0-1.084,3.159,3.371,3.371,0,0,0,.086,2.193c.315.773.773,1.66,1.206,2.631a6.676,6.676,0,0,1,.462,3.525,8.154,8.154,0,0,1-1.49,3.183c-.579.734-1.11,1.432-1.653,2.079-1.069,1.308-2.024,2.514-2.95,3.627-.042.061-.092.118-.136.173" transform="translate(0 -13.767)" fill="#514439"/>
        <path id="路径_15271" data-name="路径 15271" d="M206.854,306.349l7.306-.871,2.44-.661,2.413-.674,2.488.679,1.1.282,5.876-1.586,3.829,3.561,3.43,3.246.189.177-.362.532-2.267,3.138,1.534.173,2.636.251,1.305,5.951-5,2.605-.538.3-5.364-1.087-.708-.156-3.113,1.991-2.153,2.355-6.917-1.851-.02-.794-.056-4.286-2.368-2.2-3.14-2.921Z" transform="translate(0 -21.936)" fill="#5b483d"/>
        <path id="路径_15272" data-name="路径 15272" d="M195.051,213.241l-5.393,3.742-6.2,3.827-.784.483-1.945,4-.189.413-5.431,4.217.769,4.826.309,1.961-1.178,6.365-.68,3.885,2.963,3.2c1.44,2.818,90.512,40.175,103.553,48.63l3.64-12.057,3.567,1.249,4.729-7.14,3.035.672,1.721-14.3-2.918-3.919,2.489-4.3c-2.617,1.834-101.382-42.483-102.054-45.745" transform="translate(0 -15.411)" fill="#514037"/>
        <path id="路径_15273" data-name="路径 15273" d="M245.431,270.994s-.541-.189-1.629-.574a14.2,14.2,0,0,1-3.827-3.1c-1.473-1.5-3.043-3.582-5.257-4.971a5.93,5.93,0,0,0-3.668-.855c-1.37.173-2.822.707-4.5.892A16.84,16.84,0,0,1,216.488,260a56.788,56.788,0,0,1-8.716-6.517c-1.359-1.1-2.64-2.272-4-3.223l-.98-.682-.571-.356-.866-.391-.769-.292c-.119.588-.126,1.713-.181,2.479-.09,1.731-.172,3.418-.257,5.007-3.439-1.488-6.714-2.961-9.774-4.284q-3.127-1.329-5.8-2.45c-3.674-1.45-6.6-3.155-9.145-4.345l-.416-.19,1.178-6.365-.309-1.961c.748.481,1.617.97,2.553,1.538,2.372,1.31,5.13,3.239,8.64,4.9,1.7.863,3.55,1.794,5.518,2.769l1.471.76.536.338.936.569c.27-1.509.518-3.067.786-4.674l.22-1.228.1-.647.011-.29.249-.085c1.108.695,2.271,1.36,3.428,2.026,1.122.648,2.28,1.321,3.295,2.021.848.678,1.721,1.411,2.569,2.088,1.364,1.2,2.588,2.539,3.919,3.822a57.618,57.618,0,0,0,7.681,7,15.009,15.009,0,0,0,8.625,2.978c1.492-.019,2.979-.394,4.537-.481a7.276,7.276,0,0,1,4.328,1.445c2.349,1.744,3.715,4.028,5.071,5.62a14.436,14.436,0,0,0,3.516,3.355c1.051.472,1.567.746,1.567.746" transform="translate(0 -17.087)" fill="#6d5b4c"/>
        <path id="路径_15274" data-name="路径 15274" d="M283.436,293.48c-.762-.232-10.783-3.1-20.74-6.208-2.5-.966-5.041-1.545-7.243-2.762-2.161-1.314-4.2-2.4-5.808-3.543-3.128-2.42-5.2-4.024-5.2-4.024l5.734,2.869c1.743.78,3.856,1.4,6.034,2.2,2.214.709,4.784.747,7.214,1.162,10.181.913,20.548,1.849,21.292,1.918Z" transform="translate(0 -20.015)" fill="#6d5b4c"/>
        <path id="路径_15275" data-name="路径 15275" d="M285.62,280.372,282.4,277.29c-1.829-1.675-4.117-4.3-7.417-6.452-1.594-1.173-3.307-2.439-5.11-3.769-1.9-1.113-3.97-2.166-6.066-3.33-1.056-.575-2.127-1.161-3.211-1.751-1.14-.418-2.289-.849-3.45-1.282-2.336-.835-4.646-1.811-7.087-2.561-4.866-1.229-10.14-3.009-14.291-5.88-4.042-2.946-7.624-5.755-10.746-8.142-6.218-4.781-10.341-7.948-10.341-7.948s4.362,2.728,10.95,6.841c3.29,2.05,7.15,4.507,11.272,6.938,4.173,2.268,8.8,3.335,13.929,4.1,2.521.494,5.075,1.275,7.593,1.9,1.265.334,2.516.665,3.761,1,1.188.5,2.371.994,3.533,1.483,2.326.993,4.616,1.9,6.755,2.894,2.046,1.22,3.991,2.378,5.807,3.459a55.853,55.853,0,0,1,8.589,6.168l3.78,3.055Z" transform="translate(0 -17.069)" fill="#6d5b4c"/>
        <path id="路径_15276" data-name="路径 15276" d="M199.2,231.358s-6.948-1.933-14.062-3.89c-1.473-.513-2.971-1.089-4.409-1.584l1.945-4,.784-.483c1,.739,2.09,1.474,3.132,2.237,6.344,3.882,12.61,7.721,12.61,7.721" transform="translate(0 -16.001)" fill="#6d5b4c"/>
        <path id="路径_15277" data-name="路径 15277" d="M297.119,262.554l-5.387,3.741-7,4.329-2.1,4.39-5.44,4.2,1.063,6.806-1.864,10.252,2.983,3.227,1.488,2.867,4.72-3.572,2.692-6.79,3.559,1.238,4.718-7.13,3.043.655,1.713-14.315-2.925-3.9Z" transform="translate(0 -18.975)" fill="#765d50"/>
        <path id="路径_15278" data-name="路径 15278" d="M263.232,171.772c-2.759-6.1-7.6-10.511-11.64-15.592l.1.626a12.809,12.809,0,0,0-.767-1.971,21.275,21.275,0,0,1-.795-2.468,12.66,12.66,0,0,1-.1-5.5,18.263,18.263,0,0,1,4.373-8.35A20.476,20.476,0,0,0,241.9,149.071a31.47,31.47,0,0,0-2.252,7.766,9.66,9.66,0,0,0-.029,3.223c.191,1.763.215,3.56.514,5.306a17.251,17.251,0,0,1-6.292-11.5c-.536-4.535.359-9.2,1.567-13.6,2.384-8.688,6.18-16.887,7.224-25.916.628-5.443.467-11.131-1.351-16.219a19.237,19.237,0,0,0-10.535-11.444,17.949,17.949,0,0,1,4.576,9.923,20.3,20.3,0,0,1-1.782,9.864c-2.946,6.912-8.08,12.637-12.844,18.207-1.421,1.662-2.854,3.328-4.211,5.055,2.584-10.549,6.191-21.347,4.754-32.265-1.373-10.486-7.5-19.146-15.42-25.069-7.193-5.379-15.613-8.871-21.939-15.516-3.182-3.338-6.274-7.62-6.021-12.731a45.98,45.98,0,0,1,1.629-9.624c-6.128,8.08-5.368,18.643-.914,27,4.917,9.236,13.3,15.363,19.058,23.876a21.205,21.205,0,0,1,3.859,9.665c.338,3.525-.726,7.085-2.024,10.347-2.624,6.594-6.731,12.4-9.741,18.795.056-8.4-1.292-17.05-6.007-23.824-4.683-6.742-11.928-10.92-18.873-14.589,6.971,8.1,14.357,17.9,11.869,29.893-1.159,5.58-3.55,10.8-5.529,16.113a87.429,87.429,0,0,0-4.485,16.27c-.3,1.786-.534,3.585-.691,5.384-4.822-8.638-12.61-16.227-22.726-16.084,17,6.475,14.235,28.951,14.266,44.529.022,11.707,2.089,23.076,8.087,32.832a53.866,53.866,0,0,0,21.068,19.638,49.869,49.869,0,0,0,26,5.551,54.727,54.727,0,0,0,24.719-8.121c13.834-8.412,26.066-23.16,28.454-40.2a37.713,37.713,0,0,0-.033-10.995,34.772,34.772,0,0,0-1.239-5.261q-.443-1.368-.993-2.686l-.507-1.139.582,1.392.627,1.457-.229-.559c-.287-.676-.575-1.358-.856-2.036-2.865-6.327,2.806,6.653,0,0" transform="translate(0 -2.495)" fill="#e88d12"/>
        <path id="路径_15279" data-name="路径 15279" d="M151.509,136.8c-1.635,1.063-3.6-.286-4.355-1.852a9.2,9.2,0,0,1-.705-4.452c.048-.715.1-1.445.17-2.162a4.185,4.185,0,0,0-.243-2.366c-.918-1.359-2.506-3.692-1.24-5.408,1.018,1.387,2.9,1.137,4.22,2.059a6.223,6.223,0,0,1,2.575,4.564,9.333,9.333,0,0,1-.115,2.637,21.045,21.045,0,0,1-.714,2.688l-.344,1.376-.031-.138a3.187,3.187,0,0,0,.782,3.054" transform="translate(0 -8.713)" fill="#e88d12"/>
        <path id="路径_15280" data-name="路径 15280" d="M160.983,112.216c-6.262,1.956-11.365-1.781-12.043-6.087-.5-3.177,1.29-6.4,2.154-9.647.8-2.986-.683-5.539-2.557-7.644a9.418,9.418,0,0,1,7.141,1.766,7.323,7.323,0,0,1,2.69,6.693,22.041,22.041,0,0,1-1.348,5.205,12.239,12.239,0,0,0-.559,2.967l.057,1.269.176.433.063.312c.476.6.643,1.41,1.1,2.035a12.608,12.608,0,0,0,3.121,2.7" transform="translate(0 -6.412)" fill="#e88d12"/>
        <path id="路径_15281" data-name="路径 15281" d="M200.081,51.03a5.343,5.343,0,0,1-6.075-.891c-1.15-.943-3.031-3.191-3.036-4.791l-.381-1.611a13,13,0,0,1-.138-3.3,32.457,32.457,0,0,1,1.621-8.421l-.049.2a30.7,30.7,0,0,0,.915-6.15,25.077,25.077,0,0,0-2.214-10.4c7.324-.477,11.644,7.92,11.448,14.755a24.068,24.068,0,0,1-1.677,7.546,44.268,44.268,0,0,0-2.231,6.455l-.016-.269v.028a8.023,8.023,0,0,0-.222,3.138,5.966,5.966,0,0,0,2.055,3.708" transform="translate(0 -1.131)" fill="#e88d12"/>
        <path id="路径_15282" data-name="路径 15282" d="M227.939,76.152a12.287,12.287,0,0,1-6.531-.417c-1.4-.479-3.55-1.759-4.2-2.894a18.9,18.9,0,0,1-1.827-3.408,15.01,15.01,0,0,1-.212-7.918c.881-4.077,3.108-7.618,4.513-11.493l.055.278.094-1.38A7.845,7.845,0,0,0,219.837,47a5.536,5.536,0,0,0-1.943-3.292c2.13-1.3,4.584-.409,6.236,1.2a11.012,11.012,0,0,1,2.9,8.617c-.172,3.166-1.291,6.138-2.3,9.12a34.492,34.492,0,0,0-1.071,4.031l-.178,1,.247,1-.209-.383.22.856a10.966,10.966,0,0,0,1.437,2.917c.88,1.384,1.944,2.645,2.755,4.084" transform="translate(0 -3.114)" fill="#e88d12"/>
        <path id="路径_15283" data-name="路径 15283" d="M245.672,94.394a4.594,4.594,0,0,1-4.041-1.107,7.629,7.629,0,0,1-2.385-4.92c-.218-2.535.988-4.858,1.384-7.322l.024.106,0-.007a12.231,12.231,0,0,0-.29-2.352,10.315,10.315,0,0,0-1.05-2.354,4.762,4.762,0,0,1,4.35,2.59,7.283,7.283,0,0,1,.881,4.233c-.135,1.758-.889,3.42-.969,5.169a8.509,8.509,0,0,0,.535,3.461,10.639,10.639,0,0,0,1.563,2.5" transform="translate(0 -5.523)" fill="#e88d12"/>
        <path id="路径_15284" data-name="路径 15284" d="M251.505,135.594a2.966,2.966,0,0,1-2.224-2.39,4.944,4.944,0,0,1,.015-2.861l.278-1.083.63-1.548c.346-.745.643-1.517,1-2.25l-.053.155.009-.016.278-1.2a3.694,3.694,0,0,0-.736-2.253c-.821-1.429-1.974-3.767-.532-5.28.542,1.747,2.36,2.134,3.62,3.15a5.818,5.818,0,0,1,2.11,5.37,8.287,8.287,0,0,1-.771,2.487,11.112,11.112,0,0,1-1.449,2.294l-1.307,1.727.057-.135-.8,1.387a3.719,3.719,0,0,0-.12,2.442" transform="translate(0 -8.447)" fill="#e88d12"/>
        <path id="路径_15285" data-name="路径 15285" d="M166.722,71.793a12.73,12.73,0,0,1-7.7-.624,11.71,11.71,0,0,1-3.742-2.433,7.365,7.365,0,0,1-1.781-2.188l-.524-1.072a9.511,9.511,0,0,1-.912-2.743,18.356,18.356,0,0,1,.322-7.7,74.791,74.791,0,0,1,3.411-9.6,26.567,26.567,0,0,0,1.488-4.544c.031-.142.051-1.4.266-.827a24.366,24.366,0,0,0-.441-3.742,6.8,6.8,0,0,0-3.284-3.856c3.8-1.8,7.444-.553,10.148,1.356a9.268,9.268,0,0,1,3.333,4.727,14.616,14.616,0,0,1,.639,6.267c-.58,6.222-4.812,12.308-4.99,18.437l-.089-.29.006.026c.034,3.59,1.648,6.127,3.849,8.8" transform="translate(0 -2.283)" fill="#e88d12"/>
        <path id="路径_15286" data-name="路径 15286" d="M175.766,26.155c-4.218.965-7.508-3.227-7.868-7.222-.246-2.772.808-5.473,2.053-7.905a17.629,17.629,0,0,0,1.937-4.792l0-.02.059.18a17.461,17.461,0,0,0-.556-3.47,9.991,9.991,0,0,0-1.569-2.7c4.146-1.261,7.562,2.936,8.033,6.894a13.644,13.644,0,0,1-1.735,7.428c-.593,1.208-1.249,2.385-1.771,3.629a4.684,4.684,0,0,0-.453,1.982l-.045-.233,0,.02a10.291,10.291,0,0,0,1.915,6.2" transform="translate(0 0)" fill="#e88d12"/>
        <path id="路径_15287" data-name="路径 15287" d="M242.374,208.708c-1.552-3.438-4.278-5.924-6.55-8.783l.047.352-.426-1.108-.452-1.393a7.2,7.2,0,0,1-.055-3.093,10.223,10.223,0,0,1,2.463-4.7,11.523,11.523,0,0,0-7.037,5.946,17.894,17.894,0,0,0-1.271,4.371,5.52,5.52,0,0,0-.01,1.814c.1,1,.119,2,.288,2.991a9.746,9.746,0,0,1-3.546-6.476,20.317,20.317,0,0,1,.885-7.664c1.343-4.888,3.48-9.513,4.064-14.593a20.419,20.419,0,0,0-.755-9.133,10.863,10.863,0,0,0-5.934-6.448,10.1,10.1,0,0,1,2.577,5.589,11.473,11.473,0,0,1-1.008,5.558c-1.657,3.891-4.547,7.115-7.232,10.248-.8.937-1.6,1.875-2.373,2.853,1.459-5.94,3.492-12.022,2.68-18.17a21.25,21.25,0,0,0-8.684-14.12c-4.049-3.034-8.79-4.994-12.354-8.735-1.794-1.88-3.538-4.3-3.389-7.172a26.016,26.016,0,0,1,.914-5.421c-3.45,4.551-3.019,10.5-.512,15.208,2.771,5.2,7.492,8.649,10.729,13.445a11.892,11.892,0,0,1,2.176,5.442,12.845,12.845,0,0,1-1.141,5.828c-1.479,3.713-3.791,6.984-5.481,10.583.025-4.73-.729-9.6-3.388-13.42-2.633-3.791-6.72-6.146-10.624-8.212,3.92,4.559,8.084,10.082,6.679,16.832a62.817,62.817,0,0,1-3.11,9.071,49.393,49.393,0,0,0-2.529,9.165c-.169,1.01-.3,2.014-.389,3.031-2.715-4.862-7.1-9.133-12.8-9.058,9.577,3.647,8.022,16.31,8.036,25.078.013,6.593,1.18,13,4.553,18.492a30.357,30.357,0,0,0,11.864,11.057,28.082,28.082,0,0,0,14.642,3.127,30.8,30.8,0,0,0,13.922-4.577c7.791-4.734,14.68-13.039,16.022-22.637a21.021,21.021,0,0,0-.017-6.191,18.754,18.754,0,0,0-.7-2.96l-.558-1.51-.286-.642.329.784.35.82-.127-.322-.483-1.14c-1.611-3.561,1.583,3.745,0,0" transform="translate(0 -9.498)" fill="#f4e427"/>
        <path id="路径_15288" data-name="路径 15288" d="M223.636,232.453c-3.521,9.385,6.061,14.068-5.548,19.409-4.55,2.085-19.763-1.624-17-14.105,4.349-13.559,10-15.27-1.642-36.974,4.157,2.394,29.807,16.675,24.186,31.67" transform="translate(0 -14.511)" fill="#fff"/>
      </g>
    </g>
  </g>
</svg>
