<svg xmlns="http://www.w3.org/2000/svg" viewBox="0 0 59.44 59.44"><defs><style>.cls-1{fill:#ff4a4a;}.cls-2{fill:#fff;}</style></defs><g id="圖層_2" data-name="圖層 2"><g id="圖層_1-2" data-name="圖層 1"><circle class="cls-1" cx="29.72" cy="29.72" r="29.72"/><path id="Icon_ionic-logo-google" data-name="Icon ionic-logo-google" class="cls-2" d="M49.74,26.54l-.21-.88H30.32v8.13H41.8c-1.19,5.66-6.73,8.64-11.24,8.64a13.46,13.46,0,0,1-9-3.61,12.89,12.89,0,0,1-3.85-9.11,13.32,13.32,0,0,1,3.78-9.11,12.93,12.93,0,0,1,9-3.52,11.72,11.72,0,0,1,7.64,3l5.78-5.75A20.4,20.4,0,0,0,30.24,9.07h0a21.08,21.08,0,0,0-14.9,6.06,21,21,0,0,0-.23,28.94,21.58,21.58,0,0,0,15.54,6.3,19.14,19.14,0,0,0,14-5.87A20.6,20.6,0,0,0,50,30.22,22.68,22.68,0,0,0,49.74,26.54Z"/></g></g></svg>