<svg xmlns="http://www.w3.org/2000/svg" xmlns:xlink="http://www.w3.org/1999/xlink" width="1069.319" height="579.773" viewBox="0 0 1069.319 579.773">
  <defs>
    <clipPath id="clip-path">
      <rect id="矩形_422" data-name="矩形 422" width="417.59" height="413.876" fill="none"/>
    </clipPath>
    <clipPath id="clip-path-2">
      <path id="路径_7579" data-name="路径 7579" d="M154.38,203.686c-13.244,6.511-20.536,21.6-21.745,36.308s2.644,29.309,6.465,43.564c-3.107-10.35-6.36-20.984-13.121-29.414s-17.962-14.233-28.41-11.475c-8.578,2.265-15,9.9-17.758,18.334s-2.354,17.577-1.045,26.351c2.621,17.56,9.023,33.382,17.46,48.868,6.789,12.46,11.955,25.148,23.125,34.588,22.116,18.692,53.752,19.548,82.71,19.478,29.541-.072,60.645-.545,86.186-15.391,24.591-14.294,40.284-39.815,53.3-65.106,5.775-11.221,11.38-23.492,9.54-35.977-2.261-15.339-17.129-27.756-32.626-27.246S288.946,260.444,287.7,275.9q-1.09-15.345-2.18-30.687c-11.815-2.146-24.393,7.5-25.385,19.467-1.717-9.39,2.493-18.695,5.481-27.762s4.489-19.99-1.589-27.351c-7.366-8.922-21.631-7.5-32.058-2.494a67.84,67.84,0,0,0-37.308,52.479q-1.017-16.188-2.032-32.375a42.972,42.972,0,0,0-1.51-10.387c-3.214-10.1-13.935-15.813-24.63-15.813a27.506,27.506,0,0,0-12.107,2.71" fill="none"/>
    </clipPath>
    <linearGradient id="linear-gradient" x1="-0.279" y1="1.124" x2="-0.276" y2="1.124" gradientUnits="objectBoundingBox">
      <stop offset="0" stop-color="#050f05"/>
      <stop offset="0.097" stop-color="#071012"/>
      <stop offset="1" stop-color="#1d2088"/>
    </linearGradient>
    <clipPath id="clip-path-3">
      <path id="路径_7580" data-name="路径 7580" d="M86.581,170.052c-4.676,11.979-4.312,25.217-3.668,38.094-1.149-9.792-13.194-16.5-22.894-13.581-10.26,3.084-16.734,13.95-17.481,24.638-.621,8.918,2.019,17.681,5.732,25.887a25.935,25.935,0,0,0-24.708-11.341c-11.276,1.57-20.8,10.944-23.392,22.032A7.963,7.963,0,0,0,0,257.519v.1c.059,15.022,25.389,74.066,25.389,74.066s58.467,3.518,73.3-8.107c5.246-4.11,9.973-9.654,10.608-16.287s-4.471-14-11.125-13.654c6.508-.534,13.208-1.12,19.019-4.1s10.579-8.979,10.069-15.49c-.437-5.565-5.992-10.439-11.239-9.9,5.425-1.611,10.822-3.461,15.4-6.739,5.32-3.806,9.422-9.972,8.973-16.5-.439-6.355-5.282-11.929-11.251-14.152s-12.792-1.4-18.567,1.289c9.222-7.133,18.085-15.056,24.209-24.977s9.27-22.142,6.375-33.436-12.688-21.1-24.317-21.933c-.559-.041-1.116-.06-1.67-.06-12.717,0-23.92,10.416-28.6,22.407" fill="none"/>
    </clipPath>
    <linearGradient id="linear-gradient-2" x1="0.191" y1="1.304" x2="0.195" y2="1.304" gradientUnits="objectBoundingBox">
      <stop offset="0" stop-color="#151c51"/>
      <stop offset="1" stop-color="#00539c"/>
    </linearGradient>
    <clipPath id="clip-path-5">
      <rect id="矩形_408" data-name="矩形 408" width="113.875" height="190.815" transform="translate(7.644 160.661)" fill="none"/>
    </clipPath>
    <clipPath id="clip-path-6">
      <path id="路径_7582" data-name="路径 7582" d="M159.45,263.617c-3.205-7.625-14.249-31.1-25.229-25.11-15.948,8.7-3.825,38.994,6.214,62.17-5.356-6.661-11-13.552-18.78-17.1s-18.333-2.57-23.162,4.482c-4.15,6.063-2.84,14.255-.6,21.254A102.116,102.116,0,0,0,124.5,351.873c-4.82-2.726-9.836-5.515-15.355-5.982s-12.1,1.938-13.676,7.248c-9.722,32.811,68.633,53.268,72.222,49.8a90.25,90.25,0,0,0,48.726-42.162c2.136-4.02,4-8.356,4.025-12.909s-2.166-9.368-6.294-11.287c-3.495-1.627-7.721-.9-11.107.939s-6.1,4.683-8.758,7.476a106.341,106.341,0,0,0,18.159-30.889c1.962-5.185,3.179-11.881-.963-15.565-2.914-2.593-7.506-2.451-11-.709a18.517,18.517,0,0,0-4.018,2.785c34.764-38.776,14.99-65.008-7.185-36.775,1.393-16.527,20.191-65.492-9.84-66.864-.376-.017-.748-.026-1.112-.026-28.7,0-20.078,52.73-18.881,66.666" fill="none"/>
    </clipPath>
    <linearGradient id="linear-gradient-3" x1="-0.169" y1="1.093" x2="-0.164" y2="1.093" gradientUnits="objectBoundingBox">
      <stop offset="0" stop-color="#151c51"/>
      <stop offset="0.001" stop-color="#151c51"/>
      <stop offset="1" stop-color="#7e77b6"/>
    </linearGradient>
    <clipPath id="clip-path-8">
      <rect id="矩形_411" data-name="矩形 411" width="73.805" height="193.557" transform="translate(127.152 206.626)" fill="none"/>
    </clipPath>
    <clipPath id="clip-path-9">
      <path id="路径_7584" data-name="路径 7584" d="M356.439,12.016c-32.79,33.435-41.953,87.691-47.981,134.131-9.83,75.725,4.145,184.372,4.145,184.372s51.885-74.877,78.816-152.807c13.763-39.827,31.433-98.845,24.687-141.037C412.808,16.047,398.337,0,381.348,0c-8.045,0-16.656,3.6-24.909,12.016" fill="none"/>
    </clipPath>
    <linearGradient id="linear-gradient-4" x1="-0.531" y1="1.782" x2="-0.529" y2="1.782" gradientUnits="objectBoundingBox">
      <stop offset="0" stop-color="#1d2088"/>
      <stop offset="0.292" stop-color="#35519d"/>
      <stop offset="1" stop-color="#6ec6d1"/>
    </linearGradient>
    <clipPath id="clip-path-11">
      <rect id="矩形_414" data-name="矩形 414" width="105.127" height="337.886" transform="translate(307.367 17.299)" fill="none"/>
    </clipPath>
    <clipPath id="clip-path-12">
      <path id="路径_7586" data-name="路径 7586" d="M162.034,227.473c-16.785,13.666-27.279,33.836-32.994,54.712-4.6,16.822-11.47,43.2-7.789,60.576,2.992,14.13,19.235,25.651,32.209,29.657,12.946,4,26.928,3.418,40.224.809A136.623,136.623,0,0,0,303.605,249.521c.813-10.687-.031-22.486-7.3-30.362-6.97-7.553-17.977-9.522-28.178-10.782a276.277,276.277,0,0,0-33.664-2.283c-26.371,0-52.363,5.042-72.429,21.379" fill="none"/>
    </clipPath>
    <linearGradient id="linear-gradient-5" x1="-0.339" y1="0.994" x2="-0.335" y2="0.994" xlink:href="#linear-gradient-4"/>
    <clipPath id="clip-path-14">
      <rect id="矩形_417" data-name="矩形 417" width="192.716" height="176.969" transform="translate(103.464 219.466)" fill="none"/>
    </clipPath>
    <clipPath id="clip-path-15">
      <path id="路径_7588" data-name="路径 7588" d="M48.61,370.995s72.978-18.612,100.013-97.231c18.091-52.612,29.076-112,28.857-137.812C126.523,156.389,8.4,240.532,48.61,370.995" fill="none"/>
    </clipPath>
    <linearGradient id="linear-gradient-6" x1="0.041" y1="1.122" x2="0.046" y2="1.122" gradientUnits="objectBoundingBox">
      <stop offset="0" stop-color="#1d2088"/>
      <stop offset="1" stop-color="#789bcd"/>
    </linearGradient>
    <clipPath id="clip-path-17">
      <rect id="矩形_420" data-name="矩形 420" width="117.376" height="256.138" transform="translate(44.974 157.738)" fill="none"/>
    </clipPath>
    <clipPath id="clip-path-18">
      <path id="路径_7546" data-name="路径 7546" d="M260.26,253.808c-1.782,5.048.143,10.943,3.983,14.675s9.283,5.484,14.633,5.7,10.657-.971,15.8-2.455c3.266-.917,6.494-2,9.674-3.185,1.865-.691,8.466-2.166,9.39-3.886,1.208-2.25-4.374-4.307-6.45-5.582l-10.141-6.229c-6.052-3.717-12.369-7.528-19.432-8.274a19.2,19.2,0,0,0-2-.1c-6.516,0-13.315,3.264-15.46,9.337m2.823-72.049c-1.722,4.076-1.584,8.7-.915,13.07,1.234,8.045,7.1,21.268,14.654,28.875l.417.412c.213.207.428.411.644.609,5.375-8.857,6.875-21.406,6.9-31.63.011-4.075-.32-8.274-2.131-11.924s-5.391-6.66-9.464-6.759c-.069,0-.137,0-.2,0-4.341,0-8.207,3.335-9.9,7.349M209.365,120c-1.8,3.228-2.111,7.078-1.955,10.772.3,7.109,4.3,19.391,10.317,26.266,5.274-6.864,7.668-17.149,8.625-25.637.38-3.383.49-6.9-.681-10.1s-3.867-6.025-7.241-6.479a7.1,7.1,0,0,0-.951-.064c-3.324,0-6.468,2.292-8.114,5.24M154.9,115.395a9.639,9.639,0,0,0,1.569,10.03,14.847,14.847,0,0,0,9.3,4.855,33.446,33.446,0,0,0,10.666-.475c2.234-.37,4.455-.856,6.651-1.406,1.289-.324,5.778-.819,6.516-1.893.967-1.4-2.587-3.178-3.872-4.176l-6.274-4.875c-3.745-2.909-7.659-5.9-12.292-6.911a13.009,13.009,0,0,0-2.766-.294c-3.893,0-7.834,1.7-9.493,5.145M142.487,77.968a9.641,9.641,0,0,0-1.233,10.077,14.848,14.848,0,0,0,7.613,7.211,33.431,33.431,0,0,0,10.389,2.461c2.25.254,4.52.395,6.783.466,1.328.041,5.781.792,6.785-.039,1.313-1.087-1.62-3.764-2.583-5.076l-4.7-6.4c-2.806-3.823-5.753-7.77-9.934-10.01a13.154,13.154,0,0,0-6.12-1.541,9.163,9.163,0,0,0-7,2.855M161.43,40.386a13.377,13.377,0,0,0-3.189,6.493c-1.093,4.573-.772,13.1,1.81,18.56,4.593-3.409,7.974-9.515,10.116-14.737a14.666,14.666,0,0,0,1.393-6.542,6.358,6.358,0,0,0-3.433-5.427,4.933,4.933,0,0,0-1.979-.4,6.9,6.9,0,0,0-4.718,2.054M134.587.014a5.305,5.305,0,0,0-4.331,3.535,8.176,8.176,0,0,0,.277,5.767,18.4,18.4,0,0,0,3.192,4.938c.8.96,1.646,1.88,2.518,2.77.486.5,1.837,2.3,2.587,2.529q1.908,6.8,4.315,13.523-1.094-1.491-2.188-2.98c-1.545-2.105-3.168-4.279-5.47-5.512s-5.49-1.23-7.224.723a5.309,5.309,0,0,0-.679,5.55,8.176,8.176,0,0,0,4.192,3.97,18.383,18.383,0,0,0,5.721,1.356c1.24.14,2.489.217,3.735.256a20.768,20.768,0,0,0,3.2.151c2.954,7.9,6.312,15.684,9.834,23.292q-.73-.993-1.459-1.987c-2.039-2.777-4.18-5.645-7.218-7.273s-7.243-1.621-9.531.955a7.005,7.005,0,0,0-.9,7.322,10.788,10.788,0,0,0,5.531,5.239,24.273,24.273,0,0,0,7.548,1.788c1.636.185,3.285.287,4.93.339a27.826,27.826,0,0,0,4.2.2q1.708,3.564,3.436,7.069a483.226,483.226,0,0,0,35.883,60.794q7.2,10.447,14.891,20.527c-.234-.158-.444-.3-.617-.439l-6.9-5.36c-4.117-3.2-8.42-6.487-13.514-7.6s-11.216.637-13.479,5.334c-1.707,3.54-.776,8,1.726,11.028a16.311,16.311,0,0,0,10.219,5.337,36.73,36.73,0,0,0,11.726-.521c2.457-.407,4.9-.941,7.316-1.547,1.315-.329,5.625-.83,6.888-1.845q11.919,15.386,24.8,29.987c-.619-.408-1.2-.78-1.6-1.088l-7.362-5.719c-4.394-3.414-8.986-6.922-14.422-8.109s-11.969.679-14.384,5.692c-1.821,3.778-.827,8.533,1.842,11.769a17.418,17.418,0,0,0,10.9,5.7,39.217,39.217,0,0,0,12.514-.556c2.623-.434,5.228-1.005,7.806-1.651,1.512-.379,6.778-.96,7.644-2.221a1.048,1.048,0,0,0,.147-.3q14.4,16.142,29.763,31.4c-1.143-.64-2.376-1.2-3.11-1.655l-8.91-5.472c-5.318-3.266-10.868-6.614-17.073-7.269s-13.259,2.226-15.336,8.112c-1.566,4.435.125,9.614,3.5,12.893s8.157,4.818,12.856,5.01a43.975,43.975,0,0,0,13.883-2.157c2.869-.806,5.705-1.761,8.5-2.8,1.638-.608,7.438-1.9,8.25-3.415a1.151,1.151,0,0,0,.133-.563q10.245,10.122,20.818,19.9,32.254,29.842,66.735,57.148c.834.658,1.758-.646.965-1.325-15.745-13.495-31.452-27.132-46.887-41.067,6.049-10.073,7.746-24.276,7.775-35.859.011-4.639-.365-9.417-2.427-13.572s-6.135-7.581-10.772-7.693c-5.034-.122-9.544,3.722-11.5,8.362s-1.8,9.9-1.04,14.876c1.355,8.84,7.633,23.161,15.8,31.933C302,247.97,289.452,236.2,277.239,224.116c-.14-.136-.278-.273-.417-.412q-16.159-16-31.434-32.787c5.614-7.325,8.164-18.283,9.183-27.331.407-3.61.524-7.363-.725-10.776s-4.127-6.429-7.728-6.914c-3.91-.526-7.75,2.08-9.674,5.525s-2.252,7.552-2.085,11.494c.314,7.415,4.4,20.088,10.582,27.509a590.327,590.327,0,0,1-52.473-66.574c4.37-6.222,6.424-15.068,7.256-22.451a20.153,20.153,0,0,0-.618-9.184c-1.065-2.908-3.517-5.479-6.586-5.892-3.333-.449-6.606,1.772-8.245,4.708s-1.92,6.437-1.778,9.8a42.008,42.008,0,0,0,2.68,11.848q-4.909-7.76-9.538-15.739c6.252-4.711,10.863-13.036,13.79-20.172a20.161,20.161,0,0,0,1.916-9c-.228-3.089-1.884-6.233-4.723-7.47-3.082-1.343-6.839-.1-9.218,2.274s-3.608,5.667-4.389,8.937c-1.413,5.912-1.108,16.624,1.879,24.129-2.609-4.538-5.163-9.118-7.624-13.77-7.993-15.1-14.4-30.616-20.505-46.314,3.314-2.626,5.776-7.069,7.348-10.9a11.1,11.1,0,0,0,1.056-4.958,4.817,4.817,0,0,0-2.6-4.113,4.767,4.767,0,0,0-5.076,1.252,10.148,10.148,0,0,0-2.417,4.922,25.469,25.469,0,0,0-.015,9.38Q142.428,24.3,139.8,17.444c.018-.327.031-.629.06-.851q.285-2.168.572-4.338c.341-2.588.675-5.281-.133-7.764C139.53,2.118,137.392,0,134.931,0c-.114,0-.229,0-.344.014" fill="none"/>
    </clipPath>
    <linearGradient id="linear-gradient-7" x1="-0.136" y1="1.261" x2="-0.133" y2="1.261" gradientUnits="objectBoundingBox">
      <stop offset="0" stop-color="#1d2088"/>
      <stop offset="0.29" stop-color="#35519d"/>
      <stop offset="0.992" stop-color="#6ec6d1"/>
      <stop offset="1" stop-color="#6ec6d1"/>
    </linearGradient>
    <clipPath id="clip-path-19">
      <path id="路径_7547" data-name="路径 7547" d="M176.763,312.071c-1.857,6.857-.586,14.123.694,21.11q1.071,5.853,2.143,11.706c.439,2.4.34,8.345,2.874,8.031,1.939-.239,5.7-5.862,7.017-7.351,2.249-2.539,4.429-5.154,6.465-7.869,3.242-4.261,6.269-8.78,8-13.846s2.062-10.778-.03-15.7-6.893-8.854-12.245-9.016c-.117,0-.236-.005-.353-.005-6.943,0-12.737,6.2-14.562,12.945M123.476,275.73c-4.422.132-9,2.606-10.5,6.769-1.379,3.834.134,8.26,2.883,11.267s6.545,4.833,10.348,6.3c9.543,3.67,21.786,6.8,31.987,4.993-.1-.269-.216-.54-.33-.81-.082-.187-.162-.372-.244-.56-4.367-9.786-14.572-20.03-21.625-24.085-3.7-2.128-7.8-3.876-12.057-3.876-.153,0-.307,0-.461.006M85.3,203.329c-3.66.515-7.238,2.988-8.1,6.583-.795,3.311.867,6.847,3.426,9.093s5.877,3.416,9.169,4.282c8.261,2.176,18.716,3.659,27.022,1.222-4.237-8.1-14.244-16.261-20.764-19.11a22.6,22.6,0,0,0-8.883-2.2,13.481,13.481,0,0,0-1.868.128m15.381-52.449c-4.728.376-8.222,4.992-8.953,9.678s.643,9.415,2,13.958q1.14,3.807,2.278,7.613c.467,1.558.836,5.512,2.495,5.119,1.269-.3,3.353-4.307,4.119-5.391,1.307-1.85,2.563-3.745,3.715-5.695a33.408,33.408,0,0,0,4.3-9.774,14.838,14.838,0,0,0-1.168-10.421,9.773,9.773,0,0,0-8.178-5.111q-.3,0-.607.024m-72.3-21.014c-2.234.988-4.061,3.207-3.961,5.648a6.357,6.357,0,0,0,3.821,5.162,14.667,14.667,0,0,0,6.6,1.064c5.644-.11,12.558-1.056,17.4-4.107-4.155-4.38-11.992-7.762-16.651-8.395a20.882,20.882,0,0,0-2.785-.206,10.85,10.85,0,0,0-4.422.834m41.887-4.085c-4.444,1.656-6.543,7.051-5.965,11.758s3.194,8.881,5.745,12.879q2.136,3.35,4.273,6.7c.875,1.371,2.311,5.074,3.8,4.241,1.138-.635,2.047-5.059,2.488-6.311.751-2.137,1.441-4.3,2.016-6.495a33.437,33.437,0,0,0,1.459-10.576,14.842,14.842,0,0,0-3.973-9.7,10.223,10.223,0,0,0-7.034-2.986,8.024,8.024,0,0,0-2.808.494M.436,90.249C-.7,92.6.522,95.546,2.545,97.2s4.655,2.313,7.193,2.93l4.252,1.033c.216.053.5.151.813.252q5.445,4.935,10.86,9.844a25.488,25.488,0,0,0-8.752-3.375,10.144,10.144,0,0,0-5.462.476,4.318,4.318,0,0,0-.106,8.192,11.1,11.1,0,0,0,5,.808c4.142-.081,9.175-.771,12.821-2.913C41.6,125.811,53.751,137.387,64.946,150.3c3.447,3.975,6.8,8.011,10.084,12.084-5.918-5.5-15.8-9.652-21.819-10.47-3.332-.453-6.845-.5-9.919.863s-5.59,4.415-5.452,7.774c.128,3.094,2.461,5.775,5.258,7.1a20.148,20.148,0,0,0,9.088,1.466c7.712-.151,17.14-1.443,23.793-5.57q5.771,7.2,11.228,14.58a42.015,42.015,0,0,0-10.079-6.779c-3.08-1.346-6.446-2.35-9.776-1.882s-6.584,2.718-7.37,5.986c-.722,3.012.789,6.228,3.115,8.271a20.18,20.18,0,0,0,8.341,3.895c7.184,1.892,16.175,3.172,23.555,1.345a590.146,590.146,0,0,1,43.118,72.983c-4.686-8.444-15.026-16.835-21.826-19.807-3.616-1.58-7.566-2.757-11.473-2.209s-7.724,3.189-8.645,7.025c-.849,3.532.924,7.307,3.655,9.7s6.272,3.645,9.785,4.57c8.8,2.318,19.944,3.9,28.8,1.311q10.176,20.268,19.21,41.145.126.281.244.56c6.849,15.749,13.291,31.7,19.459,47.768-5.228-10.786-16.313-21.814-24.066-26.271-4.367-2.51-9.215-4.556-14.248-4.406s-10.247,2.966-11.952,7.7c-1.571,4.364.152,9.4,3.281,12.823s7.449,5.5,11.778,7.167c10.811,4.158,24.668,7.708,36.245,5.706,7.418,19.426,14.458,39,21.354,58.558.346.984,1.895.594,1.583-.422Q188.37,370.879,172.121,330q-5.3-13.383-11.029-26.6a1.152,1.152,0,0,0,.574.079c1.7-.21,5.006-5.15,6.165-6.459,1.976-2.23,3.892-4.529,5.679-6.914a43.972,43.972,0,0,0,7.027-12.165c1.52-4.451,1.812-9.469-.027-13.8s-6.056-7.778-10.757-7.92c-6.238-.189-11.474,5.346-13.105,11.37s-.515,12.408.609,18.546q.94,5.142,1.884,10.285c.155.848.235,2.2.419,3.5q-8.712-19.808-18.526-39.1a1.069,1.069,0,0,0,.333-.027c1.489-.353,3.934-5.054,4.834-6.326,1.533-2.17,3.006-4.394,4.358-6.683a39.211,39.211,0,0,0,5.04-11.467,17.4,17.4,0,0,0-1.37-12.226c-2.052-3.659-6.127-6.3-10.308-5.97-5.546.441-9.647,5.857-10.505,11.356s.755,11.047,2.351,16.378l2.673,8.93c.144.481.281,1.157.438,1.882q-8.983-17.267-19-33.959c1.4-.812,3.428-4.65,4.211-5.757,1.436-2.034,2.818-4.117,4.084-6.262a36.715,36.715,0,0,0,4.723-10.746,16.319,16.319,0,0,0-1.284-11.457c-1.923-3.428-5.741-5.906-9.659-5.594-5.2.414-9.041,5.489-9.844,10.641s.707,10.352,2.2,15.348q1.252,4.184,2.506,8.369c.062.21.123.46.186.734q-6.642-10.794-13.76-21.3a483.313,483.313,0,0,0-43.722-55.423q-2.642-2.874-5.351-5.758a27.707,27.707,0,0,0,1.328-3.987c.546-1.551,1.047-3.126,1.465-4.718a24.262,24.262,0,0,0,1.06-7.684,10.784,10.784,0,0,0-2.887-7.05,7,7,0,0,0-7.15-1.81c-3.23,1.2-4.755,5.123-4.335,8.543s2.321,6.452,4.174,9.357l1.326,2.078c-5.822-6.033-11.866-11.976-18.167-17.585A20.689,20.689,0,0,0,32,109.608c.414-1.178.794-2.37,1.11-3.577a18.378,18.378,0,0,0,.8-5.824,8.174,8.174,0,0,0-2.188-5.344,5.308,5.308,0,0,0-5.42-1.372c-2.447.911-3.6,3.883-3.285,6.475s1.76,4.89,3.164,7.092q.993,1.559,1.988,3.117-5.4-4.658-11.05-8.91c.054-.783-1.136-2.693-1.423-3.325-.515-1.135-1.067-2.259-1.673-3.349a18.4,18.4,0,0,0-3.452-4.76A8.176,8.176,0,0,0,5.3,87.488H5.2A5.3,5.3,0,0,0,.436,90.249" fill="none"/>
    </clipPath>
    <linearGradient id="linear-gradient-8" x1="0.233" y1="1.013" x2="0.236" y2="1.013" xlink:href="#linear-gradient-7"/>
    <clipPath id="clip-path-20">
      <path id="路径_7548" data-name="路径 7548" d="M213.38,333.519c-3.2,6.339-3.428,13.713-3.586,20.814q-.135,5.949-.268,11.9c-.054,2.436-1.353,8.241,1.193,8.446,1.946.157,6.764-4.59,8.357-5.781,2.716-2.032,5.38-4.154,7.922-6.4,4.037-3.517,7.915-7.332,10.632-11.945s4.2-10.138,3.144-15.386-4.962-10.064-10.17-11.3a11.678,11.678,0,0,0-2.723-.319c-5.987,0-11.718,4.47-14.5,9.977m-56.493-41.855c-2.127,3.477-1.539,8.116.545,11.617s5.434,6.056,8.863,8.258c8.6,5.523,19.961,11.068,30.317,11.355q-.072-.42-.156-.844l-.133-.634c-2.3-10.463-10.223-22.545-16.307-27.938-3.311-2.935-7.119-5.556-11.477-6.32a12.935,12.935,0,0,0-2.246-.194c-3.72,0-7.487,1.564-9.406,4.7m-20.366-78.32c-1.448,3.082-.535,6.881,1.516,9.6s5.067,4.532,8.116,6.047c7.651,3.8,17.59,7.365,26.218,6.657-2.514-8.784-10.664-18.8-16.474-22.912-3.019-2.135-6.42-3.964-10.111-4.2q-.337-.022-.68-.022c-3.49,0-7.108,1.69-8.585,4.831m24.206-45.4c-1.664,4.441-1.273,9.351-.86,14.076q.347,3.955.693,7.914c.141,1.621-.3,5.568,1.408,5.518,1.3-.038,4.154-3.54,5.124-4.447,1.654-1.547,3.267-3.15,4.79-4.827a33.408,33.408,0,0,0,6.182-8.7,14.837,14.837,0,0,0,.962-10.44,9.637,9.637,0,0,0-7.575-6.759,7.653,7.653,0,0,0-.964-.06c-4.328,0-8.212,3.593-9.76,7.729m-13.989-38.4c-4.687.722-7.834,5.582-8.219,10.308s1.334,9.343,3.023,13.775q1.416,3.711,2.831,7.424c.579,1.52,1.238,5.437,2.864,4.922,1.243-.392,3.027-4.541,3.712-5.679,1.168-1.94,2.281-3.923,3.288-5.953a33.422,33.422,0,0,0,3.566-10.062,14.838,14.838,0,0,0-1.93-10.306,9.9,9.9,0,0,0-7.957-4.519,7.66,7.66,0,0,0-1.178.09m-41.849-4.467c-2.388.517-4.625,2.32-5.021,4.731a6.354,6.354,0,0,0,2.7,5.827,14.656,14.656,0,0,0,6.25,2.378c5.55,1.032,12.513,1.5,17.868-.507-3.184-5.129-10.176-10.025-14.612-11.587a16.01,16.01,0,0,0-5.232-1.044,9.186,9.186,0,0,0-1.953.2M85.527,80.636c-1.588,2.073-.986,5.2.662,7.23s4.091,3.205,6.452,4.323L96.6,94.06c.2.1.463.248.747.411q4.335,5.934,8.646,11.836a25.464,25.464,0,0,0-7.889-5.074,10.136,10.136,0,0,0-5.446-.638,4.318,4.318,0,0,0-1.759,8,11.114,11.114,0,0,0,4.737,1.8c4.074.757,9.142,1.1,13.146-.261,9.876,13.645,19.437,27.439,27.792,42.345,2.573,4.59,5.036,9.219,7.434,13.872-4.685-6.578-13.52-12.645-19.253-14.663-3.172-1.117-6.6-1.871-9.889-1.16s-6.366,3.194-6.91,6.512c-.5,3.056,1.243,6.153,3.714,8.02a20.167,20.167,0,0,0,8.6,3.271c7.583,1.411,17.078,2.051,24.428-.646q4.2,8.214,8.049,16.549a42.032,42.032,0,0,0-8.5-8.676c-2.745-1.941-5.84-3.6-9.2-3.819s-7,1.33-8.426,4.374c-1.317,2.8-.487,6.257,1.379,8.729a20.163,20.163,0,0,0,7.38,5.5c6.655,3.3,15.2,6.376,22.8,6.078a590.335,590.335,0,0,1,27.477,80.191c-2.883-9.216-11.314-19.524-17.373-23.809-3.221-2.278-6.851-4.229-10.789-4.482s-8.209,1.561-9.887,5.132c-1.545,3.288-.572,7.343,1.618,10.242s5.406,4.838,8.66,6.454c8.154,4.049,18.744,7.85,27.943,7.106,3.911,14.6,7.373,29.331,10.493,44.158.046.211.091.424.133.634,3.523,16.8,6.606,33.724,9.4,50.7-2.94-11.618-11.568-24.66-18.261-30.592-3.768-3.341-8.1-6.325-13.062-7.2s-10.636.834-13.264,5.13c-2.42,3.957-1.75,9.238.622,13.222s6.184,6.894,10.087,9.4c9.747,6.257,22.6,12.535,34.343,12.915,3.339,20.524,6.278,41.118,9.077,61.664.141,1.034,1.737.966,1.636-.092q-4.171-43.742-11.822-87.06-2.484-14.178-5.426-28.281a1.163,1.163,0,0,0,.546.194c1.71.137,5.943-4.033,7.343-5.08,2.386-1.786,4.727-3.649,6.961-5.623a44.006,44.006,0,0,0,9.34-10.494c2.387-4.054,3.688-8.907,2.763-13.519s-4.36-8.842-8.935-9.932c-6.071-1.446-12.318,2.916-15.133,8.486s-3.012,12.049-3.152,18.288l-.234,10.452c-.02.862-.214,2.2-.3,3.511q-4.527-21.159-10.242-42.035a1.08,1.08,0,0,0,.332.04c1.529-.045,4.875-4.154,6.013-5.218,1.941-1.815,3.832-3.7,5.619-5.664a39.223,39.223,0,0,0,7.255-10.212,17.417,17.417,0,0,0,1.128-12.251c-1.27-4-4.727-7.41-8.888-7.93-5.522-.688-10.633,3.788-12.584,9s-1.493,10.971-1.008,16.515l.813,9.287c.044.5.041,1.188.048,1.93q-5.307-18.725-11.746-37.1c1.539-.511,4.3-3.86,5.288-4.786,1.818-1.7,3.592-3.463,5.266-5.307a36.767,36.767,0,0,0,6.8-9.57,16.326,16.326,0,0,0,1.057-11.48c-1.19-3.746-4.429-6.945-8.329-7.432-5.175-.645-9.963,3.549-11.791,8.432s-1.4,10.282-.945,15.477q.38,4.35.761,8.7c.019.218.029.475.034.757q-4.323-11.916-9.17-23.643a483.115,483.115,0,0,0-31.618-63.118q-2.006-3.348-4.076-6.72a27.9,27.9,0,0,0,2.106-3.636c.849-1.41,1.658-2.85,2.389-4.325a24.267,24.267,0,0,0,2.591-7.312,10.786,10.786,0,0,0-1.4-7.488,7.006,7.006,0,0,0-6.638-3.218c-3.405.525-5.691,4.056-5.971,7.491s.969,6.788,2.2,10.008q.438,1.15.877,2.3c-4.482-7.085-9.2-14.127-14.236-20.9a20.572,20.572,0,0,0,1.61-2.771c.643-1.068,1.256-2.16,1.81-3.277a18.429,18.429,0,0,0,1.964-5.542,8.173,8.173,0,0,0-1.063-5.675,5.3,5.3,0,0,0-5.03-2.439c-2.582.4-4.314,3.074-4.526,5.677s.734,5.145,1.665,7.585q.659,1.727,1.316,3.454Q104.32,100.1,99.642,94.8c.211-.756-.567-2.867-.721-3.544-.276-1.216-.589-2.428-.962-3.618a18.419,18.419,0,0,0-2.418-5.36,8.174,8.174,0,0,0-4.7-3.36,5.694,5.694,0,0,0-1.25-.138,5.1,5.1,0,0,0-4.068,1.859" fill="none"/>
    </clipPath>
    <linearGradient id="linear-gradient-9" x1="-0.122" y1="0.959" x2="-0.118" y2="0.959" gradientUnits="objectBoundingBox">
      <stop offset="0" stop-color="#1d2088"/>
      <stop offset="0.312" stop-color="#4955a6"/>
      <stop offset="0.993" stop-color="#a7c6e8"/>
      <stop offset="1" stop-color="#a7c6e8"/>
    </linearGradient>
    <clipPath id="clip-path-21">
      <rect id="矩形_376" data-name="矩形 376" width="378.088" height="395.204" fill="none"/>
    </clipPath>
    <clipPath id="clip-path-22">
      <rect id="矩形_405" data-name="矩形 405" width="349.846" height="426.109" fill="none"/>
    </clipPath>
    <clipPath id="clip-path-23">
      <path id="路径_7565" data-name="路径 7565" d="M101.159,226.339c-13.244,6.509-20.536,21.6-21.746,36.307s2.644,29.309,6.465,43.563c-3.107-10.35-6.358-20.982-13.119-29.413S54.8,262.563,44.348,265.321c-8.578,2.266-15,9.9-17.758,18.334s-2.355,17.576-1.045,26.351c2.621,17.561,9.023,33.381,17.461,48.869,6.787,12.458,11.954,25.147,23.123,34.587,22.117,18.693,53.754,19.548,82.71,19.478,29.543-.072,60.645-.546,86.186-15.391,24.593-14.294,40.285-39.815,53.3-65.106,5.775-11.221,11.38-23.492,9.54-35.976-2.26-15.34-17.129-27.756-32.625-27.247s-29.518,13.876-30.765,29.331L232.3,267.863c-11.814-2.145-24.392,7.5-25.384,19.468-1.717-9.391,2.493-18.7,5.481-27.762s4.488-19.989-1.589-27.351c-7.365-8.921-21.631-7.505-32.059-2.493A67.837,67.837,0,0,0,141.438,282.2q-1.016-16.187-2.032-32.375a42.95,42.95,0,0,0-1.511-10.386c-3.213-10.1-13.935-15.814-24.629-15.813a27.506,27.506,0,0,0-12.107,2.71" fill="none"/>
    </clipPath>
    <linearGradient id="linear-gradient-10" x1="-0.086" y1="1.069" x2="-0.083" y2="1.069" xlink:href="#linear-gradient"/>
    <clipPath id="clip-path-24">
      <path id="路径_7566" data-name="路径 7566" d="M186.7,329.236c-6.254,3.367-10.657,9.287-14.85,15.02l-7.024,9.606c-1.438,1.967-5.824,5.985-3.854,7.61,1.507,1.242,8.174.105,10.163.039,3.389-.113,6.788-.329,10.158-.718,5.323-.576,10.686-1.486,15.553-3.715s9.242-5.914,11.381-10.822,1.688-11.092-1.874-15.089A13.719,13.719,0,0,0,195.9,326.91a19.707,19.707,0,0,0-9.2,2.326m-22.393-66.647c-3.734,1.634-5.9,5.776-6.2,9.841s.991,8.075,2.544,11.843c3.9,9.451,10.042,20.5,18.371,26.656q.193-.411.378-.834c.069-.164.138-.327.208-.491,4.116-9.9,4.539-24.377,2.63-32.3-1.037-4.3-2.661-8.63-5.8-11.75a12.5,12.5,0,0,0-8.533-3.7,8.9,8.9,0,0,0-3.6.733m28.1-75.89c-2.951,1.7-4.375,5.338-4.247,8.74s1.563,6.616,3.2,9.6c4.1,7.493,10.214,16.1,17.7,20.458,2.963-8.642,2.009-21.524-.4-28.217-1.255-3.477-3-6.924-5.89-9.228a10.664,10.664,0,0,0-6.488-2.345,7.686,7.686,0,0,0-3.863.989m45.824-23.39c-3.9,2.692-6.394,6.943-8.756,11.054q-1.981,3.444-3.96,6.888c-.811,1.411-3.428,4.4-2,5.332,1.091.715,5.433-.527,6.746-.716,2.242-.323,4.482-.715,6.69-1.22a33.43,33.43,0,0,0,10.051-3.6,14.841,14.841,0,0,0,6.761-8.013,9.638,9.638,0,0,0-2.347-9.878,8.78,8.78,0,0,0-5.975-2.131,12.98,12.98,0,0,0-7.208,2.286m-2.148-35.74c-3.019,3.656-4.25,8.425-5.4,13.027q-.962,3.854-1.925,7.708c-.394,1.579-2.094,5.168-.467,5.676,1.245.388,5.082-1.993,6.294-2.535,2.068-.923,4.116-1.912,6.1-3a33.451,33.451,0,0,0,8.682-6.214,14.84,14.84,0,0,0,4.313-9.557,9.639,9.639,0,0,0-4.959-8.859,8.1,8.1,0,0,0-3.592-.812,12.3,12.3,0,0,0-9.047,4.567m-25.955-30.35a6.356,6.356,0,0,0-1.12,6.324,14.658,14.658,0,0,0,3.767,5.526c3.961,4.021,9.4,8.39,14.946,9.806.321-6.029-2.613-14.044-5.357-17.863a13.384,13.384,0,0,0-5.412-4.8,7.286,7.286,0,0,0-2.781-.558,5.57,5.57,0,0,0-4.043,1.566m16.37-48.54c-2.489.792-3.787,3.7-3.593,6.309s1.522,4.97,2.819,7.236l2.173,3.8c.111.193.237.468.377.764q.161,7.345.321,14.654a25.483,25.483,0,0,0-3.568-8.675,10.134,10.134,0,0,0-4.1-3.639,4.318,4.318,0,0,0-6.021,5.556,11.1,11.1,0,0,0,2.855,4.189c2.907,2.952,6.869,6.132,10.932,7.305.294,16.843.246,33.625-1.428,50.631-.516,5.237-1.144,10.443-1.839,15.631-.079-8.076-3.856-18.105-7.4-23.041-1.962-2.73-4.345-5.311-7.447-6.608s-7.049-1.022-9.392,1.388c-2.159,2.22-2.5,5.758-1.542,8.7a20.151,20.151,0,0,0,5.185,7.6c5.412,5.495,12.835,11.453,20.4,13.444q-1.255,9.138-2.863,18.178a42.152,42.152,0,0,0-2.009-11.979c-1.141-3.162-2.728-6.3-5.358-8.392s-6.5-2.912-9.414-1.234c-2.683,1.546-3.979,4.856-3.862,7.95a20.162,20.162,0,0,0,2.907,8.733c3.568,6.517,8.821,13.925,15.223,18.027A590.448,590.448,0,0,1,196.516,266.7c2.907-9.209,1.89-22.487-.629-29.468-1.339-3.711-3.2-7.388-6.286-9.848s-7.626-3.415-11.045-1.446c-3.149,1.812-4.669,5.7-4.532,9.326s1.667,7.06,3.412,10.248c4.37,7.986,10.883,17.161,18.853,21.813-5.149,14.227-10.745,28.312-16.677,42.274-.068.165-.138.329-.208.491-6.73,15.816-13.888,31.477-21.315,47.014,4.235-11.213,4.619-26.845,2.523-35.54-1.18-4.9-3.028-9.822-6.6-13.373s-9.2-5.4-13.813-3.379c-4.248,1.86-6.72,6.574-7.054,11.2s1.129,9.191,2.9,13.479c4.415,10.709,11.366,23.21,20.781,30.24-9,18.744-18.373,37.316-27.831,55.77-.476.929.872,1.786,1.4.861q21.6-38.264,40.106-78.173,6.073-13.049,11.728-26.3a1.172,1.172,0,0,0,.338.471c1.323,1.091,7.182.093,8.928.034,2.979-.1,5.965-.289,8.926-.631a43.952,43.952,0,0,0,13.664-3.263c4.277-1.958,8.12-5.2,10-9.508s1.483-9.747-1.648-13.257c-4.151-4.66-11.771-4.655-17.266-1.7s-9.363,8.159-13.046,13.2q-3.087,4.218-6.172,8.439c-.509.7-1.436,1.685-2.251,2.71,5.594-13.3,10.841-26.74,15.646-40.336a1.1,1.1,0,0,0,.249.223c1.28.838,6.375-.619,7.917-.842,2.63-.378,5.258-.837,7.849-1.43a39.2,39.2,0,0,0,11.792-4.226,17.417,17.417,0,0,0,7.934-9.4c1.245-4.006.363-8.783-2.754-11.59-4.135-3.723-10.887-2.976-15.469.182s-7.5,8.145-10.274,12.969l-4.646,8.083c-.25.435-.647,1-1.064,1.611q6.358-18.394,11.588-37.147c1.554.459,5.732-.71,7.075-.9,2.464-.355,4.927-.786,7.355-1.34a36.748,36.748,0,0,0,11.05-3.961,16.317,16.317,0,0,0,7.435-8.811c1.166-3.753.339-8.23-2.58-10.86-3.875-3.489-10.2-2.789-14.5.171s-7.03,7.632-9.628,12.153l-4.354,7.574c-.109.19-.249.406-.405.64q3.27-12.244,6-24.638a483.331,483.331,0,0,0,10.173-69.857q.269-3.894.5-7.844a27.753,27.753,0,0,0,3.807-1.777c1.5-.671,2.99-1.39,4.433-2.181a24.291,24.291,0,0,0,6.308-4.514,10.787,10.787,0,0,0,3.134-6.945,7,7,0,0,0-3.6-6.436c-3.093-1.518-6.989.071-9.182,2.727s-3.089,6.122-3.925,9.466q-.3,1.194-.6,2.391c.376-8.375.534-16.85.275-25.282a20.478,20.478,0,0,0,2.9-1.352c1.139-.508,2.267-1.053,3.36-1.653a18.385,18.385,0,0,0,4.781-3.421,8.173,8.173,0,0,0,2.375-5.264,5.307,5.307,0,0,0-2.731-4.878c-2.344-1.15-5.3.054-6.959,2.067S232.634,76.4,232,78.931q-.449,1.794-.9,3.587-.328-7.122-1.131-14.15c.607-.5,1.176-2.677,1.437-3.319.469-1.155.906-2.328,1.28-3.518a18.39,18.39,0,0,0,1.083-5.779,8.166,8.166,0,0,0-1.929-5.442,5.582,5.582,0,0,0-4.016-1.834,4.372,4.372,0,0,0-1.33.2" fill="none"/>
    </clipPath>
    <linearGradient id="linear-gradient-11" x1="0.008" y1="1.35" x2="0.011" y2="1.35" xlink:href="#linear-gradient-9"/>
    <clipPath id="clip-path-25">
      <path id="路径_7567" data-name="路径 7567" d="M260.881,280.761c-6.254,3.367-10.656,9.286-14.849,15.02q-3.513,4.8-7.024,9.606c-1.439,1.967-5.825,5.985-3.855,7.609,1.507,1.243,8.175.106,10.163.04,3.39-.114,6.788-.33,10.159-.719,5.322-.575,10.685-1.485,15.553-3.714s9.242-5.915,11.381-10.822,1.687-11.093-1.875-15.09a13.718,13.718,0,0,0-10.454-4.256,19.7,19.7,0,0,0-9.2,2.326m-22.394-66.648c-3.732,1.635-5.9,5.777-6.2,9.842s.992,8.074,2.545,11.842c3.9,9.452,10.041,20.5,18.371,26.657.12-.256.238-.516.353-.778.085-.2.171-.4.256-.6,4.093-9.9,4.511-24.338,2.607-32.241-1.037-4.3-2.662-8.63-5.8-11.75a12.5,12.5,0,0,0-8.535-3.7,8.943,8.943,0,0,0-3.6.733m28.1-75.889c-2.95,1.7-4.375,5.337-4.247,8.74s1.562,6.616,3.2,9.6c4.1,7.494,10.214,16.105,17.7,20.459,2.963-8.643,2.009-21.523-.4-28.217-1.255-3.477-3-6.923-5.89-9.228a10.663,10.663,0,0,0-6.487-2.345,7.687,7.687,0,0,0-3.864.989m45.825-23.39c-3.9,2.692-6.394,6.942-8.757,11.053q-1.981,3.446-3.96,6.889c-.811,1.41-3.429,4.4-2,5.331,1.091.715,5.432-.526,6.747-.716,2.242-.323,4.481-.715,6.69-1.219a33.409,33.409,0,0,0,10.049-3.6,14.843,14.843,0,0,0,6.763-8.014,9.639,9.639,0,0,0-2.347-9.877,8.776,8.776,0,0,0-5.975-2.132,12.987,12.987,0,0,0-7.208,2.287m-2.148-35.741c-3.019,3.657-4.251,8.426-5.4,13.027q-.962,3.854-1.925,7.708c-.394,1.579-2.1,5.168-.467,5.677,1.244.389,5.08-1.994,6.294-2.535,2.067-.924,4.114-1.913,6.1-3a33.425,33.425,0,0,0,8.681-6.213,14.836,14.836,0,0,0,4.313-9.558,9.642,9.642,0,0,0-4.959-8.859,8.1,8.1,0,0,0-3.591-.812,12.3,12.3,0,0,0-9.047,4.567M284.308,48.744a6.353,6.353,0,0,0-1.119,6.323,14.635,14.635,0,0,0,3.767,5.526c3.961,4.022,9.4,8.391,14.944,9.806.323-6.029-2.611-14.044-5.356-17.862a13.383,13.383,0,0,0-5.411-4.8,7.285,7.285,0,0,0-2.781-.557,5.574,5.574,0,0,0-4.044,1.566M301.946,0a4.371,4.371,0,0,0-1.269.2c-2.488.792-3.785,3.7-3.592,6.309s1.522,4.97,2.819,7.236q1.086,1.9,2.173,3.8c.111.193.237.468.377.764q.162,7.347.32,14.654a25.446,25.446,0,0,0-3.567-8.674,10.144,10.144,0,0,0-4.1-3.64,4.768,4.768,0,0,0-5.172.765,4.812,4.812,0,0,0-.848,4.792,11.1,11.1,0,0,0,2.854,4.188c2.908,2.952,6.869,6.133,10.932,7.305.295,16.843.246,33.626-1.428,50.632-.515,5.237-1.144,10.443-1.839,15.631-.079-8.076-3.855-18.106-7.4-23.041-1.963-2.73-4.346-5.312-7.448-6.609s-7.048-1.022-9.392,1.389c-2.159,2.22-2.5,5.757-1.541,8.7A20.159,20.159,0,0,0,279,92.01c5.413,5.5,12.835,11.452,20.406,13.443q-1.256,9.139-2.864,18.179a42.068,42.068,0,0,0-2.009-11.979c-1.142-3.163-2.728-6.3-5.357-8.393s-6.5-2.91-9.414-1.233c-2.684,1.545-3.98,4.855-3.863,7.949a20.159,20.159,0,0,0,2.908,8.733c3.567,6.517,8.82,13.926,15.222,18.028A590.432,590.432,0,0,1,270.7,218.229c2.907-9.209,1.889-22.487-.629-29.467-1.34-3.712-3.2-7.389-6.286-9.848s-7.627-3.415-11.046-1.447c-3.148,1.813-4.669,5.7-4.532,9.327s1.668,7.06,3.412,10.247c4.371,7.987,10.884,17.161,18.854,21.813-5.143,14.209-10.731,28.276-16.654,42.22-.084.2-.169.4-.256.6-6.722,15.8-13.872,31.438-21.291,46.957,4.236-11.212,4.62-26.844,2.524-35.539-1.181-4.895-3.028-9.822-6.6-13.373s-9.2-5.4-13.812-3.38c-4.249,1.86-6.721,6.575-7.054,11.2s1.128,9.191,2.9,13.479c4.415,10.708,11.366,23.21,20.781,30.239-9,18.744-18.374,37.317-27.831,55.77-.476.93.872,1.787,1.394.861q21.6-38.264,40.107-78.172,6.074-13.049,11.728-26.3a1.143,1.143,0,0,0,.337.47c1.324,1.092,7.182.093,8.928.035,2.979-.1,5.966-.289,8.927-.63a43.961,43.961,0,0,0,13.664-3.265c4.277-1.958,8.12-5.195,10-9.507s1.483-9.747-1.647-13.258c-4.151-4.659-11.771-4.655-17.266-1.7s-9.363,8.16-13.047,13.2q-3.086,4.22-6.172,8.44c-.508.7-1.435,1.685-2.251,2.71,5.594-13.3,10.841-26.741,15.647-40.337a1.082,1.082,0,0,0,.249.223c1.28.838,6.374-.618,7.916-.84,2.63-.379,5.258-.839,7.849-1.431a39.221,39.221,0,0,0,11.792-4.226,17.421,17.421,0,0,0,7.935-9.4c1.244-4.005.362-8.782-2.754-11.59-4.135-3.723-10.888-2.975-15.469.183s-7.5,8.145-10.274,12.969l-4.647,8.082c-.249.435-.646,1-1.065,1.612q6.358-18.393,11.59-37.148c1.554.461,5.732-.709,7.074-.9,2.465-.356,4.927-.786,7.355-1.34a36.753,36.753,0,0,0,11.051-3.961,16.329,16.329,0,0,0,7.435-8.811c1.166-3.753.339-8.23-2.582-10.86-3.874-3.49-10.2-2.789-14.5.171s-7.029,7.632-9.627,12.152q-2.178,3.788-4.355,7.575c-.108.19-.248.406-.4.64q3.27-12.245,6-24.639a483.32,483.32,0,0,0,10.174-69.856q.268-3.894.5-7.844a27.812,27.812,0,0,0,3.807-1.777c1.5-.671,2.991-1.391,4.434-2.182a24.268,24.268,0,0,0,6.308-4.514,10.789,10.789,0,0,0,3.134-6.944,7.005,7.005,0,0,0-3.6-6.437c-3.093-1.518-6.988.071-9.183,2.728s-3.088,6.122-3.923,9.465l-.6,2.391c.376-8.375.535-16.85.275-25.281a20.609,20.609,0,0,0,2.906-1.352c1.139-.509,2.265-1.053,3.36-1.653a18.422,18.422,0,0,0,4.781-3.422,8.178,8.178,0,0,0,2.375-5.263,5.311,5.311,0,0,0-2.732-4.879c-2.344-1.15-5.3.054-6.959,2.068s-2.341,4.64-2.974,7.173q-.447,1.8-.9,3.588-.327-7.122-1.13-14.15c.606-.5,1.175-2.676,1.436-3.319.47-1.156.907-2.329,1.281-3.519a18.409,18.409,0,0,0,1.083-5.779,8.173,8.173,0,0,0-1.929-5.442A5.6,5.6,0,0,0,302.073,0Z" fill="none"/>
    </clipPath>
    <linearGradient id="linear-gradient-12" x1="-0.182" y1="1.563" x2="-0.18" y2="1.563" xlink:href="#linear-gradient-7"/>
    <clipPath id="clip-path-26">
      <path id="路径_7568" data-name="路径 7568" d="M234.677,191.568c-11.12,9.724-17.187,24.19-19.6,38.761-.583-6.982-1.216-14.15-4.3-20.444s-9.209-11.6-16.216-11.6c-9.029,0-15.7,8.248-20.163,16.1a142.661,142.661,0,0,0-17.388,51.932c.615-6.559,1.22-13.269-.373-19.661s-5.83-12.522-12.1-14.553c-6.24-2.023-13.284.453-18.15,4.854s-8.044,10.4-10.333,16.547C87.2,331.019,145.9,387.259,145.9,387.259s22.2,8.26,57.093-7.534c57.638-26.089,76.424-76.539,90-125.767,3.465-12.568,5.966-25.73,3.932-38.607s-9.3-25.513-21.06-31.141a32.417,32.417,0,0,0-14.057-3.087,42.118,42.118,0,0,0-27.132,10.445" fill="none"/>
    </clipPath>
    <linearGradient id="linear-gradient-13" x1="-0.342" y1="1.107" x2="-0.338" y2="1.107" gradientUnits="objectBoundingBox">
      <stop offset="0" stop-color="#527586"/>
      <stop offset="0.002" stop-color="#527586"/>
      <stop offset="1" stop-color="#7e77b6"/>
    </linearGradient>
    <clipPath id="clip-path-28">
      <rect id="矩形_400" data-name="矩形 400" width="142.166" height="216.888" transform="translate(135.223 209.221)" fill="none"/>
    </clipPath>
    <clipPath id="clip-path-29">
      <path id="路径_7571" data-name="路径 7571" d="M4.419,292.59A18.68,18.68,0,0,0,0,305.008v.219c.063,13.654,11.942,30.84,33.724,40.537,22.629,10.074,50.552,18.962,69.2,30.2,0,0-17.909-42.4-41.037-70.489-11.195-13.6-26.259-20.393-38.813-20.393-7.616,0-14.309,2.5-18.651,7.505" fill="none"/>
    </clipPath>
    <linearGradient id="linear-gradient-14" x1="0.24" y1="1.004" x2="0.245" y2="1.004" xlink:href="#linear-gradient-4"/>
    <clipPath id="clip-path-31">
      <path id="路径_7574" data-name="路径 7574" d="M87.086,229.05c-21.675,2.117-34.35,35.964-19.006,72.937,11.786,28.4,29.356,60.258,36.555,86.309,0,0,20.073-53.5,23.223-98.559,2.361-33.79-17.579-60.8-38.437-60.8-.776,0-1.557.037-2.335.114" fill="none"/>
    </clipPath>
    <linearGradient id="linear-gradient-15" x1="-0.466" y1="1.229" x2="-0.455" y2="1.229" xlink:href="#linear-gradient-4"/>
    <clipPath id="clip-path-33">
      <path id="路径_7577" data-name="路径 7577" d="M275.047,299.161c-11.419,28.552-21.116,63.615-34.172,87.28,0,0,51.746-24.237,85.49-54.266,15.73-14,23.465-32.151,23.481-47.382v-.056c0-10.158-3.439-19.011-10.231-24.463a22.938,22.938,0,0,0-14.648-4.906c-17.15,0-38.66,15.638-49.92,43.793" fill="none"/>
    </clipPath>
    <linearGradient id="linear-gradient-16" x1="-0.762" y1="0.931" x2="-0.757" y2="0.931" xlink:href="#linear-gradient-4"/>
    <clipPath id="clip-path-35">
      <rect id="矩形_395" data-name="矩形 395" width="338.319" height="422.992" fill="none"/>
    </clipPath>
    <clipPath id="clip-path-36">
      <path id="路径_7549" data-name="路径 7549" d="M92.164,236.387c-13.245,6.511-20.537,21.6-21.746,36.308S73.062,302,76.883,316.258c-3.106-10.35-6.359-20.982-13.12-29.413S45.8,272.611,35.353,275.37c-8.579,2.265-15,9.9-17.758,18.334s-2.354,17.576-1.045,26.351c2.621,17.56,9.023,33.381,17.46,48.869,6.788,12.458,11.955,25.147,23.125,34.588,22.115,18.692,53.752,19.547,82.71,19.476,29.541-.072,60.643-.545,86.185-15.391,24.592-14.293,40.284-39.814,53.3-65.1,5.776-11.221,11.381-23.491,9.54-35.976-2.26-15.34-17.128-27.757-32.625-27.248s-29.517,13.877-30.765,29.332q-1.091-15.344-2.18-30.688c-11.814-2.145-24.392,7.5-25.385,19.468-1.716-9.391,2.494-18.7,5.482-27.761s4.488-19.99-1.589-27.352c-7.366-8.922-21.631-7.505-32.059-2.493a67.84,67.84,0,0,0-37.307,52.479q-1.017-16.188-2.032-32.376a43.005,43.005,0,0,0-1.51-10.386c-3.214-10.1-13.936-15.814-24.631-15.814a27.516,27.516,0,0,0-12.106,2.71" fill="none"/>
    </clipPath>
    <linearGradient id="linear-gradient-17" x1="-0.054" y1="1" x2="-0.05" y2="1" xlink:href="#linear-gradient"/>
    <clipPath id="clip-path-37">
      <path id="路径_7550" data-name="路径 7550" d="M137.65,282.692c-3.561,4-4.014,10.181-1.874,15.089s6.514,8.593,11.381,10.822,10.23,3.139,15.553,3.715c3.371.389,6.769.605,10.159.717,1.988.067,8.656,1.2,10.162-.038,1.971-1.625-2.415-5.643-3.854-7.61l-7.024-9.606c-4.193-5.733-8.6-11.654-14.849-15.02a19.7,19.7,0,0,0-9.2-2.326,13.715,13.715,0,0,0-10.456,4.257m29.911-65.609c-3.137,3.12-4.761,7.448-5.8,11.749-1.9,7.907-1.486,22.355,2.613,32.256l.245.575c.116.267.236.531.358.791,8.33-6.16,14.473-17.206,18.371-26.657,1.553-3.767,2.837-7.778,2.545-11.843s-2.465-8.206-6.2-9.84a8.929,8.929,0,0,0-3.6-.734,12.5,12.5,0,0,0-8.533,3.7m-26.314-77.5c-2.891,2.3-4.635,5.75-5.891,9.228-2.414,6.693-3.367,19.575-.4,28.217,7.482-4.355,13.594-12.966,17.7-20.458,1.636-2.987,3.069-6.2,3.2-9.6s-1.3-7.041-4.246-8.74a7.69,7.69,0,0,0-3.863-.99,10.659,10.659,0,0,0-6.488,2.346m-48.657-24.9a9.639,9.639,0,0,0-2.347,9.877A14.846,14.846,0,0,0,97,132.57a33.425,33.425,0,0,0,10.05,3.6c2.209.505,4.448.9,6.69,1.219,1.314.189,5.656,1.431,6.747.717,1.426-.934-1.192-3.921-2-5.332q-1.98-3.444-3.96-6.888c-2.363-4.112-4.852-8.362-8.757-11.054a12.989,12.989,0,0,0-7.208-2.287,8.776,8.776,0,0,0-5.975,2.132m2.692-39.34A9.642,9.642,0,0,0,90.323,84.2a14.846,14.846,0,0,0,4.313,9.558,33.451,33.451,0,0,0,8.682,6.214c1.987,1.089,4.034,2.078,6.1,3,1.213.542,5.049,2.923,6.294,2.534,1.627-.507-.073-4.1-.467-5.675q-.963-3.854-1.925-7.708c-1.149-4.6-2.381-9.371-5.4-13.028a12.3,12.3,0,0,0-9.046-4.566,8.1,8.1,0,0,0-3.593.812m31.77-27.6a13.4,13.4,0,0,0-5.412,4.8c-2.744,3.818-5.678,11.834-5.355,17.862,5.542-1.415,10.983-5.784,14.944-9.805A14.654,14.654,0,0,0,135,55.068a6.355,6.355,0,0,0-1.119-6.324,5.575,5.575,0,0,0-4.044-1.566,7.281,7.281,0,0,0-2.781.557M116.15,0a5.6,5.6,0,0,0-3.99,1.833,8.18,8.18,0,0,0-1.929,5.444,18.419,18.419,0,0,0,1.083,5.779c.374,1.189.811,2.363,1.28,3.518.261.642.831,2.82,1.437,3.319q-.812,7.017-1.131,14.15-.447-1.794-.9-3.587c-.633-2.533-1.311-5.16-2.974-7.174s-4.616-3.217-6.96-2.067a5.309,5.309,0,0,0-2.731,4.878,8.175,8.175,0,0,0,2.375,5.263,18.4,18.4,0,0,0,4.781,3.422c1.094.6,2.221,1.145,3.36,1.653a20.5,20.5,0,0,0,2.906,1.352c-.26,8.432-.1,16.907.275,25.282l-.6-2.391c-.835-3.344-1.729-6.809-3.923-9.466s-6.09-4.245-9.183-2.728a7.005,7.005,0,0,0-3.6,6.437,10.782,10.782,0,0,0,3.134,6.944,24.268,24.268,0,0,0,6.308,4.514c1.443.792,2.931,1.51,4.433,2.182a27.947,27.947,0,0,0,3.808,1.777q.229,3.945.5,7.844a483.334,483.334,0,0,0,10.174,69.857q2.71,12.4,6,24.638c-.156-.234-.3-.451-.4-.641l-4.355-7.573c-2.6-4.521-5.335-9.194-9.628-12.154s-10.62-3.659-14.494-.17c-2.921,2.63-3.748,7.107-2.582,10.86a16.325,16.325,0,0,0,7.435,8.811,36.781,36.781,0,0,0,11.051,3.961c2.428.554,4.89.985,7.354,1.34,1.343.193,5.521,1.362,7.075.9q5.2,18.756,11.589,37.149c-.418-.613-.815-1.176-1.064-1.611l-4.647-8.083c-2.773-4.824-5.693-9.811-10.274-12.969s-11.334-3.9-15.469-.182c-3.116,2.806-4,7.584-2.754,11.589a17.417,17.417,0,0,0,7.935,9.4,39.193,39.193,0,0,0,11.792,4.226c2.591.592,5.219,1.051,7.848,1.43,1.543.223,6.637,1.68,7.917.842a1.127,1.127,0,0,0,.249-.223c4.806,13.6,10.053,27.039,15.647,40.336-.816-1.025-1.743-2.014-2.251-2.71l-6.172-8.44c-3.684-5.038-7.552-10.239-13.047-13.2s-13.115-2.963-17.266,1.7c-3.13,3.511-3.527,8.945-1.648,13.257s5.723,7.55,10,9.509a44.015,44.015,0,0,0,13.664,3.263c2.961.342,5.948.531,8.926.631,1.747.059,7.6,1.057,8.929-.034a1.169,1.169,0,0,0,.337-.471q5.646,13.248,11.728,26.3,18.541,39.839,40.107,78.172c.522.925,1.87.069,1.394-.86-9.457-18.455-18.828-37.026-27.831-55.77,9.415-7.03,16.366-19.531,20.781-30.24,1.769-4.288,3.23-8.853,2.9-13.479s-2.8-9.34-7.054-11.2c-4.613-2.02-10.242-.172-13.813,3.379s-5.418,8.478-6.6,13.374c-2.1,8.7-1.712,24.327,2.524,35.539-7.42-15.523-14.573-31.169-21.3-46.97q-.125-.285-.245-.575c-5.925-13.949-11.515-28.019-16.66-42.234,7.97-4.651,14.483-13.827,18.854-21.813,1.744-3.187,3.274-6.616,3.411-10.247s-1.383-7.514-4.531-9.327c-3.419-1.969-7.962-1.012-11.046,1.447s-4.946,6.137-6.286,9.848c-2.518,6.981-3.536,20.259-.629,29.466a590.337,590.337,0,0,1-23.337-81.491c6.4-4.1,11.654-11.51,15.222-18.027a20.168,20.168,0,0,0,2.908-8.734c.116-3.1-1.18-6.4-3.863-7.949-2.914-1.678-6.785-.862-9.414,1.234s-4.215,5.23-5.357,8.392a42.082,42.082,0,0,0-2.009,11.979q-1.6-9.041-2.864-18.178c7.571-1.992,14.993-7.949,20.4-13.444a20.158,20.158,0,0,0,5.185-7.605c.959-2.945.618-6.483-1.541-8.7-2.344-2.41-6.29-2.685-9.393-1.388s-5.484,3.877-7.447,6.608c-3.548,4.935-7.323,14.965-7.4,23.041-.695-5.188-1.324-10.394-1.839-15.631-1.674-17.006-1.723-33.788-1.429-50.631,4.063-1.174,8.025-4.354,10.933-7.306a11.094,11.094,0,0,0,2.854-4.188,4.812,4.812,0,0,0-.848-4.792,4.767,4.767,0,0,0-5.173-.764,10.129,10.129,0,0,0-4.1,3.638,25.48,25.48,0,0,0-3.568,8.675q.15-7.314.321-14.653c.139-.3.266-.571.377-.764l2.173-3.8c1.3-2.268,2.625-4.632,2.819-7.236S120,1,117.508.2A4.361,4.361,0,0,0,116.2,0Z" fill="none"/>
    </clipPath>
    <linearGradient id="linear-gradient-18" x1="-0.17" y1="1.112" x2="-0.166" y2="1.112" xlink:href="#linear-gradient-9"/>
    <clipPath id="clip-path-38">
      <path id="路径_7551" data-name="路径 7551" d="M40.41,24.872C3.929,41.643,47.425,100.2,57.51,116.208c-8.474-7.086-35.966-28.184-45.326-14.344-13.592,20.1,19.35,48.621,45.464,69.975-10.438-4.623-21.359-9.342-32.761-8.782S1.554,171.238.145,182.566A18.83,18.83,0,0,0,0,184.829v.153c.031,8.794,6.085,16.82,12.448,23.177a136.369,136.369,0,0,0,57.657,34.2c-7.392-.282-15.053-.519-21.888,2.308s-13.177,9.714-11.791,16.98c8.564,44.895,114.086,21.17,116.219,14.853a120.531,120.531,0,0,0,32-79.889c.072-6.079-.374-12.365-3.132-17.784s-8.31-9.792-14.385-9.541c-5.144.212-9.717,3.656-12.605,7.919s-4.372,9.3-5.816,14.238a141.938,141.938,0,0,0,2.628-47.784c-.848-7.354-3.506-16.046-10.677-17.881-5.049-1.292-10.411,1.69-13.486,5.895a24.754,24.754,0,0,0-3.061,5.765c17.5-67.316-22.037-86.331-31.057-39.24C85.477,79.9,78.523,22.3,51.061,22.291A25.479,25.479,0,0,0,40.41,24.872" fill="none"/>
    </clipPath>
    <linearGradient id="linear-gradient-19" x1="0.133" y1="1.305" x2="0.137" y2="1.305" xlink:href="#linear-gradient-3"/>
    <clipPath id="clip-path-40">
      <rect id="矩形_383" data-name="矩形 383" width="106.259" height="237.788" transform="translate(41.618 37.553)" fill="none"/>
    </clipPath>
    <clipPath id="clip-path-41">
      <path id="路径_7553" data-name="路径 7553" d="M169.624,17.531C141.381,54.886,139.233,109.868,139.2,156.7c-.063,76.361,27.695,182.328,27.695,182.328s41.881-80.9,58.622-161.633c8.556-41.261,18.532-102.054,6.444-143.036C226.45,15.689,211.837,2.2,196.239,2.206c-9.072,0-18.479,4.565-26.615,15.325" fill="none"/>
    </clipPath>
    <linearGradient id="linear-gradient-20" x1="-0.055" y1="2.357" x2="-0.052" y2="2.357" xlink:href="#linear-gradient-6"/>
    <clipPath id="clip-path-43">
      <path id="路径_7555" data-name="路径 7555" d="M174.127,351.774s72.978-18.611,100.012-97.231c18.092-52.612,29.076-112,28.858-137.811-50.957,20.436-169.081,104.579-128.87,235.042" fill="none"/>
    </clipPath>
    <linearGradient id="linear-gradient-21" x1="-0.266" y1="1.241" x2="-0.262" y2="1.241" xlink:href="#linear-gradient-4"/>
    <clipPath id="clip-path-45">
      <rect id="矩形_388" data-name="矩形 388" width="117.376" height="256.138" transform="translate(170.491 138.517)" fill="none"/>
    </clipPath>
    <clipPath id="clip-path-46">
      <path id="路径_7557" data-name="路径 7557" d="M55.155,274.823c36.127,74.878,110.792,84.743,110.792,84.743,24.527-134.3-102.7-203.907-155.717-218.184,2.83,25.653,20.748,83.332,44.925,133.441" fill="none"/>
    </clipPath>
    <linearGradient id="linear-gradient-22" x1="0.052" y1="1.422" x2="0.056" y2="1.422" xlink:href="#linear-gradient-4"/>
    <clipPath id="clip-path-48">
      <rect id="矩形_391" data-name="矩形 391" width="146.553" height="240.756" transform="translate(27.867 161.179)" fill="none"/>
    </clipPath>
    <clipPath id="clip-path-49">
      <path id="路径_7560" data-name="路径 7560" d="M277.19,230.073c-11.076,22.155-21.205,49.653-33.268,67.776,0,0,43.158-15.994,72.254-37.842,14.6-10.966,22.089-26.414,22.143-39.24v-.287c-.031-6.931-2.247-13.077-6.7-17.3a18.973,18.973,0,0,0-13.4-5c-13.5,0-30.625,11.072-41.035,31.9" fill="none"/>
    </clipPath>
    <linearGradient id="linear-gradient-23" x1="-1.035" y1="1.384" x2="-1.03" y2="1.384" xlink:href="#linear-gradient-4"/>
    <clipPath id="clip-path-51">
      <path id="路径_7563" data-name="路径 7563" d="M123.354,169.593c-20.8,6.44-26.4,42.146-3.929,75.272,17.264,25.447,40.888,53.112,53.186,77.179,0,0,8.889-56.445,2.9-101.216-4.129-30.863-25.565-52.322-44.871-52.32a24.569,24.569,0,0,0-7.286,1.085" fill="none"/>
    </clipPath>
    <linearGradient id="linear-gradient-24" x1="-0.366" y1="1.444" x2="-0.36" y2="1.444" gradientUnits="objectBoundingBox">
      <stop offset="0" stop-color="#1d2088"/>
      <stop offset="1" stop-color="#7e77b6"/>
    </linearGradient>
  </defs>
  <g id="组_4143" data-name="组 4143" transform="translate(-268 -468.884)">
    <g id="组_775" data-name="组 775" transform="translate(487.209 609.328)">
      <g id="组_774" data-name="组 774" clip-path="url(#clip-path)">
        <g id="组_738" data-name="组 738">
          <g id="组_737" data-name="组 737" clip-path="url(#clip-path-2)">
            <rect id="矩形_406" data-name="矩形 406" width="275.877" height="189.714" transform="translate(77.051 200.644)" fill="url(#linear-gradient)"/>
          </g>
        </g>
        <g id="组_740" data-name="组 740">
          <g id="组_739" data-name="组 739" clip-path="url(#clip-path-3)">
            <rect id="矩形_407" data-name="矩形 407" width="232.986" height="214.627" transform="translate(-77.073 294.853) rotate(-62.365)" fill="url(#linear-gradient-2)"/>
          </g>
        </g>
        <g id="组_745" data-name="组 745">
          <g id="组_744" data-name="组 744" clip-path="url(#clip-path)">
            <g id="组_743" data-name="组 743" opacity="0.52">
              <g id="组_742" data-name="组 742">
                <g id="组_741" data-name="组 741" clip-path="url(#clip-path-5)">
                  <path id="路径_7581" data-name="路径 7581" d="M79.358,264.916c18.667-31.758,34.774-67.854,42.157-104.1a.123.123,0,0,0-.236-.072c-7.049,16.993-11.684,34.973-18.664,52.048A379.782,379.782,0,0,1,77.229,263.6C58.1,295.665,34.107,323.557,7.91,349.988a.864.864,0,0,0,1.175,1.265c28.2-24.1,51.536-54.46,70.273-86.337" fill="#151c51"/>
                </g>
              </g>
            </g>
          </g>
        </g>
        <g id="组_747" data-name="组 747">
          <g id="组_746" data-name="组 746" clip-path="url(#clip-path-6)">
            <rect id="矩形_410" data-name="矩形 410" width="237.07" height="189.33" transform="translate(39.336 395.56) rotate(-76.846)" fill="url(#linear-gradient-3)"/>
          </g>
        </g>
        <g id="组_752" data-name="组 752">
          <g id="组_751" data-name="组 751" clip-path="url(#clip-path)">
            <g id="组_750" data-name="组 750" opacity="0.64">
              <g id="组_749" data-name="组 749">
                <g id="组_748" data-name="组 748" clip-path="url(#clip-path-8)">
                  <path id="路径_7583" data-name="路径 7583" d="M200.706,316.041c-10.259,12.836-21.649,24.847-31.892,37.672q1.221-18.593,2.288-37.2c9.183-13.541,16.593-28.474,24.011-43.028.308-.607-.58-1.168-.911-.56-7.294,13.4-15.49,26.311-22.873,39.65,2.023-35.238,3.844-70.5,6.288-105.685.024-.344-.5-.351-.534-.011-3.037,33.906-6.207,67.919-8.75,101.965-7-14.623-15.972-28.415-23.069-43.03-.114-.235-.45-.039-.349.194,6.58,15.41,13.274,32,23.211,45.615q-1.593,21.6-2.774,43.206c-13.331-12.185-27.72-21.607-37.568-37.384-.226-.362-.8-.051-.584.324a114.279,114.279,0,0,0,38.058,38.883c-.744,14.206-1.324,28.411-1.666,42.611a.935.935,0,0,0,1.868.043q1.794-21.471,3.188-42.981c12.465-11.481,22.956-26.165,32.284-40.142.1-.147-.123-.27-.226-.14" fill="#1d2088"/>
                </g>
              </g>
            </g>
          </g>
        </g>
        <g id="组_754" data-name="组 754">
          <g id="组_753" data-name="组 753" clip-path="url(#clip-path-9)">
            <rect id="矩形_413" data-name="矩形 413" width="349.743" height="193.837" transform="matrix(0.22, -0.976, 0.976, 0.22, 227.754, 314.55)" fill="url(#linear-gradient-4)"/>
          </g>
        </g>
        <g id="组_759" data-name="组 759">
          <g id="组_758" data-name="组 758" clip-path="url(#clip-path)">
            <g id="组_757" data-name="组 757" opacity="0.66">
              <g id="组_756" data-name="组 756">
                <g id="组_755" data-name="组 755" clip-path="url(#clip-path-11)">
                  <path id="路径_7585" data-name="路径 7585" d="M409.026,74.761a591.6,591.6,0,0,0-59.948,60.671c.863-3.757,1.726-7.514,2.623-11.262l.007-.007c19.345-22.584,39.676-44.42,60.763-65.386.064-.064-.018-.177-.087-.114a778.565,778.565,0,0,0-59.613,61.049c8.316-34.26,17.953-68.186,27.808-102.114.075-.261-.313-.431-.4-.166q-4.608,14.666-9.055,29.343.426-14.576-.211-29.139c0-.093-.145-.071-.142.02q.49,15.58-.262,31.139c-11.469,37.933-21.966,76.022-30.032,114.871a931.152,931.152,0,0,0-9.169-100.133.071.071,0,0,0-.141.02c4.469,34.618,7.023,69.395,8.455,104.263q-1.281,6.315-2.483,12.654-.993,5.289-2,10.584c-1.373-36.658-7.162-73.27-9.644-109.84-.009-.117-.193-.092-.182.026,3.548,38.408,3.482,77.455,8.711,115.693-9.9,52.165-20.168,104.724-26.657,157.32a.859.859,0,0,0,1.7.22c9.016-40.438,15.323-81.536,21.931-122.519,22.343-11.766,38.553-34.013,53.6-53.556a.286.286,0,0,0-.453-.349c-15.879,19.669-32.055,37.181-52.775,51.6q1.039-6.437,2.09-12.87c21.6-17.7,39.662-38.894,55.87-61.509.069-.1-.074-.207-.144-.112-15.978,21.7-35.055,40.674-55.2,58.436q2.424-14.664,5.015-29.279c2.718-15.187,5.826-30.269,9.223-45.275A729.307,729.307,0,0,1,409.2,74.988c.133-.124-.035-.349-.175-.227" fill="#1d2088"/>
                </g>
              </g>
            </g>
          </g>
        </g>
        <g id="组_761" data-name="组 761">
          <g id="组_760" data-name="组 760" clip-path="url(#clip-path-12)">
            <rect id="矩形_416" data-name="矩形 416" width="251.447" height="247.937" transform="matrix(0.805, -0.593, 0.593, 0.805, 36.251, 265.967)" fill="url(#linear-gradient-5)"/>
          </g>
        </g>
        <g id="组_766" data-name="组 766">
          <g id="组_765" data-name="组 765" clip-path="url(#clip-path)">
            <g id="组_764" data-name="组 764" opacity="0.52">
              <g id="组_763" data-name="组 763">
                <g id="组_762" data-name="组 762" clip-path="url(#clip-path-14)">
                  <path id="路径_7587" data-name="路径 7587" d="M295.313,232.038q-12.636,6.036-25.321,12.3c4.3-6.49,7.425-14.032,10.194-21.175.116-.3-.39-.516-.522-.22-3.624,8.1-8.436,15.264-12.775,22.924-.89.442-1.781.871-2.67,1.315,5.557-8.3,8.525-17.884,11.347-27.543.052-.178-.215-.247-.276-.076-3.688,10.374-7.727,20.544-14.453,29.3-19.9,10.021-39.615,20.651-58.447,32.485,3.551-19.891,5.958-39.29,12.382-58.652.117-.354-.423-.491-.552-.152-7.146,18.845-13.754,39.758-13.9,60.132q-6.823,4.335-13.482,8.89c2.738-22.029,5.272-43.344,11.261-64.929a.358.358,0,0,0-.689-.19c-7.479,20.814-13.316,44.473-13.04,66.842-3.7,2.572-7.358,5.187-10.956,7.881A259.666,259.666,0,0,0,139.931,330.7c1.568-9.7,2.161-19.613,4.164-29.28A202.326,202.326,0,0,1,154.388,267.4c.09-.225-.288-.385-.392-.166-9.278,19.636-18.788,44.5-17.145,66.824-15.66,17.414-28.131,37.519-33.331,60.278a1.717,1.717,0,0,0,3.309.913c10.714-27.41,26.721-50.641,46.891-70.585,19.827-1.209,41.608,7.646,59.715,13.614a.934.934,0,0,0,.716-1.7c-10.755-5.309-22.237-8.671-33.965-11.093-7.993-1.651-16.292-3.315-24.446-2.807q2.43-2.345,4.93-4.632c24.738-1.3,47.651,6.561,71.472,12.619a.859.859,0,0,0,.457-1.655c-22.247-8.561-46.608-14.9-70.531-12.217a260.36,260.36,0,0,1,21.55-17.336c11.313-8.156,23.014-15.839,34.949-23.192a152.715,152.715,0,0,1,39.954,16.948.215.215,0,0,0,.26-.337c-9.45-9.006-24.7-15.784-37.892-18.028q5.314-3.247,10.678-6.424c7.041,1.127,13.622,1.787,20.244,4.7a174.885,174.885,0,0,1,18.569,9.987c.809.48,1.449-.7.722-1.235-9.84-7.192-22.919-16.651-35.966-15.536,8.268-4.822,16.625-9.495,25.009-14.1a.728.728,0,0,0,.372-.205c11.767-6.463,23.593-12.776,35.373-19.007.658-.348.08-1.3-.577-.988" fill="#151c51"/>
                </g>
              </g>
            </g>
          </g>
        </g>
        <g id="组_768" data-name="组 768">
          <g id="组_767" data-name="组 767" clip-path="url(#clip-path-15)">
            <rect id="矩形_419" data-name="矩形 419" width="202.534" height="257.711" transform="matrix(0.989, -0.149, 0.149, 0.989, -26.343, 141.205)" fill="url(#linear-gradient-6)"/>
          </g>
        </g>
        <g id="组_773" data-name="组 773">
          <g id="组_772" data-name="组 772" clip-path="url(#clip-path)">
            <g id="组_771" data-name="组 771" opacity="0.66">
              <g id="组_770" data-name="组 770">
                <g id="组_769" data-name="组 769" clip-path="url(#clip-path-17)">
                  <path id="路径_7589" data-name="路径 7589" d="M48.321,412.476c.927-30.349,7.322-58.576,17.38-85.947a1.567,1.567,0,0,0,.2-.023c21.378-6.938,43.066-10.8,65.066-15.01a.185.185,0,0,0-.046-.367c-21.655-.018-43.019,4.721-63.639,11.1.164-.431.31-.866.476-1.3,11.4-3.276,22.527-7.267,34.109-10,10.973-2.586,22.194-3.6,33.163-6.031.47-.1.57-.9,0-.919-21.015-.747-45.875,4.558-65.733,13.071,4.917-12.27,10.529-24.4,16.727-36.482.733-1.431,1.5-2.848,2.237-4.276h.005c22.264-8.442,44.985-14.7,67.627-21.91.505-.161.273-.953-.235-.888-22.209,2.872-44.205,10-65.03,18.276,1.4-2.664,2.768-5.34,4.184-7.994,21.644-7.609,42.813-16.189,64.778-22.976.127-.038.07-.259-.06-.227-21.332,5.26-43.082,11.366-63.2,20.412q4.11-7.647,8.366-15.218a1.162,1.162,0,0,0,.644-1.132c16.917-30.086,35.519-59.227,56.922-86.319.3-.376-.285-.813-.59-.448A596.331,596.331,0,0,0,111.9,227.6c.249-12.615-4.726-27.026-10.977-37.268-.176-.287-.56,0-.476.277,2.166,7.169,4.63,14.353,6.163,21.684,1.341,6.413,1.408,13.017,2.792,19.38-1.643,2.706-3.247,5.439-4.857,8.167-2.61-15.634-4.108-31.073-11.141-45.614a.092.092,0,0,0-.171.07c5.773,15.771,6.6,32.692,9.159,49.162q-10.8,18.515-20.7,37.588c-4.266,8.185-8.3,16.408-12.041,24.7-2.2-6.24-6.5-11.647-9.553-17.547a208.434,208.434,0,0,1-8.994-20.982,1.7,1.7,0,0,0-3.24.418c-.751,6.822,3.1,15.378,6.018,21.317,3.5,7.107,7.644,15.628,13.817,20.6a1.186,1.186,0,0,0,.216.117c-14.259,32.54-23.633,66.183-22.9,102.792.038,1.872,3.249,1.908,3.307.02" fill="#1d2088"/>
                </g>
              </g>
            </g>
          </g>
        </g>
      </g>
    </g>
    <g id="组_670" data-name="组 670" transform="translate(268 468.884)">
      <g id="组_665" data-name="组 665">
        <g id="组_664" data-name="组 664" clip-path="url(#clip-path-18)">
          <rect id="矩形_377" data-name="矩形 377" width="386.376" height="375.427" transform="translate(-21.372 187.362) rotate(-51.663)" fill="url(#linear-gradient-7)"/>
        </g>
      </g>
      <g id="组_667" data-name="组 667">
        <g id="组_666" data-name="组 666" clip-path="url(#clip-path-19)">
          <rect id="矩形_378" data-name="矩形 378" width="384.551" height="364.847" transform="translate(-159.697 288.545) rotate(-51.663)" fill="url(#linear-gradient-8)"/>
        </g>
      </g>
      <g id="组_669" data-name="组 669">
        <g id="组_668" data-name="组 668" clip-path="url(#clip-path-20)">
          <rect id="矩形_379" data-name="矩形 379" width="261.902" height="390.824" transform="translate(-22.361 113.571) rotate(-18.124)" fill="url(#linear-gradient-9)"/>
        </g>
      </g>
    </g>
    <g id="组_663" data-name="组 663" transform="translate(456.707 643.453)">
      <g id="组_662" data-name="组 662" transform="translate(-84 10)" clip-path="url(#clip-path-21)">
        <path id="路径_7539" data-name="路径 7539" d="M303.482,241.722c.645-4.865,1.33-9.784,2.037-14.687l17.77,9-16.374-18.473c5.252-34.925,11.091-66.375,11.091-66.375s26.857,54.144,44.659,97.109l-10.194,18.232,13.238-10.765c7.679,19.151,12.974,35.094,12.325,41.361-.852,8.233-22.536,28.071-35.53,29.882s-39.275-11.345-42.345-19.031c-3.032-7.592-.9-33.576,2.8-62.266Z" fill="#1c7847"/>
        <rect id="矩形_375" data-name="矩形 375" width="18.06" height="67.376" transform="translate(77.709 328.785) rotate(-9.668)" fill="#1f141c"/>
        <path id="路径_7540" data-name="路径 7540" d="M3.915,323.953c6.1,14.014,50.9,35.92,79.276,37a43.368,43.368,0,0,0,9.072-.479A43.535,43.535,0,0,0,101,357.922c15.742-6.211,34.541-21.343,47.393-35.775,8.72-9.775,14.7-19.231,15.139-25.39.75-10.053-6.284-31.923-17.444-59.449-3.18-7.876-6.7-16.246-10.495-24.919l-26.578,22.983,19.838-38.157C111.316,158.258,31.164,0,31.164,0S14.231,120.19,12.184,137.413L47.036,174.43,9.9,156.992c-1.14,10.138-2.256,20.309-3.28,30.373L26.1,202.573,5.8,195.61C-.022,254.887-2.8,308.517,3.915,323.953" fill="#0d442d"/>
        <path id="路径_7541" data-name="路径 7541" d="M167.174,362.961l-41.447,10.157s5.611-198.494,111.167-178.471Z" fill="#ffd054"/>
        <path id="路径_7542" data-name="路径 7542" d="M354.7,317.005S275.25,180.627,219.091,194.39c-18.138,6.03-44.114,64.009-48.233,98.416a558.5,558.5,0,0,0-3.684,70.155Z" fill="#d48d52"/>
        <path id="路径_7543" data-name="路径 7543" d="M296.228,314.089s-14.578-67.693-55.477-61.4c-44.812,7.065-23.079,80.654-23.079,80.654Z" fill="#1f141c"/>
        <path id="路径_7544" data-name="路径 7544" d="M170.861,292.807c26.047-85.561,66.033-98.161,66.033-98.161s28.794,10.653,62.752,46.213c0,0-34.446-54.86-62.752-52.456-52.657,4.471-66.033,104.4-66.033,104.4" fill="#fff"/>
        <path id="路径_7545" data-name="路径 7545" d="M151.771,261.272A251.6,251.6,0,0,0,140.1,311.333a125.3,125.3,0,0,0,22.34-2.658q2.424-25.158,6.567-50.108c-5.734.946-11.5,1.744-17.233,2.705" fill="#1f141c"/>
      </g>
    </g>
    <g id="组_736" data-name="组 736" transform="translate(767.077 609.328)">
      <g id="组_735" data-name="组 735" clip-path="url(#clip-path-22)">
        <g id="组_711" data-name="组 711">
          <g id="组_710" data-name="组 710" clip-path="url(#clip-path-23)">
            <rect id="矩形_396" data-name="矩形 396" width="275.878" height="189.713" transform="translate(23.829 223.297)" fill="url(#linear-gradient-10)"/>
          </g>
        </g>
        <g id="组_713" data-name="组 713">
          <g id="组_712" data-name="组 712" clip-path="url(#clip-path-24)">
            <rect id="矩形_397" data-name="矩形 397" width="389.573" height="227.345" transform="translate(26.632 386.591) rotate(-73.231)" fill="url(#linear-gradient-11)"/>
          </g>
        </g>
        <g id="组_715" data-name="组 715">
          <g id="组_714" data-name="组 714" clip-path="url(#clip-path-25)">
            <rect id="矩形_398" data-name="矩形 398" width="389.574" height="227.345" transform="matrix(0.289, -0.957, 0.957, 0.289, 100.812, 338.116)" fill="url(#linear-gradient-12)"/>
          </g>
        </g>
        <g id="组_717" data-name="组 717">
          <g id="组_716" data-name="组 716" clip-path="url(#clip-path-26)">
            <rect id="矩形_399" data-name="矩形 399" width="229.332" height="226.891" transform="translate(71.542 394.369) rotate(-85.799)" fill="url(#linear-gradient-13)"/>
          </g>
        </g>
        <g id="组_722" data-name="组 722">
          <g id="组_721" data-name="组 721" clip-path="url(#clip-path-22)">
            <g id="组_720" data-name="组 720" opacity="0.4">
              <g id="组_719" data-name="组 719">
                <g id="组_718" data-name="组 718" clip-path="url(#clip-path-28)">
                  <path id="路径_7569" data-name="路径 7569" d="M216.644,296.964c25.129-7.591,46.731-26.9,60.686-48.6.251-.391-.359-.736-.618-.361-14.963,21.692-34.907,35.243-58.424,45.39,12.408-26.964,23.309-55.032,30.035-83.486.147-.624-.714-.991-.962-.358-14.366,36.8-27.663,73.357-45.981,108.461-5.533-22.723-8.374-45.508-7.4-69.041.007-.184-.277-.183-.286,0-1.2,23.589.777,47.554,6.983,70.4-.1.2-.2.393-.3.59-9.734,18.434-20.672,35.987-31.938,53.332-15.35-28.161-23.467-61.029-20.381-93.178.011-.117-.172-.117-.183,0-3.049,33.452,2.27,65.645,18.61,95.292a1.323,1.323,0,0,0,.326.383c-10.421,15.987-21.085,31.826-31.311,48.045a1.476,1.476,0,0,0,2.392,1.726c19.611-21.391,35.784-46.5,50.058-72.22,27.862-11.366,56.15-25.132,75-49.31.278-.357-.217-.866-.506-.505-18.9,23.619-46.03,35.635-73.07,47.259,4.832-8.8,9.448-17.65,13.908-26.441,4.55-8.97,9.043-18.107,13.37-27.38" fill="#1d2088"/>
                </g>
              </g>
            </g>
          </g>
        </g>
        <g id="组_724" data-name="组 724">
          <g id="组_723" data-name="组 723" clip-path="url(#clip-path-29)">
            <path id="路径_7570" data-name="路径 7570" d="M52.081,425.289-47.4,331.075l98.243-95.312,99.485,94.214Z" fill="url(#linear-gradient-14)"/>
          </g>
        </g>
        <g id="组_726" data-name="组 726">
          <g id="组_725" data-name="组 725" clip-path="url(#clip-path-22)">
            <path id="路径_7572" data-name="路径 7572" d="M106.851,380.666c-27.066-28.078-56.235-54.252-85.4-79.916-.235-.207-.5.185-.28.392,28.548,26.669,57.211,53.177,84.252,81.228.466-.578.949-1.14,1.43-1.7" fill="#1d2088"/>
          </g>
        </g>
        <g id="组_728" data-name="组 728">
          <g id="组_727" data-name="组 727" clip-path="url(#clip-path-31)">
            <path id="路径_7573" data-name="路径 7573" d="M52.785,389.2,44.114,229.034l86.056-1.007L138.841,388.2Z" fill="url(#linear-gradient-15)"/>
          </g>
        </g>
        <g id="组_730" data-name="组 730">
          <g id="组_729" data-name="组 729" clip-path="url(#clip-path-22)">
            <path id="路径_7575" data-name="路径 7575" d="M104.165,395.886c-.409-48.414-4.34-96.908-8.7-144.942-.035-.387-.61-.262-.587.114,2.947,48.41,6.136,96.774,6.546,145.142.913-.123,1.829-.217,2.744-.314" fill="#1d2088"/>
          </g>
        </g>
        <g id="组_732" data-name="组 732">
          <g id="组_731" data-name="组 731" clip-path="url(#clip-path-33)">
            <path id="路径_7576" data-name="路径 7576" d="M178.318,326.728l112.2-127.991L412.4,315.08,300.2,443.072Z" fill="url(#linear-gradient-16)"/>
          </g>
        </g>
        <g id="组_734" data-name="组 734">
          <g id="组_733" data-name="组 733" clip-path="url(#clip-path-22)">
            <path id="路径_7578" data-name="路径 7578" d="M235.234,391.541c33.543-34.914,64.622-72.347,95.071-109.753.244-.3-.254-.613-.5-.328-31.724,36.685-63.243,73.506-96.753,108.388.739.55,1.459,1.123,2.182,1.693" fill="#1d2088"/>
          </g>
        </g>
      </g>
    </g>
    <g id="组_709" data-name="组 709" transform="translate(999 600.212)">
      <g id="组_708" data-name="组 708" clip-path="url(#clip-path-35)">
        <g id="组_672" data-name="组 672">
          <g id="组_671" data-name="组 671" clip-path="url(#clip-path-36)">
            <rect id="矩形_380" data-name="矩形 380" width="275.877" height="189.714" transform="translate(14.835 233.345)" fill="url(#linear-gradient-17)"/>
          </g>
        </g>
        <g id="组_674" data-name="组 674">
          <g id="组_673" data-name="组 673" clip-path="url(#clip-path-37)">
            <rect id="矩形_381" data-name="矩形 381" width="227.345" height="389.573" transform="matrix(0.957, -0.289, 0.289, 0.957, -12.703, 30.701)" fill="url(#linear-gradient-18)"/>
          </g>
        </g>
        <g id="组_676" data-name="组 676">
          <g id="组_675" data-name="组 675" clip-path="url(#clip-path-38)">
            <rect id="矩形_382" data-name="矩形 382" width="249.962" height="321.125" transform="translate(-68.786 39.276) rotate(-14.15)" fill="url(#linear-gradient-19)"/>
          </g>
        </g>
        <g id="组_681" data-name="组 681">
          <g id="组_680" data-name="组 680" clip-path="url(#clip-path-35)">
            <g id="组_679" data-name="组 679" opacity="0.64">
              <g id="组_678" data-name="组 678">
                <g id="组_677" data-name="组 677" clip-path="url(#clip-path-40)">
                  <path id="路径_7552" data-name="路径 7552" d="M138.587,153.149c-4.312,21.518-10.469,42.751-14.767,64.246q-9.945-22.813-20.078-45.552c2.6-21.7,2.248-43.957,2.134-65.774,0-.91-1.4-1.032-1.422-.107-.445,20.376-2.266,40.715-2.854,61.069C82.412,123.971,62.972,81.013,44.316,37.754c-.183-.423-.814-.109-.641.313,17.168,42.1,34.244,84.408,52.082,126.371C78.5,151.37,59.394,140.5,42.019,127.5c-.28-.209-.558.229-.3.445,17.251,14.256,35.359,29.846,55.492,39.915q11.343,26.607,23.177,52.974c-23.284-6.294-46.135-8.659-67.487-21.35-.49-.291-.981.43-.494.742A152.653,152.653,0,0,0,121.4,223.059q11.728,25.974,24.127,51.591a1.249,1.249,0,0,0,2.244-1.094q-11.023-26.58-22.549-52.962c7.76-21.261,11.214-45.115,13.723-67.418.026-.235-.312-.245-.356-.027" fill="#1d2088"/>
                </g>
              </g>
            </g>
          </g>
        </g>
        <g id="组_683" data-name="组 683">
          <g id="组_682" data-name="组 682" clip-path="url(#clip-path-41)">
            <rect id="矩形_385" data-name="矩形 385" width="345.135" height="135.858" transform="translate(107.866 336.097) rotate(-84.65)" fill="url(#linear-gradient-20)"/>
          </g>
        </g>
        <g id="组_685" data-name="组 685">
          <g id="组_684" data-name="组 684" clip-path="url(#clip-path-35)">
            <path id="路径_7554" data-name="路径 7554" d="M229.806,73.034a591.551,591.551,0,0,0-51.7,67.84c.375-3.836.751-7.673,1.16-11.5l.007-.007c16.3-24.873,33.668-49.13,51.9-72.622.055-.071-.041-.172-.1-.1a778.906,778.906,0,0,0-51.315,68.173c3.867-35.043,9.084-69.923,14.519-104.833.041-.268-.366-.388-.414-.114Q191.173,35,188.639,50.126,187.2,35.615,184.7,21.253c-.016-.091-.153-.052-.138.038q2.479,15.39,3.723,30.917C181.765,91.3,176.226,130.415,173.2,169.976a931.524,931.524,0,0,0-21.9-98.137.072.072,0,0,0-.138.038C160.017,105.638,167,139.8,172.879,174.2q-.463,6.426-.844,12.867-.309,5.373-.626,10.753c-6.051-36.182-16.475-71.752-23.615-107.7-.023-.115-.2-.067-.176.048,8.431,37.639,13.36,76.374,23.437,113.629-3.148,53-6.607,106.444-6.314,159.438a.859.859,0,0,0,1.716,0c3.768-41.259,4.767-82.827,6.079-124.318,20.654-14.527,33.886-38.665,46.312-59.972a.286.286,0,0,0-.494-.289c-13.232,21.539-27.036,40.976-45.742,57.924q.209-6.516.427-13.031C192.2,203.234,207.4,179.9,220.583,155.4c.056-.1-.1-.2-.158-.093-13.071,23.563-29.564,44.825-47.27,65.017q.528-14.853,1.229-29.68c.753-15.41,1.907-30.765,3.356-46.083a729.6,729.6,0,0,1,52.268-71.321c.116-.139-.079-.341-.2-.2" fill="#1d2088"/>
          </g>
        </g>
        <g id="组_687" data-name="组 687">
          <g id="组_686" data-name="组 686" clip-path="url(#clip-path-43)">
            <rect id="矩形_387" data-name="矩形 387" width="285.355" height="254.88" transform="translate(41.647 307.037) rotate(-64.134)" fill="url(#linear-gradient-21)"/>
          </g>
        </g>
        <g id="组_692" data-name="组 692">
          <g id="组_691" data-name="组 691" clip-path="url(#clip-path-35)">
            <g id="组_690" data-name="组 690" opacity="0.66">
              <g id="组_689" data-name="组 689">
                <g id="组_688" data-name="组 688" clip-path="url(#clip-path-45)">
                  <path id="路径_7556" data-name="路径 7556" d="M173.837,393.255c.927-30.349,7.322-58.576,17.38-85.947a1.567,1.567,0,0,0,.2-.023c21.378-6.938,43.066-10.8,65.066-15.01a.185.185,0,0,0-.046-.367c-21.655-.018-43.019,4.721-63.639,11.1.164-.431.31-.866.476-1.3,11.4-3.276,22.527-7.266,34.109-10,10.973-2.587,22.194-3.6,33.163-6.032.47-.1.57-.9.005-.918-21.015-.747-45.875,4.557-65.733,13.07,4.917-12.27,10.529-24.395,16.726-36.482.734-1.431,1.5-2.848,2.238-4.275h0c22.264-8.442,44.985-14.7,67.627-21.91.505-.161.273-.953-.235-.888-22.209,2.872-44.2,10-65.03,18.276,1.4-2.664,2.768-5.34,4.184-7.994,21.644-7.609,42.813-16.188,64.778-22.975.127-.039.07-.259-.06-.228-21.332,5.26-43.082,11.366-63.2,20.413q4.11-7.648,8.366-15.219a1.162,1.162,0,0,0,.644-1.132c16.917-30.086,35.519-59.227,56.922-86.319.3-.376-.285-.813-.59-.448a596.332,596.332,0,0,0-49.773,69.72c.249-12.615-4.726-27.026-10.977-37.268-.176-.287-.56,0-.476.277,2.166,7.169,4.63,14.353,6.163,21.684,1.341,6.413,1.408,13.017,2.792,19.38-1.643,2.706-3.247,5.439-4.857,8.167-2.61-15.634-4.108-31.072-11.141-45.614a.092.092,0,0,0-.171.07c5.773,15.771,6.6,32.692,9.159,49.163q-10.8,18.513-20.7,37.587c-4.266,8.185-8.3,16.408-12.041,24.7-2.2-6.24-6.5-11.647-9.553-17.547a208.236,208.236,0,0,1-8.994-20.982,1.7,1.7,0,0,0-3.24.418c-.751,6.822,3.1,15.379,6.018,21.318,3.5,7.106,7.644,15.628,13.817,20.6a1.255,1.255,0,0,0,.216.118c-14.259,32.54-23.633,66.182-22.9,102.791.038,1.872,3.249,1.908,3.307.02" fill="#1d2088"/>
                </g>
              </g>
            </g>
          </g>
        </g>
        <g id="组_694" data-name="组 694">
          <g id="组_693" data-name="组 693" clip-path="url(#clip-path-46)">
            <rect id="矩形_390" data-name="矩形 390" width="223.788" height="187.07" transform="matrix(0.032, -0.999, 0.999, 0.032, 3.317, 359.347)" fill="url(#linear-gradient-22)"/>
          </g>
        </g>
        <g id="组_699" data-name="组 699">
          <g id="组_698" data-name="组 698" clip-path="url(#clip-path-35)">
            <g id="组_697" data-name="组 697" opacity="0.66">
              <g id="组_696" data-name="组 696">
                <g id="组_695" data-name="组 695" clip-path="url(#clip-path-48)">
                  <path id="路径_7558" data-name="路径 7558" d="M171.131,400.724c-4.5-30.027-14.186-57.3-27.4-83.294a1.693,1.693,0,0,1-.2,0c-22.047-4.367-44.04-5.638-66.383-7.224a.185.185,0,0,1,0-.37c21.5-2.575,43.276-.39,64.5,3.509-.214-.408-.41-.823-.626-1.23-11.7-1.908-23.228-4.557-35.051-5.9-11.2-1.273-22.464-.958-33.643-2.074-.479-.048-.672-.825-.114-.912,20.781-3.223,46.093-.89,66.817,5.219-6.331-11.6-13.335-22.982-20.916-34.252-.9-1.334-1.823-2.651-2.727-3.982h0c-23.106-5.754-46.406-9.282-69.741-13.773-.521-.1-.384-.914.128-.909,22.393.23,45.076,4.707,66.733,10.471-1.7-2.481-3.379-4.976-5.1-7.444-22.391-5-44.424-11.021-67.037-15.168-.13-.024-.1-.249.033-.232,21.8,2.7,44.122,6.2,65.168,12.808q-4.984-7.11-10.105-14.124a1.165,1.165,0,0,1-.773-1.049c-20.35-27.878-42.262-54.619-66.714-78.995-.339-.338.187-.841.533-.515a596.432,596.432,0,0,1,57.656,63.357c-1.736-12.5,1.5-27.4,6.5-38.3.14-.306.555-.065.5.219-1.305,7.375-2.9,14.8-3.56,22.26-.575,6.526.138,13.092-.485,19.573,1.952,2.494,3.866,5.018,5.788,7.537.745-15.833.41-31.34,5.678-46.611a.093.093,0,0,1,.178.051c-3.871,16.341-2.7,33.242-3.291,49.9q12.91,17.109,24.995,34.881,7.8,11.434,14.873,23.1c1.447-6.456,5.076-12.332,7.414-18.551a208.557,208.557,0,0,0,6.455-21.9,1.7,1.7,0,0,1,3.266.033c1.551,6.686-1.26,15.637-3.46,21.879-2.633,7.47-5.745,16.421-11.287,22.09a1.327,1.327,0,0,1-.2.142c18,30.629,31.281,62.93,34.877,99.368.184,1.864-3,2.278-3.281.411" fill="#1d2088"/>
                </g>
              </g>
            </g>
          </g>
        </g>
        <g id="组_701" data-name="组 701">
          <g id="组_700" data-name="组 700" clip-path="url(#clip-path-49)">
            <path id="路径_7559" data-name="路径 7559" d="M196.3,244.158l98.471-95.079,91.168,102.79-98.471,95.079Z" fill="url(#linear-gradient-23)"/>
          </g>
        </g>
        <g id="组_703" data-name="组 703">
          <g id="组_702" data-name="组 702" clip-path="url(#clip-path-35)">
            <path id="路径_7561" data-name="路径 7561" d="M239.052,301.565c29.261-25.783,56.713-53.752,83.657-81.742.217-.225-.162-.509-.379-.3-27.92,27.326-55.684,54.775-84.916,80.534.556.491,1.1,1,1.638,1.505" fill="#1d2088"/>
          </g>
        </g>
        <g id="组_705" data-name="组 705">
          <g id="组_704" data-name="组 704" clip-path="url(#clip-path-51)">
            <path id="路径_7562" data-name="路径 7562" d="M101.525,339.465,58.818,176.813l118.108-25.728,42.707,162.652Z" fill="url(#linear-gradient-24)"/>
          </g>
        </g>
        <g id="组_707" data-name="组 707">
          <g id="组_706" data-name="组 706" clip-path="url(#clip-path-35)">
            <path id="路径_7564" data-name="路径 7564" d="M173.679,329.574c-10.149-47.34-23.765-94.049-37.712-140.221-.112-.371-.65-.133-.552.23,12.636,46.825,25.5,93.556,35.64,140.851.869-.3,1.747-.58,2.624-.86" fill="#1d2088"/>
          </g>
        </g>
      </g>
    </g>
  </g>
</svg>
