<svg id="组_661" data-name="组 661" xmlns="http://www.w3.org/2000/svg" xmlns:xlink="http://www.w3.org/1999/xlink" width="527.985" height="395.204" viewBox="0 0 527.985 395.204">
  <defs>
    <clipPath id="clip-path">
      <path id="路径_7532" data-name="路径 7532" d="M254.892,260.482c-5.353.127-10.18,4.019-12.306,8.933s-1.831,10.626-.136,15.7,4.691,9.618,7.9,13.9c2.017,2.728,4.179,5.359,6.412,7.913,1.308,1.5,5.03,7.146,6.966,7.4,2.532.33,2.474-5.618,2.929-8.012q1.111-5.846,2.223-11.691c1.327-6.978,2.646-14.236.836-21.1-1.786-6.779-7.576-13.044-14.555-13.044l-.273,0m55.815-19.153c-7.074,4-17.335,14.162-21.775,23.911l-.269.607q-.17.393-.326.786c10.188,1.881,22.452-1.172,32.019-4.777,3.813-1.437,7.621-3.237,10.39-6.226s4.314-7.4,2.96-11.247c-1.47-4.173-6.034-6.678-10.456-6.84-.188-.007-.377-.01-.565-.01-4.22,0-8.291,1.709-11.978,3.8m40.442-73.93c-6.539,2.8-16.6,10.9-20.893,18.969,8.289,2.494,18.754,1.08,27.03-1.039,3.3-.845,6.624-1.99,9.2-4.22s4.259-5.754,3.486-9.07c-.839-3.6-4.4-6.1-8.057-6.637a13.352,13.352,0,0,0-1.963-.141,22.734,22.734,0,0,0-8.8,2.138m-13.081-49.521a14.843,14.843,0,0,0-1.239,10.412,33.456,33.456,0,0,0,4.23,9.8c1.139,1.957,2.382,3.861,3.677,5.719.759,1.09,2.816,5.111,4.082,5.42,1.656.4,2.052-3.548,2.529-5.1q1.166-3.8,2.33-7.6c1.391-4.534,2.8-9.254,2.1-13.945s-4.163-9.331-8.887-9.738q-.332-.028-.66-.029a9.786,9.786,0,0,0-8.16,5.057m74.058-26.23c-4.664.6-12.523,3.931-16.708,8.282,4.818,3.084,11.726,4.076,17.369,4.225a14.662,14.662,0,0,0,6.609-1.02A6.354,6.354,0,0,0,423.251,98c.117-2.44-1.7-4.672-3.922-5.675a10.95,10.95,0,0,0-4.527-.864,21.13,21.13,0,0,0-2.676.187m-44.515-1.266a14.841,14.841,0,0,0-4.038,9.677,33.442,33.442,0,0,0,1.388,10.586c.56,2.194,1.235,4.366,1.972,6.507.432,1.255,1.311,5.685,2.445,6.329,1.482.842,2.944-2.851,3.828-4.216l4.318-6.67c2.578-3.981,5.222-8.137,5.831-12.839s-1.452-10.114-5.885-11.8a8.02,8.02,0,0,0-2.864-.514,10.224,10.224,0,0,0-6.995,2.938M442.7,50.1a8.184,8.184,0,0,0-5.294,2.307,18.443,18.443,0,0,0-3.483,4.737c-.613,1.085-1.172,2.206-1.7,3.338-.291.629-1.493,2.532-1.445,3.316q-5.681,4.2-11.11,8.834l2.009-3.1c1.42-2.193,2.875-4.481,3.212-7.071s-.8-5.569-3.242-6.5a5.309,5.309,0,0,0-5.429,1.336A8.171,8.171,0,0,0,414,62.629a18.426,18.426,0,0,0,.764,5.83c.309,1.208.681,2.4,1.087,3.583a20.5,20.5,0,0,0,.995,3.046c-6.338,5.567-12.422,11.469-18.284,17.462q.67-1.034,1.34-2.069c1.873-2.892,3.793-5.912,4.237-9.329s-1.056-7.348-4.277-8.572a7,7,0,0,0-7.162,1.762,10.781,10.781,0,0,0-2.935,7.031,24.314,24.314,0,0,0,1.008,7.692c.407,1.593.9,3.171,1.433,4.727a27.79,27.79,0,0,0,1.3,4q-2.726,2.863-5.39,5.722a483.392,483.392,0,0,0-44.1,55.127q-7.207,10.444-13.9,21.209c.065-.275.127-.525.192-.734q1.279-4.176,2.562-8.352c1.528-4.985,3.075-10.175,2.3-15.332s-4.576-10.259-9.771-10.708c-3.916-.338-7.752,2.114-9.7,5.528a16.328,16.328,0,0,0-1.361,11.449,36.758,36.758,0,0,0,4.65,10.778c1.253,2.153,2.62,4.246,4.043,6.289.776,1.113,2.774,4.964,4.17,5.785q-10.152,16.6-19.23,33.83c.162-.724.3-1.4.451-1.878l2.733-8.913c1.631-5.32,3.282-10.858,2.462-16.362S308.739,180.278,303.2,179.8c-4.179-.361-8.271,2.255-10.349,5.9a17.42,17.42,0,0,0-1.453,12.218,39.266,39.266,0,0,0,4.963,11.5c1.337,2.3,2.8,4.532,4.314,6.711.89,1.279,3.3,6,4.79,6.359a1.08,1.08,0,0,0,.334.03Q295.814,241.708,287,261.488c.193-1.3.282-2.647.443-3.494q.978-5.137,1.953-10.272c1.166-6.131,2.326-12.508.736-18.543s-6.79-11.6-13.029-11.458c-4.7.111-8.944,3.531-10.811,7.848s-1.61,9.336-.12,13.8a43.963,43.963,0,0,0,6.944,12.212c1.772,2.4,3.672,4.709,5.633,6.953,1.151,1.316,4.42,6.278,6.121,6.5a1.151,1.151,0,0,0,.574-.076q-5.824,13.17-11.208,26.525-16.449,40.746-29.735,82.676c-.32,1.013,1.226,1.413,1.581.431,7.026-19.51,14.2-39.036,21.748-58.411,11.564,2.079,25.444-1.377,36.283-5.462,4.34-1.636,8.673-3.684,11.826-7.086s4.909-8.427,3.368-12.8c-1.673-4.75-6.867-7.6-11.9-7.785s-9.894,1.829-14.277,4.309c-7.784,4.4-18.944,15.358-24.244,26.108,6.274-16.014,12.821-31.918,19.773-47.613.087-.2.177-.4.269-.607q9.216-20.769,19.476-40.987c8.839,2.647,19.989,1.141,28.809-1.117,3.52-.9,7.071-2.125,9.817-4.5s4.546-6.141,3.72-9.679c-.895-3.842-4.7-6.507-8.6-7.082s-7.861.575-11.486,2.13c-6.821,2.927-17.217,11.248-21.961,19.659a590.355,590.355,0,0,1,43.61-72.69c7.368,1.878,16.368.658,23.564-1.185a20.159,20.159,0,0,0,8.367-3.839c2.34-2.027,3.874-5.233,3.171-8.249-.764-3.274-4-5.546-7.329-6.036s-6.7.49-9.789,1.816a42.042,42.042,0,0,0-10.125,6.71q5.511-7.346,11.328-14.5c6.624,4.171,16.043,5.528,23.754,5.73a20.157,20.157,0,0,0,9.1-1.4c2.806-1.309,5.157-3.974,5.306-7.068.161-3.358-2.332-6.429-5.4-7.81s-6.578-1.361-9.913-.931c-6.028.778-15.935,4.867-21.89,10.323,3.316-4.05,6.692-8.063,10.166-12.016C393.91,99.675,406.139,88.181,418.647,76.9c3.63,2.167,8.659,2.89,12.8,3a11.11,11.11,0,0,0,5.01-.773,4.319,4.319,0,0,0-.051-8.194,10.154,10.154,0,0,0-5.459-.512,25.457,25.457,0,0,0-8.774,3.316q5.446-4.883,10.925-9.77c.312-.1.6-.195.816-.246l4.259-1c2.542-.6,5.176-1.244,7.212-2.881s3.277-4.573,2.157-6.933a5.3,5.3,0,0,0-4.78-2.794H442.7" fill="none"/>
    </clipPath>
    <linearGradient id="linear-gradient" x1="-0.424" y1="1.115" x2="-0.421" y2="1.115" gradientUnits="objectBoundingBox">
      <stop offset="0" stop-color="#1d2088"/>
      <stop offset="0.29" stop-color="#35519d"/>
      <stop offset="0.992" stop-color="#6ec6d1"/>
      <stop offset="1" stop-color="#6ec6d1"/>
    </linearGradient>
    <clipPath id="clip-path-2">
      <path id="路径_7533" data-name="路径 7533" d="M76.627,202.438c-13.244,6.51-20.535,21.6-21.746,36.307s2.645,29.31,6.466,43.564c-3.107-10.35-6.36-20.983-13.12-29.413s-17.963-14.234-28.412-11.475c-8.577,2.264-15,9.9-17.757,18.333S-.3,277.331,1.013,286.105c2.621,17.561,9.023,33.382,17.46,48.869,6.788,12.459,11.955,25.147,23.125,34.587,22.116,18.692,53.753,19.548,82.71,19.478,29.542-.072,60.644-.545,86.186-15.391,24.591-14.294,40.284-39.814,53.3-65.106,5.775-11.22,11.38-23.491,9.54-35.976-2.26-15.339-17.128-27.757-32.625-27.247S211.193,259.2,209.945,274.65l-2.181-30.687c-11.813-2.145-24.392,7.5-25.384,19.467-1.718-9.39,2.493-18.695,5.481-27.761s4.489-19.99-1.589-27.352c-7.366-8.922-21.631-7.505-32.058-2.493A67.842,67.842,0,0,0,116.906,258.3q-1.016-16.188-2.032-32.375a42.949,42.949,0,0,0-1.51-10.386c-3.214-10.105-13.935-15.815-24.63-15.814a27.5,27.5,0,0,0-12.107,2.71" fill="none"/>
    </clipPath>
    <linearGradient id="linear-gradient-2" x1="0.084" y1="0.852" x2="0.087" y2="0.852" gradientUnits="objectBoundingBox">
      <stop offset="0" stop-color="#050f05"/>
      <stop offset="0.097" stop-color="#071012"/>
      <stop offset="1" stop-color="#1d2088"/>
    </linearGradient>
    <clipPath id="clip-path-3">
      <rect id="矩形_374" data-name="矩形 374" width="527.985" height="395.204" fill="none"/>
    </clipPath>
  </defs>
  <g id="组_656" data-name="组 656">
    <g id="组_655" data-name="组 655" clip-path="url(#clip-path)">
      <rect id="矩形_371" data-name="矩形 371" width="373.088" height="296.625" transform="translate(146.918 345.998) rotate(-72.456)" fill="url(#linear-gradient)"/>
    </g>
  </g>
  <g id="组_658" data-name="组 658">
    <g id="组_657" data-name="组 657" clip-path="url(#clip-path-2)">
      <rect id="矩形_372" data-name="矩形 372" width="329.718" height="287.059" transform="translate(-72.308 232.039) rotate(-24.507)" fill="url(#linear-gradient-2)"/>
    </g>
  </g>
  <g id="组_660" data-name="组 660">
    <g id="组_659" data-name="组 659" clip-path="url(#clip-path-3)">
      <rect id="矩形_373" data-name="矩形 373" width="67.376" height="18.06" transform="translate(131.847 392.171) rotate(-80.332)" fill="#1f141c"/>
      <path id="路径_7534" data-name="路径 7534" d="M234.76,323.953c-6.1,14.014-50.9,35.92-79.276,37a39.328,39.328,0,0,1-17.809-3.034c-15.742-6.211-34.541-21.343-47.393-35.775-8.72-9.775-14.7-19.231-15.139-25.39-.75-10.053,6.284-31.923,17.444-59.449,3.18-7.876,6.7-16.246,10.5-24.919l26.578,22.983-19.838-38.157C127.359,158.258,207.511,0,207.511,0s16.933,120.19,18.98,137.413L191.639,174.43l37.141-17.438c1.14,10.138,2.256,20.309,3.28,30.373l-19.483,15.208,20.3-6.963c5.818,59.277,8.592,112.907,1.881,128.343" fill="#0d442d"/>
      <path id="路径_7535" data-name="路径 7535" d="M485.341,362.406l42.644-1.6S468.15,171.463,372.133,219.667Z" fill="#d48d52"/>
      <path id="路径_7536" data-name="路径 7536" d="M292.4,369.644s39-152.938,96.78-155.106c19.1.825,59.979,49.456,73.376,81.415a558.423,558.423,0,0,1,22.783,66.454Z" fill="#ffd054"/>
      <path id="路径_7537" data-name="路径 7537" d="M347.832,350.8s-4.548-69.1,36.508-74.264c45.031-5.5,44.315,71.232,44.315,71.232Z" fill="#1f141c"/>
      <path id="路径_7538" data-name="路径 7538" d="M462.555,295.954c-48.514-75.136-90.423-76.286-90.423-76.286s-24.768,18.14-47.671,61.651c0,0,18.079-62.2,45.959-67.656,51.864-10.141,92.135,82.291,92.135,82.291" fill="#fff"/>
    </g>
  </g>
</svg>
