<svg id="组_1131" data-name="组 1131" xmlns="http://www.w3.org/2000/svg" xmlns:xlink="http://www.w3.org/1999/xlink" width="380.03" height="417.178" viewBox="0 0 380.03 417.178">
  <defs>
    <clipPath id="clip-path">
      <rect id="矩形_644" data-name="矩形 644" width="380.03" height="417.178" fill="none"/>
    </clipPath>
    <clipPath id="clip-path-2">
      <path id="路径_11927" data-name="路径 11927" d="M233.335,151.818a67.843,67.843,0,0,0-6.114,64.1l-17.929-27.034a42.98,42.98,0,0,0-6.5-8.244c-10.9-9.95-30.149-5.26-38.372,6.994s-7,28.969-.707,42.316,16.928,24.072,27.357,34.514c-7.86-7.416-15.988-15-26.055-18.931s-22.672-3.361-30.345,4.247c-6.3,6.246-8.049,16.069-6.229,24.752s6.738,16.4,12.255,23.352c11.041,13.9,24.488,24.414,39.532,33.618,12.1,7.4,22.917,15.816,37.308,18.416,28.5,5.15,56.332-9.909,81.384-24.431,25.558-14.816,52.268-30.759,66.983-56.376,11.181-19.467,14.067-42.227,14.121-64.923v-1.322c-.013-5.618-.193-11.229-.458-16.78-.6-12.6-1.873-26.035-9.7-35.933-9.619-12.16-28.7-15.493-41.872-7.312s-18.643,26.763-12.006,40.776q-8.607-12.75-17.214-25.5c-11.307,4.041-17.387,18.68-12.27,29.543-6.178-7.278-7.177-17.442-9.116-26.788s-6.1-19.561-15.037-22.9a16.5,16.5,0,0,0-5.815-1.047c-9,0-17.832,7.044-23.2,14.9" fill="none"/>
    </clipPath>
    <linearGradient id="linear-gradient" x1="-0.269" y1="1.043" x2="-0.266" y2="1.043" gradientUnits="objectBoundingBox">
      <stop offset="0" stop-color="#050f05"/>
      <stop offset="0.191" stop-color="#052508"/>
      <stop offset="1" stop-color="#058315"/>
    </linearGradient>
    <clipPath id="clip-path-3">
      <path id="路径_11928" data-name="路径 11928" d="M4.919,0A755.442,755.442,0,0,0,0,80.916v1.043c0,1.5.014,2.287.014,2.287l26.383-.97L.956,101.615c.656.784,2.624,5.4,8.712,25.835.209.72.439,1.48.65,2.261,1.152,3.858,2.424,8.218,3.86,13.179.186.679.393,1.359.581,2.079.115.38.231.781.347,1.18,6.357,22.264,17.22,49.415,27.51,73.089q1.59,3.672,3.177,7.221c2.029,4.6,4.009,9.009,5.923,13.2.306.635.592,1.272.878,1.908,9.143,19.978,16.1,33.911,16.1,33.911l31.99-.732L87.036,294.839c33.6,34.319,63.987,53.09,91.95,64.857,1.375.576,2.771,1.151,4.145,1.687.287.131.555.242.842.353,0,0-6.8-90.79-16.961-145.112-.4-2.128-.8-4.216-1.2-6.222-.416-1.966-.81-3.872-1.22-5.7-6.634-29.793-19.8-62.3-29.727-84.448-1.234-2.765-2.421-5.368-3.54-7.773-5.446-11.766-9.274-19.124-9.274-19.124l-18.99,6.318L116.778,80.76C77.846,19.734,16.24,2.777,4.919,0Z" fill="none"/>
    </clipPath>
    <linearGradient id="linear-gradient-2" x1="0.206" y1="1.083" x2="0.209" y2="1.083" gradientUnits="objectBoundingBox">
      <stop offset="0" stop-color="#003205"/>
      <stop offset="0.082" stop-color="#053c07"/>
      <stop offset="1" stop-color="#3db028"/>
    </linearGradient>
    <clipPath id="clip-path-5">
      <rect id="矩形_636" data-name="矩形 636" width="192.281" height="411.063" transform="translate(9.668 6.115)" fill="none"/>
    </clipPath>
    <clipPath id="clip-path-6">
      <path id="路径_11930" data-name="路径 11930" d="M229.7,120.48c-14.469,2.967-25.391,16.282-28.378,30.748s.919,29.66,7.8,42.732c-4.683-5.212-9.517-10.543-15.774-13.7s-14.349-3.682-19.931.551c-7.2,5.456-7.531,16.059-6.343,25.011a142.687,142.687,0,0,0,17.519,51.887c-3.473-5.6-7.044-11.311-12.176-15.442s-12.211-6.456-18.432-4.288c-6.2,2.159-10.312,8.387-11.53,14.833s-.129,13.146,1.762,19.428c23.843,79.2,104.6,88.555,104.6,88.555s22.677-6.827,40.943-40.5c30.169-55.611,14.66-107.163-4.265-154.592C280.66,153.6,274.7,141.6,265.3,132.572c-7.838-7.532-18.479-12.733-29.2-12.733a31.7,31.7,0,0,0-6.394.641" fill="none"/>
    </clipPath>
    <linearGradient id="linear-gradient-3" x1="-0.581" y1="1.166" x2="-0.576" y2="1.166" gradientUnits="objectBoundingBox">
      <stop offset="0" stop-color="#034300"/>
      <stop offset="0.001" stop-color="#034300"/>
      <stop offset="0.081" stop-color="#0b4c06"/>
      <stop offset="1" stop-color="#68b94f"/>
    </linearGradient>
    <clipPath id="clip-path-8">
      <rect id="矩形_639" data-name="矩形 639" width="44.464" height="240.363" transform="translate(225.982 145.304)" fill="none"/>
    </clipPath>
    <clipPath id="clip-path-9">
      <path id="路径_11932" data-name="路径 11932" d="M143.4,278.565c-11.5,13.249-.153,40.06,29.3,53.174,22.629,10.074,50.552,18.963,69.2,30.2,0,0-17.909-42.4-41.036-70.49-11.2-13.6-26.26-20.393-38.813-20.393-7.617,0-14.309,2.5-18.652,7.505" fill="none"/>
    </clipPath>
    <linearGradient id="linear-gradient-4" x1="-0.815" y1="1.233" x2="-0.808" y2="1.233" gradientUnits="objectBoundingBox">
      <stop offset="0" stop-color="#099422"/>
      <stop offset="0.37" stop-color="#4da332"/>
      <stop offset="1" stop-color="#bebe4e"/>
    </linearGradient>
    <clipPath id="clip-path-11">
      <path id="路径_11935" data-name="路径 11935" d="M237.994,203.148c-21.674,2.118-34.348,35.965-19.005,72.938,11.786,28.4,29.356,60.258,36.555,86.309,0,0,20.073-53.5,23.223-98.56,2.361-33.79-17.579-60.8-38.437-60.8-.777,0-1.558.038-2.336.114" fill="none"/>
    </clipPath>
    <linearGradient id="linear-gradient-5" x1="-2.059" y1="1.334" x2="-2.048" y2="1.334" gradientUnits="objectBoundingBox">
      <stop offset="0" stop-color="#099422"/>
      <stop offset="1" stop-color="#5cc36f"/>
    </linearGradient>
  </defs>
  <g id="组_1130" data-name="组 1130" clip-path="url(#clip-path)">
    <g id="组_1107" data-name="组 1107">
      <g id="组_1106" data-name="组 1106" clip-path="url(#clip-path-2)">
        <rect id="矩形_634" data-name="矩形 634" width="329.614" height="317.506" transform="translate(31.262 189.63) rotate(-29.961)" fill="url(#linear-gradient)"/>
      </g>
    </g>
    <g id="组_1109" data-name="组 1109">
      <g id="组_1108" data-name="组 1108" clip-path="url(#clip-path-3)">
        <rect id="矩形_635" data-name="矩形 635" width="312.609" height="405.059" transform="translate(-131.946 57.161) rotate(-23.423)" fill="url(#linear-gradient-2)"/>
      </g>
    </g>
    <g id="组_1114" data-name="组 1114">
      <g id="组_1113" data-name="组 1113" clip-path="url(#clip-path)">
        <g id="组_1112" data-name="组 1112" opacity="0.52">
          <g id="组_1111" data-name="组 1111">
            <g id="组_1110" data-name="组 1110" clip-path="url(#clip-path-5)">
              <path id="路径_11929" data-name="路径 11929" d="M199.934,416.492q-10.386-28.452-20.948-56.8Q149.08,279.449,117.42,199.872q-2.907-7.321-5.852-14.581c-10.546,9.5-22.291,17.718-32.5,27.695a365.682,365.682,0,0,0-26.479,28.585c-.286-.636-.572-1.273-.878-1.908a227.43,227.43,0,0,1,24.051-29.729c10.089-10.377,21.276-21.663,34.043-29.025-.268-.677-.536-1.375-.825-2.072a167.437,167.437,0,0,0-35.9,21.291,187.3,187.3,0,0,0-19.108,17.4c-2.706,2.828-5.052,6.634-8.181,8.932q-1.587-3.551-3.177-7.221c2.072-3.027,4.881-5.8,6.854-8.216A176.142,176.142,0,0,1,69.2,190.245c10.907-9.578,22.677-17.1,36.318-19.911C99.347,155.3,92.978,140.4,86.232,125.705c-12.356,2.6-24.972,4.153-37.208,7.271A196.244,196.244,0,0,0,14.76,144.97c-.188-.721-.4-1.4-.582-2.081,21.266-11.5,46.439-18.4,70.449-20.7-.067-.18-.154-.338-.221-.5-24.953.817-50.177.876-74.089,8.021-.21-.78-.44-1.54-.649-2.26,22.87-8.562,49.226-10.805,73.18-9.119-18.834-40-40.914-78.094-70.841-111.942-.127-.157.067-.366.214-.23,43.026,40.46,87.053,141.119,91.526,152.254a340.027,340.027,0,0,1,27.579-45.928c1.119,2.4,2.306,5.008,3.54,7.773-9.947,13.12-19.521,26.51-28.481,40.625a1.752,1.752,0,0,1-1.3.836c1.09,2.709,10.827,27.273,11.941,30.082q10.456,26.267,21.014,52.55c5.056-11.465,14.962-21.855,23.789-30.265,1.309-1.241,2.638-2.483,3.988-3.684.4,2.006.8,4.094,1.2,6.221-.822.718-1.624,1.455-2.425,2.192-9.478,8.838-16.377,19.663-25.193,28.921,15.05,37.69,29.923,75.508,43.737,113.647q9.791,27.109,18.761,54.491a1.027,1.027,0,0,1-1.958.618" fill="#024b00"/>
            </g>
          </g>
        </g>
      </g>
    </g>
    <g id="组_1116" data-name="组 1116">
      <g id="组_1115" data-name="组 1115" clip-path="url(#clip-path-6)">
        <rect id="矩形_638" data-name="矩形 638" width="213.363" height="265.404" transform="matrix(0.988, -0.153, 0.153, 0.988, 104.901, 125.448)" fill="url(#linear-gradient-3)"/>
      </g>
    </g>
    <g id="组_1121" data-name="组 1121">
      <g id="组_1120" data-name="组 1120" clip-path="url(#clip-path)">
        <g id="组_1119" data-name="组 1119" opacity="0.64">
          <g id="组_1118" data-name="组 1118">
            <g id="组_1117" data-name="组 1117" clip-path="url(#clip-path-8)">
              <path id="路径_11931" data-name="路径 11931" d="M226.989,145.642c-.26-.586-1.168-.359-.982.3,10.981,38.7,22.712,76.538,29.259,116.372,6.662,40.538,7.534,81.169,11.057,121.969a1.476,1.476,0,0,0,2.949-.069c3.717-39.719-1.971-81.118-9.045-120.161-7.218-39.839-16.8-81.261-33.238-118.407" fill="#177b06"/>
            </g>
          </g>
        </g>
      </g>
    </g>
    <g id="组_1123" data-name="组 1123">
      <g id="组_1122" data-name="组 1122" clip-path="url(#clip-path-9)">
        <rect id="矩形_641" data-name="矩形 641" width="142.151" height="137.271" transform="translate(89.423 300.364) rotate(-34.599)" fill="url(#linear-gradient-4)"/>
      </g>
    </g>
    <g id="组_1125" data-name="组 1125">
      <g id="组_1124" data-name="组 1124" clip-path="url(#clip-path)">
        <path id="路径_11933" data-name="路径 11933" d="M245.833,366.641c-27.066-28.078-56.235-54.252-85.4-79.916-.235-.207-.5.185-.28.392,28.548,26.669,57.211,53.177,84.252,81.228.466-.578.949-1.14,1.43-1.7" fill="#047e18"/>
      </g>
    </g>
    <g id="组_1127" data-name="组 1127">
      <g id="组_1126" data-name="组 1126" clip-path="url(#clip-path-11)">
        <path id="路径_11934" data-name="路径 11934" d="M203.7,363.3l-8.671-160.169,86.055-1.007,8.671,160.169Z" fill="url(#linear-gradient-5)"/>
      </g>
    </g>
    <g id="组_1129" data-name="组 1129">
      <g id="组_1128" data-name="组 1128" clip-path="url(#clip-path)">
        <path id="路径_11936" data-name="路径 11936" d="M255.074,369.985c-.409-48.414-4.34-96.908-8.7-144.942-.035-.387-.61-.262-.587.114,2.947,48.41,6.136,96.774,6.546,145.142.913-.123,1.829-.217,2.744-.314" fill="#047e18"/>
      </g>
    </g>
  </g>
</svg>
