<svg xmlns="http://www.w3.org/2000/svg" xmlns:xlink="http://www.w3.org/1999/xlink" width="499.814" height="355.995" viewBox="0 0 499.814 355.995">
  <defs>
    <clipPath id="clip-path">
      <rect id="矩形_633" data-name="矩形 633" width="499.814" height="355.995" fill="none"/>
    </clipPath>
    <clipPath id="clip-path-2">
      <path id="路径_11922" data-name="路径 11922" d="M76.627,152.483c-13.244,6.51-20.535,21.6-21.746,36.307s2.645,29.31,6.466,43.565c-3.107-10.351-6.36-20.984-13.12-29.414s-17.963-14.233-28.412-11.475c-8.577,2.265-15,9.9-17.757,18.334S-.3,227.376,1.013,236.151c2.621,17.561,9.023,33.381,17.46,48.868,6.788,12.459,11.955,25.148,23.125,34.588,22.116,18.692,53.753,19.548,82.71,19.478,29.542-.072,60.644-.546,86.186-15.391,24.591-14.294,40.284-39.815,53.3-65.106,5.775-11.221,11.38-23.492,9.54-35.977-2.26-15.339-17.128-27.756-32.625-27.246s-29.517,13.876-30.765,29.331l-2.181-30.688c-11.813-2.145-24.392,7.5-25.384,19.467-1.718-9.39,2.493-18.694,5.481-27.761s4.489-19.99-1.589-27.351c-7.366-8.922-21.631-7.505-32.058-2.494a67.842,67.842,0,0,0-37.308,52.479q-1.016-16.188-2.032-32.375a42.949,42.949,0,0,0-1.51-10.386c-3.214-10.1-13.935-15.814-24.63-15.814a27.506,27.506,0,0,0-12.107,2.71" fill="none"/>
    </clipPath>
    <linearGradient id="linear-gradient" x1="0.084" y1="0.889" x2="0.087" y2="0.889" gradientUnits="objectBoundingBox">
      <stop offset="0" stop-color="#050f05"/>
      <stop offset="0.191" stop-color="#052508"/>
      <stop offset="1" stop-color="#058315"/>
    </linearGradient>
    <clipPath id="clip-path-3">
      <path id="路径_11923" data-name="路径 11923" d="M327.875,9.022c-6.135,8.064-5.786,19.9-.692,28.66-7.07-10.938-24.612-11.138-34.271-2.4s-12.125,23.343-9.489,36.1,9.562,24.145,16.372,35.246c-8.658-2.418-18.329,1.877-23.657,9.117s-6.72,16.842-5.333,25.724,5.315,17.169,9.82,24.948a169.074,169.074,0,0,0,57.567,59.059c1.071-1.241,81.9-66.93,81.9-66.93A99.007,99.007,0,0,0,444.274,88.6c-.589-10.72-3.085-21.63-9.281-30.4s-16.57-15.048-27.283-14.333-20.866,9.658-21.077,20.393c-.6-11.779-1.222-23.727-4.951-34.915S370.667,7.632,359.975,2.657A29.176,29.176,0,0,0,347.736,0c-7.671,0-15.251,2.963-19.861,9.022" fill="none"/>
    </clipPath>
    <linearGradient id="linear-gradient-2" x1="-0.885" y1="1.368" x2="-0.881" y2="1.368" gradientUnits="objectBoundingBox">
      <stop offset="0" stop-color="#003205"/>
      <stop offset="0.082" stop-color="#053c07"/>
      <stop offset="1" stop-color="#3db028"/>
    </linearGradient>
    <clipPath id="clip-path-5">
      <rect id="矩形_628" data-name="矩形 628" width="114.427" height="228.832" transform="translate(298.688 14.382)" fill="none"/>
    </clipPath>
    <clipPath id="clip-path-6">
      <path id="路径_11925" data-name="路径 11925" d="M362.857,198c-18.049,11.292-30.75,29.7-38.872,49.379-6.544,15.857-16.46,40.761-14.986,58.173,1.2,14.156,15.648,27.382,27.821,32.873,12.15,5.479,25.866,6.617,39.161,5.691A134.381,134.381,0,0,0,498.346,236.776a66.532,66.532,0,0,0,1.468-12.919v-.236c-.015-6.254-1.291-12.336-4.891-17.368-5.884-8.222-16.387-11.485-26.19-13.957-17.3-4.366-35.7-7.717-53.6-7.716-18.561,0-36.585,3.606-52.275,13.423" fill="none"/>
    </clipPath>
    <linearGradient id="linear-gradient-3" x1="-1.705" y1="0.933" x2="-1.7" y2="0.933" xlink:href="#linear-gradient-2"/>
    <clipPath id="clip-path-8">
      <rect id="矩形_631" data-name="矩形 631" width="207.887" height="156.598" transform="translate(285.281 199.397)" fill="none"/>
    </clipPath>
  </defs>
  <g id="组_1105" data-name="组 1105" transform="translate(141)">
    <g id="组_1104" data-name="组 1104" transform="translate(-141)" clip-path="url(#clip-path)">
      <g id="组_1089" data-name="组 1089">
        <g id="组_1088" data-name="组 1088" clip-path="url(#clip-path-2)">
          <rect id="矩形_626" data-name="矩形 626" width="329.718" height="287.059" transform="translate(-72.308 182.085) rotate(-24.507)" fill="url(#linear-gradient)"/>
        </g>
      </g>
      <g id="组_1091" data-name="组 1091">
        <g id="组_1090" data-name="组 1090" clip-path="url(#clip-path-3)">
          <rect id="矩形_627" data-name="矩形 627" width="258.184" height="280.353" transform="translate(179.547 44.673) rotate(-26.431)" fill="url(#linear-gradient-2)"/>
        </g>
      </g>
      <g id="组_1096" data-name="组 1096">
        <g id="组_1095" data-name="组 1095" clip-path="url(#clip-path)">
          <g id="组_1094" data-name="组 1094" opacity="0.52">
            <g id="组_1093" data-name="组 1093">
              <g id="组_1092" data-name="组 1092" clip-path="url(#clip-path-5)">
                <path id="路径_11924" data-name="路径 11924" d="M338.857,241.456c8.061-38.249,13.157-76.395,14.3-114.627-22.421-13.809-38.5-34.314-54.4-54.976-.24-.311.21-.71.464-.4,16.16,19.484,32.757,38.415,53.993,52.441a500.55,500.55,0,0,0-8.887-108.8.615.615,0,0,1,1.209-.227c2.97,14.026,5.353,28.284,7.222,42.657,2.343-3.676,5.269-6.981,7.464-10.8a102.3,102.3,0,0,0,7.059-14.94.513.513,0,0,1,.971.329A59.942,59.942,0,0,1,363.3,46.4a73.134,73.134,0,0,1-4,6.835c-1.4,2.118-4.3,4.734-4.742,7.262a1.021,1.021,0,0,1-1.295.857A505.553,505.553,0,0,1,356.6,147.9c24-18.557,46.516-41.7,55.723-71.033a.412.412,0,0,1,.8.161c-.344,15.546-10.253,29.044-19.761,40.636-10.556,12.868-22.676,25.033-36.953,33.732a416.973,416.973,0,0,1-15.02,90.92c-.484,1.688-2.868.774-2.524-.857" fill="#005223"/>
              </g>
            </g>
          </g>
        </g>
      </g>
      <g id="组_1098" data-name="组 1098">
        <g id="组_1097" data-name="组 1097" clip-path="url(#clip-path-6)">
          <rect id="矩形_630" data-name="矩形 630" width="183.052" height="210.688" transform="translate(287.798 342.582) rotate(-82.883)" fill="url(#linear-gradient-3)"/>
        </g>
      </g>
      <g id="组_1103" data-name="组 1103">
        <g id="组_1102" data-name="组 1102" clip-path="url(#clip-path)">
          <g id="组_1101" data-name="组 1101" opacity="0.52">
            <g id="组_1100" data-name="组 1100">
              <g id="组_1099" data-name="组 1099" clip-path="url(#clip-path-8)">
                <path id="路径_11926" data-name="路径 11926" d="M492.384,218.7q-13.07,4.352-26.213,8.921c4.984-5.811,8.957-12.791,12.53-19.425.15-.278-.318-.551-.483-.279-4.524,7.466-10.094,13.87-15.263,20.818-.922.322-1.844.633-2.766.958,6.436-7.422,10.5-16.416,14.432-25.5.073-.167-.179-.267-.26-.107-4.864,9.676-10.045,19.109-17.678,26.838-20.649,7.354-41.183,15.326-61.005,24.581,5.89-18.98,10.6-37.621,19.234-55.736.158-.331-.353-.531-.52-.216-9.272,17.522-18.271,37.129-20.9,57q-7.188,3.4-14.242,7.034c5.358-21.167,10.429-41.662,18.906-62a.352.352,0,0,0-.65-.269c-9.837,19.4-18.417,41.784-20.874,63.65-3.921,2.06-7.814,4.166-11.655,6.357a255.493,255.493,0,0,0-36.276,24.74c2.713-9.274,4.5-18.879,7.634-28.071a198.985,198.985,0,0,1,14.193-31.953c.115-.208-.234-.411-.362-.209-11.45,18.034-23.762,41.147-24.879,63.132-17.407,15.088-32.03,33.191-39.88,54.771a1.69,1.69,0,0,0,3.12,1.294c13.8-25.447,32.252-46.17,54.369-63.178,19.5,1.237,39.679,12.535,56.624,20.566.926.439,1.777-1,.907-1.571-9.85-6.493-20.647-11.174-31.8-14.967-7.6-2.586-15.5-5.222-23.518-5.72q2.658-1.992,5.376-3.92c24.3,1.743,45.709,12.211,68.221,21.028a.845.845,0,0,0,.647-1.56c-20.669-11.066-43.674-20.223-67.35-20.521a256.025,256.025,0,0,1,23.146-14.293c12.036-6.582,24.393-12.654,36.938-18.377a150.207,150.207,0,0,1,36.93,21.412.212.212,0,0,0,.3-.3c-8.125-9.942-22.179-18.415-34.786-22.215q5.583-2.521,11.2-4.968c6.735,1.958,13.078,3.4,19.185,7.056a171.986,171.986,0,0,1,16.908,12.011c.731.567,1.5-.51.855-1.117-8.728-8.22-20.34-19.046-33.211-19.548,8.658-3.7,17.385-7.241,26.129-10.716a.727.727,0,0,0,.388-.156c12.272-4.873,24.585-9.594,36.842-14.239.684-.26.237-1.261-.443-1.035" fill="#005223"/>
              </g>
            </g>
          </g>
        </g>
      </g>
    </g>
  </g>
</svg>
