<svg id="手" xmlns="http://www.w3.org/2000/svg" xmlns:xlink="http://www.w3.org/1999/xlink" width="427.056" height="328.763" viewBox="0 0 427.056 328.763">
  <defs>
    <clipPath id="clip-path">
      <rect id="矩形_751" data-name="矩形 751" width="427.056" height="328.763" fill="none"/>
    </clipPath>
  </defs>
  <g id="组_1274" data-name="组 1274" clip-path="url(#clip-path)">
    <path id="路径_13505" data-name="路径 13505" d="M62.555,232.885s62.191-90.445,68.462-98.17,57.891-75.477,57.891-75.477L172.577,30.912s-64.588,69.882-66.687,72.512C85.688,128.735,0,252.154,0,252.154Z" transform="translate(0 6.267)" fill="#ffd6ae"/>
    <path id="路径_13506" data-name="路径 13506" d="M209.961,59.312s35.207-16.155,36.212-19.375.983-9.057-6.09-7.853c-.881.15-24.717,9.735-24.717,9.735s9.329,1.115,8.576-3.713-10.083-24.289-12.6-26.7-27.51,23.5-27.51,23.5l14.245,30.969s13.391,7.658,16.28,8.785,4.523-3.862,5.276-7.243-9.676-8.1-9.676-8.1" transform="translate(-11.258 2.279)" fill="#ffd6ae"/>
    <path id="路径_13507" data-name="路径 13507" d="M241.4,25.079,222.471,41.65c-2.572,2.252-6.114,1.4-7.872-1.9s-1.092-7.835,1.48-10.086L235.01,13.1c2.572-2.252,6.114-1.4,7.872,1.9s1.091,7.835-1.481,10.086" transform="translate(-13.082 2.4)" fill="#ffd6ae"/>
    <path id="路径_13508" data-name="路径 13508" d="M231.261,13.241,212.331,29.812c-2.572,2.253-6.114,1.4-7.872-1.9s-1.092-7.833,1.48-10.086L224.87,1.259c2.572-2.253,6.114-1.4,7.872,1.9s1.091,7.835-1.481,10.085" transform="translate(-12.461 0)" fill="#ffd6ae"/>
    <path id="路径_13509" data-name="路径 13509" d="M363.256,303.884s30.1-114.2,32.193-125.019S417.577,76.913,417.577,76.913l27.31,3.98s-15,106.592-15.729,110.235c-7.028,35.065-31.024,122.041-31.024,122.041Z" transform="translate(-22.245 15.594)" fill="#ffd6ae"/>
    <path id="路径_13510" data-name="路径 13510" d="M417.852,75.123s-6.658-47.148-4.983-49.871,5.633-5.614,8.351,2.837c.339,1.052,5.761,32.3,5.761,32.3s-5.414-9.8-1.772-11.373,21.462-.939,24.349.645-2.15,42.272-2.15,42.272l-28.055-.346S407.487,80.544,405.282,77.9s.354-6.949,2.262-9.474,10.309,6.7,10.309,6.7" transform="translate(-24.767 4.558)" fill="#ffd6ae"/>
    <path id="路径_13511" data-name="路径 13511" d="M427.43,25.882l-1.753,29.287c-.238,3.98,2.108,7.486,5.215,7.79s5.842-2.7,6.08-6.68l1.753-29.288c.237-3.979-2.108-7.485-5.215-7.79s-5.842,2.7-6.08,6.681" transform="translate(-26.067 3.889)" fill="#ffd6ae"/>
    <path id="路径_13512" data-name="路径 13512" d="M442.75,28.755,441,58.042c-.238,3.98,2.108,7.486,5.215,7.79s5.842-2.7,6.08-6.68l1.753-29.287c.237-3.98-2.108-7.486-5.215-7.791s-5.842,2.7-6.08,6.681" transform="translate(-27.005 4.471)" fill="#ffd6ae"/>
  </g>
</svg>
