<svg xmlns="http://www.w3.org/2000/svg" xmlns:xlink="http://www.w3.org/1999/xlink" width="459.367" height="275.893" viewBox="0 0 459.367 275.893">
  <defs>
    <clipPath id="clip-path">
      <rect id="矩形_750" data-name="矩形 750" width="459.367" height="275.893" fill="none"/>
    </clipPath>
  </defs>
  <g id="手" clip-path="url(#clip-path)">
    <path id="路径_13501" data-name="路径 13501" d="M207.826,245.423S107.756,131.18,101.717,123.332s-59.2-72.668-59.2-72.668L18.027,68.584s54.157,80.33,56.215,82.959c19.807,25.306,88.566,118.447,88.566,118.447Z" transform="translate(45 11.995)" fill="#ffd6ae"/>
    <path id="路径_13502" data-name="路径 13502" d="M39.852,44.733S28.541,2.086,25.929.725s-7.46-1.638-6.882,6.823c.071,1.054,6.607,29.858,6.607,29.858s1.482-11.021-2.572-10.377S2.317,37.739.163,40.6s17.864,33.89,17.864,33.89L44.584,59.182s7.157-15.5,8.265-18.877-2.937-5.57-5.7-6.641-7.3,11.069-7.3,11.069" transform="translate(45 6.092)" fill="#ffd6ae"/>
    <path id="路径_13503" data-name="路径 13503" d="M400.01,247.586s-43.934-100.57-48.671-109.463-42.816-85.817-42.816-85.817l23.018-20.2s50.93,82.92,52.506,85.937c15.168,29.027,75.32,154.112,75.32,154.112Z" transform="translate(0 3.741)" fill="#ffd6ae"/>
    <path id="路径_13504" data-name="路径 13504" d="M299.325,48.82s-32.6-25.565-32.921-28.764.988-8.416,7.986-5.108c.872.412,23.24,16.51,23.24,16.51s-9.828-1.945-7.989-6.029S305.353,6.868,308.466,5.5s23.075,29.709,23.075,29.709L310.082,58.435s-15.443,2.632-18.659,2.729-3.793-4.884-3.822-8.147,11.724-4.2,11.724-4.2" transform="translate(0 0.636)" fill="#ffd6ae"/>
  </g>
</svg>
