<svg xmlns="http://www.w3.org/2000/svg" viewBox="0 0 30.96 30.96"><defs><style>.cls-1{fill:#767676;}</style></defs><g id="圖層_2" data-name="圖層 2"><g id="圖層_1-2" data-name="圖層 1"><path id="Icon_awesome-instagram" data-name="Icon awesome-instagram" class="cls-1" d="M15.48,7.54a7.94,7.94,0,1,0,7.94,7.93,7.93,7.93,0,0,0-7.94-7.93Zm0,13.09a5.16,5.16,0,1,1,5.16-5.16h0A5.16,5.16,0,0,1,15.48,20.63ZM25.6,7.21a1.85,1.85,0,1,1-1.85-1.85A1.85,1.85,0,0,1,25.6,7.21Zm5.25,1.88a9.13,9.13,0,0,0-2.5-6.48A9.22,9.22,0,0,0,21.87.11C19.31,0,11.65,0,9.09.11A9.21,9.21,0,0,0,2.61,2.6,9.18,9.18,0,0,0,.11,9.09C0,11.64,0,19.31.11,21.86a9.18,9.18,0,0,0,2.5,6.49,9.26,9.26,0,0,0,6.48,2.5c2.56.14,10.22.14,12.78,0a9.18,9.18,0,0,0,6.48-2.5,9.2,9.2,0,0,0,2.5-6.49c.15-2.55.15-10.21,0-12.77ZM27.55,24.6a5.23,5.23,0,0,1-2.94,2.95c-2,.81-6.88.62-9.13.62s-7.1.18-9.13-.62A5.2,5.2,0,0,1,3.41,24.6c-.81-2-.63-6.88-.63-9.13s-.18-7.09.63-9.12A5.2,5.2,0,0,1,6.35,3.4c2-.81,6.88-.62,9.13-.62s7.09-.18,9.13.62a5.23,5.23,0,0,1,2.94,2.95c.81,2,.63,6.88.63,9.12S28.36,22.57,27.55,24.6Z"/></g></g></svg>