<svg xmlns="http://www.w3.org/2000/svg" viewBox="0 0 31.46 29.44"><defs><style>.cls-1{fill:none;stroke:#767676;stroke-miterlimit:10;stroke-width:2.8px;}</style></defs><g id="圖層_2" data-name="圖層 2"><g id="圖層_1-2" data-name="圖層 1"><g id="yCKpi7.tif"><path class="cls-1" d="M1.4,9.42v-1a.43.43,0,0,0,0-.11c0-.33.06-.67.13-1A7,7,0,0,1,4,3.15a7.37,7.37,0,0,1,5.3-1.73,7.15,7.15,0,0,1,3.19.93,8.86,8.86,0,0,1,3.19,3.1l.1.15.07-.12c.32-.43.61-.89,1-1.29a7.7,7.7,0,0,1,5.48-2.77,7.12,7.12,0,0,1,3.69.71,7.16,7.16,0,0,1,4.12,6.55,14,14,0,0,1-.18,2.74,11,11,0,0,1-.92,3,13.4,13.4,0,0,1-2.39,3.34c-1.07,1.12-2.22,2.14-3.39,3.16-2.48,2.15-5,4.3-7.36,6.57a.71.71,0,0,1-.09.07l-.16-.15c-1.38-1.26-2.76-2.53-4.16-3.78-1.61-1.44-3.25-2.85-4.87-4.28a22.37,22.37,0,0,1-2.61-2.72,10.76,10.76,0,0,1-2-3.84,12.91,12.91,0,0,1-.44-2.69C1.43,9.89,1.42,9.65,1.4,9.42Z"/></g></g></g></svg>