<svg xmlns="http://www.w3.org/2000/svg" viewBox="0 0 59.44 59.44"><defs><style>.cls-1{fill:#22d146;}.cls-2{fill:#fff;}</style></defs><g id="圖層_2" data-name="圖層 2"><g id="圖層_1-2" data-name="圖層 1"><circle class="cls-1" cx="29.72" cy="29.72" r="29.72"/><path class="cls-2" d="M48.05,29.13c0-8.21-8.23-14.88-18.33-14.88S11.4,20.92,11.4,29.13c0,7.35,6.51,13.5,15.32,14.67,2.15.46,1.9,1.25,1.42,4.14-.08.46-.37,1.8,1.58,1A59,59,0,0,0,44.13,38.28,13.29,13.29,0,0,0,48.05,29.13Z"/><path id="Icon_awesome-line" data-name="Icon awesome-line" class="cls-1" d="M34.55,26.11v7.22a.31.31,0,0,1-.31.32H33.07a.33.33,0,0,1-.26-.13L29.5,29.05v4.29a.32.32,0,0,1-.32.32H28a.32.32,0,0,1-.33-.31h0V26.12a.33.33,0,0,1,.32-.33h1.16a.32.32,0,0,1,.26.15l3.31,4.47V26.12a.32.32,0,0,1,.31-.33h1.17a.31.31,0,0,1,.33.31Zm-8.32-.33H25.07a.32.32,0,0,0-.32.32h0v7.22a.32.32,0,0,0,.31.32h1.17a.32.32,0,0,0,.32-.32h0V26.11A.32.32,0,0,0,26.23,25.78Zm-2.79,6H20.28V26.11a.32.32,0,0,0-.32-.33H18.8a.33.33,0,0,0-.33.32h0v7.22a.28.28,0,0,0,.1.22.31.31,0,0,0,.22.09h4.64a.32.32,0,0,0,.32-.32h0V32.16a.31.31,0,0,0-.31-.32Zm17.2-6H36a.33.33,0,0,0-.32.33v7.22a.33.33,0,0,0,.32.32h4.64a.32.32,0,0,0,.33-.32h0V32.17a.32.32,0,0,0-.32-.32H37.49V30.63h3.16a.32.32,0,0,0,.32-.32h0V29.13a.32.32,0,0,0-.32-.32H37.49V27.59h3.16a.32.32,0,0,0,.32-.32h0V26.11a.33.33,0,0,0-.32-.32Z"/></g></g></svg>