<svg id="组_3699" data-name="组 3699" xmlns="http://www.w3.org/2000/svg" xmlns:xlink="http://www.w3.org/1999/xlink" width="756.314" height="225.878" viewBox="0 0 756.314 225.878">
  <defs>
    <clipPath id="clip-path">
      <rect id="矩形_2707" data-name="矩形 2707" width="756.018" height="225.878" fill="#ededed"/>
    </clipPath>
  </defs>
  <g id="组_3698" data-name="组 3698">
    <g id="组_3697" data-name="组 3697" clip-path="url(#clip-path)">
      <path id="路径_26679" data-name="路径 26679" d="M141.518,80.868c.1-7.525-.488-16.511-6.238-19.968-4.466-2.628-10.68-.358-15.256,2.367-3.958,2.31-7.528,5.95-10.67,9.848a5.74,5.74,0,0,1,1.68,3.093,37.719,37.719,0,0,1,9.723-9.243c4.979-3.144,12.485-5.614,15.734.776,1.35,2.678,1.663,6.115,1.8,9.335.648,15.392-2.3,32.01-5.385,47.065q-5.178-1.72-10.353-3.413c2.795-13.256,5.294-27.469,5.233-41.063-.006-1.5-1.007-2.477-2.241-1.815-4.376,2.315-7.948,7.383-10.877,12.075a22.269,22.269,0,0,1,1.751,1.941,3.208,3.208,0,0,1,.432.76c2.212-3.659,4.67-7.35,7.7-9.776-.337,12.858-2.788,26.177-5.463,38.509-.2.918-.035,2.25.9,2.56l13.482,4.552a1.537,1.537,0,0,0,2.114-1.094c3.081-15.03,5.738-30.982,5.943-46.509" fill="#ededed"/>
      <path id="路径_26680" data-name="路径 26680" d="M107.864,107.23q.84-1.332,1.679-2.67a5.233,5.233,0,0,0-.816-.211c-.76-.121-1.4-.841-1.816-1.919q-.983,1.559-1.966,3.108a12.477,12.477,0,0,1,2.919,1.692" fill="#ededed"/>
      <path id="路径_26681" data-name="路径 26681" d="M97.464,117.265C89.445,129.1,79.388,140.858,66.113,138.7c-12.88-3.175-11.841-16.624-7.295-25.981q4.6,2.922,9.2,5.917a15.849,15.849,0,0,0-1.844,6.7c0,.868.436,1.94,1.407,2.01,4.569.325,8.7-2.986,11.932-6.073a62.51,62.51,0,0,0,5.51-6.178c-1.076-.052-2.159-.075-3.257-.054a1.623,1.623,0,0,1-.886-.233c-.775.906-1.564,1.795-2.389,2.641-2.229,2.269-5.492,5.562-8.82,6.3a20.842,20.842,0,0,1,2.006-5.017,1.851,1.851,0,0,0-.5-2.078q-6-3.877-11.978-7.633a1.645,1.645,0,0,0-2.5.673c-3.336,5.935-5.743,13.01-3.948,19.994a17.257,17.257,0,0,0,12.563,12.355,1.792,1.792,0,0,0,.378.109,1.731,1.731,0,0,0,.389.054c14.837,2.278,25.853-10.951,34.451-23.576-1.019-.469-2.037-.941-3.062-1.364" fill="#ededed"/>
      <path id="路径_26682" data-name="路径 26682" d="M94.107,102.046q3.717-5.706,7.416-11.532a12.454,12.454,0,0,1-1.534-3.937c-2.281,3.613-4.494,7.259-6.775,10.77q-1.194,1.826-2.387,3.643a25.071,25.071,0,0,1,3.28,1.056" fill="#ededed"/>
      <path id="路径_26683" data-name="路径 26683" d="M111.018,107.166a6.845,6.845,0,0,1-.42-1.816c-18.2-10.481-41.1-9.206-61.293-3.55a170.16,170.16,0,0,0-27.159,9.356c-7.276,3.032-14.04,6.795-18.693,12.68a1.443,1.443,0,0,0,.247,2.115q5.9,3.961,11.807,8.05a1.72,1.72,0,0,0,2.315-.053c3.57-4.5,9.324-6.657,14.789-8.705a137.194,137.194,0,0,1,18.435-5.823q2.407-.588,4.85-1.076a10.687,10.687,0,0,1,.757-3.6c-.948.188-1.89.382-2.82.59a140.793,140.793,0,0,0-21.81,6.625c-5.721,2.142-11.8,4.449-15.864,8.806q-4.544-3.108-9.077-6.14c8.616-9.847,24.3-14.49,37.186-18.072,14.311-4.4,29.547-6.71,44.312-4.851a51.215,51.215,0,0,1,23.464,8.875,7.806,7.806,0,0,1-.285-1.674c-.249-.575-.5-1.149-.741-1.742" fill="#ededed"/>
      <path id="路径_26684" data-name="路径 26684" d="M135.616,138.19c-1.646.473-3.085-.506-4.393-2.108A87.177,87.177,0,0,1,137.1,169.16c-.24,18.867-5.345,36.311-12.2,51.578q-4.833-4.184-9.658-8.3c10.713-23.593,17.659-56.545.968-81.083-12.955-18.068-33.787-20.653-52.742-17.764,1.581.872,3.1,2.009,4.672,2.962a75.706,75.706,0,0,1,16.968.336c9.679,1.334,18.59,5.123,25.769,13.238,7.986,9.275,12.076,22.356,12.149,35.7.1,16.933-5.117,32.464-11.553,45.931a2.6,2.6,0,0,0,.925,2.79q6.289,5.391,12.592,10.9c.858.754,1.571.428,1.925-.3a1.824,1.824,0,0,0,.238-.378c11.347-24.9,17.951-57.942,8.465-86.576" fill="#ededed"/>
      <path id="路径_26685" data-name="路径 26685" d="M185.632,128.829q-4.5-7.309-8.982-14.448a1.362,1.362,0,0,0-2.276-.266c-6.86,7.592-16.277,13.154-25.362,11.441-4.645-.871-9.162-4.4-12.85-8.646a11.55,11.55,0,0,1-1.18,4.178c4.319,4.579,9.688,8.23,15.078,8.819,9.027.974,18.035-3.815,25.114-11.086q3.438,5.489,6.886,11.077c-9.576,9.925-21.807,15.481-34.068,13.52-8.627-1.78-16.49-8.175-22.757-15.6-4.352-5.064-7.589-11.511-11.269-17.063-5.569-8.254-10.822-15.574-13.688-25.387a93.544,93.544,0,0,1-3.452-24.712q5.28-.707,10.557-1.438c.27,11.432,2.091,23.32,7.7,32.815,2.755,4.738,6.219,9.018,9.241,13.664.287.443.565.9.847,1.351.119-1.745.295-3.484.5-5.221-2.815-4.071-5.611-8.109-8.049-12.323-5.531-9.407-6.966-21.539-7.1-32.839-.008-.722-.758-1.472-1.386-1.378Q102.28,56.3,95.424,57.27a1.979,1.979,0,0,0-1.792,1.8A102.032,102.032,0,0,0,96.8,85.194c2.9,10.868,8.471,18.867,14.618,27.968,3.939,5.946,7.4,12.75,12.144,18.1,6.787,7.8,14.88,14.323,24.088,16.3,13.676,2.3,27.357-4.078,37.767-15.584a2.9,2.9,0,0,0,.217-3.15" fill="#ededed"/>
    </g>
  </g>
  <text id="Love_Peace" data-name="Love &amp; Peace" transform="translate(235.314 80.624)" fill="#ededed" font-size="92.206" font-family="KBZipaDeeDooDah"><tspan x="0" y="0">Love &amp; Peace</tspan></text>
  <text id="Rock_Festival" data-name="Rock Festival" transform="translate(235.314 191.272)" fill="#ededed" font-size="92.206" font-family="KBZipaDeeDooDah"><tspan x="0" y="0">Rock Festival</tspan></text>
</svg>
