<svg xmlns="http://www.w3.org/2000/svg" xmlns:xlink="http://www.w3.org/1999/xlink" width="252.999" height="80.708" viewBox="0 0 252.999 80.708">
  <defs>
    <clipPath id="clip-path">
      <rect id="長方形_2342" data-name="長方形 2342" width="252.999" height="75.589" fill="none"/>
    </clipPath>
  </defs>
  <g id="グループ_3023" data-name="グループ 3023" transform="translate(0 5.118)">
    <g id="グループ_3021" data-name="グループ 3021">
      <g id="グループ_3020" data-name="グループ 3020" clip-path="url(#clip-path)">
        <path id="パス_26349" data-name="パス 26349" d="M120.118,66.808c.034-2.518-.163-5.525-2.088-6.682-1.495-.879-3.574-.12-5.105.792a13.77,13.77,0,0,0-3.571,3.3,1.921,1.921,0,0,1,.562,1.035,12.622,12.622,0,0,1,3.254-3.093c1.666-1.052,4.178-1.879,5.265.26a7.858,7.858,0,0,1,.6,3.124c.217,5.151-.769,10.712-1.8,15.75q-1.733-.576-3.465-1.142A66.647,66.647,0,0,0,115.522,66.4c0-.5-.337-.829-.75-.607a11.2,11.2,0,0,0-3.64,4.041,7.449,7.449,0,0,1,.586.65,1.073,1.073,0,0,1,.145.254,12.392,12.392,0,0,1,2.575-3.272,70.793,70.793,0,0,1-1.828,12.887c-.067.307-.012.753.3.857l4.512,1.523a.514.514,0,0,0,.707-.366,84.286,84.286,0,0,0,1.989-15.564" transform="translate(-72.759 -39.745)" fill="#eaeaea"/>
        <path id="パス_26350" data-name="パス 26350" d="M105.922,104.036q.281-.446.562-.894a1.753,1.753,0,0,0-.273-.071c-.254-.04-.467-.281-.608-.642q-.329.522-.658,1.04a4.175,4.175,0,0,1,.977.566" transform="translate(-69.825 -68.152)" fill="#eaeaea"/>
        <path id="パス_26351" data-name="パス 26351" d="M67.3,111.563c-2.684,3.962-6.049,7.9-10.492,7.172-4.31-1.062-3.963-5.563-2.441-8.694q1.538.978,3.078,1.98a5.3,5.3,0,0,0-.617,2.243c0,.29.146.649.471.673,1.529.109,2.911-1,3.993-2.032a20.918,20.918,0,0,0,1.844-2.067c-.36-.017-.723-.025-1.09-.018a.543.543,0,0,1-.3-.078c-.259.3-.523.6-.8.884A7.068,7.068,0,0,1,58,113.732a6.975,6.975,0,0,1,.671-1.679.619.619,0,0,0-.168-.7Q56.5,110.06,54.5,108.8a.55.55,0,0,0-.837.225,9.175,9.175,0,0,0-1.321,6.691,5.775,5.775,0,0,0,4.2,4.135.6.6,0,0,0,.126.036.579.579,0,0,0,.13.018c4.965.762,8.652-3.665,11.529-7.89-.341-.157-.682-.315-1.025-.456" transform="translate(-34.687 -72.32)" fill="#eaeaea"/>
        <path id="パス_26352" data-name="パス 26352" d="M91.925,91.754q1.244-1.909,2.482-3.859a4.168,4.168,0,0,1-.513-1.318c-.763,1.209-1.5,2.429-2.267,3.6q-.4.611-.8,1.219a8.393,8.393,0,0,1,1.1.353" transform="translate(-60.432 -57.604)" fill="#eaeaea"/>
        <path id="パス_26353" data-name="パス 26353" d="M39.218,100.73a2.291,2.291,0,0,1-.141-.608c-6.09-3.507-13.755-3.081-20.512-1.188a56.944,56.944,0,0,0-9.089,3.131,15.082,15.082,0,0,0-6.256,4.243.483.483,0,0,0,.083.708q1.973,1.326,3.951,2.694a.575.575,0,0,0,.775-.018c1.195-1.507,3.12-2.228,4.949-2.913a45.909,45.909,0,0,1,6.169-1.949q.806-.2,1.623-.36a3.577,3.577,0,0,1,.253-1.2c-.317.063-.632.128-.944.2a47.116,47.116,0,0,0-7.3,2.217c-1.915.717-3.95,1.489-5.309,2.947q-1.52-1.04-3.038-2.055c2.883-3.3,8.133-4.849,12.444-6.048A35.716,35.716,0,0,1,31.709,98.9a17.139,17.139,0,0,1,7.852,2.97,2.612,2.612,0,0,1-.1-.56c-.083-.192-.167-.385-.248-.583" transform="translate(-2.066 -64.867)" fill="#eaeaea"/>
        <path id="パス_26354" data-name="パス 26354" d="M87.611,121.155c-.551.158-1.032-.169-1.47-.705a29.174,29.174,0,0,1,1.966,11.069,43.554,43.554,0,0,1-4.082,17.26q-1.617-1.4-3.232-2.777c3.585-7.9,5.91-18.923.324-27.134-4.335-6.046-11.307-6.911-17.65-5.945.529.292,1.036.672,1.563.991a25.335,25.335,0,0,1,5.678.112,13.494,13.494,0,0,1,8.624,4.43A18.563,18.563,0,0,1,83.4,130.4a35.236,35.236,0,0,1-3.866,15.371.869.869,0,0,0,.31.934q2.1,1.8,4.214,3.648c.287.252.526.143.644-.1a.611.611,0,0,0,.08-.126c3.8-8.332,6.007-19.39,2.833-28.972" transform="translate(-42.227 -74.911)" fill="#eaeaea"/>
        <path id="パス_26355" data-name="パス 26355" d="M124.42,79.89q-1.506-2.446-3.006-4.835a.456.456,0,0,0-.762-.089c-2.3,2.541-5.447,4.4-8.487,3.829a8.219,8.219,0,0,1-4.3-2.893,3.866,3.866,0,0,1-.395,1.4,8.774,8.774,0,0,0,5.046,2.951c3.021.326,6.035-1.277,8.4-3.71q1.151,1.837,2.3,3.707c-3.2,3.321-7.3,5.181-11.4,4.524-2.887-.6-5.518-2.736-7.616-5.221a56.269,56.269,0,0,1-3.771-5.71c-1.864-2.762-3.622-5.212-4.581-8.5a31.3,31.3,0,0,1-1.155-8.27q1.767-.236,3.533-.481c.09,3.826.7,7.8,2.578,10.981.922,1.586,2.081,3.018,3.092,4.573.1.148.189.3.283.452.04-.584.1-1.166.166-1.747-.942-1.362-1.878-2.714-2.694-4.124-1.851-3.148-2.331-7.208-2.377-10.989,0-.242-.254-.493-.464-.461q-2.293.339-4.587.665a.662.662,0,0,0-.6.6,34.144,34.144,0,0,0,1.059,8.744c.971,3.637,2.835,6.314,4.892,9.359a52.973,52.973,0,0,0,4.064,6.057c2.271,2.612,4.98,4.793,8.061,5.455,4.577.77,9.155-1.365,12.639-5.215a.97.97,0,0,0,.073-1.054" transform="translate(-62.298 -36.778)" fill="#eaeaea"/>
      </g>
    </g>
    <text id="Love_Peace" data-name="Love &amp; Peace" transform="translate(78.747 25.882)" fill="#eaeaea" font-size="29" font-family="SegoeUI, Segoe UI"><tspan x="0" y="0">Love &amp; Peace</tspan></text>
    <text id="Rock_Festival" data-name="Rock Festival" transform="translate(78.747 62.91)" fill="#eaeaea" font-size="29" font-family="SegoeUI, Segoe UI"><tspan x="0" y="0">Rock Festival</tspan></text>
  </g>
</svg>
