<svg xmlns="http://www.w3.org/2000/svg" width="233.144" height="76.894" viewBox="0 0 233.144 76.894">
  <g id="グループ_2350" data-name="グループ 2350" transform="translate(0)">
    <path id="パス_24288" data-name="パス 24288" d="M21.9,15.046l-2.044-1.375-1.715,1.772L15.4,14.791l.945,3.379L14.31,20.885l.982,3.242-2.032,2.71.929,3.415-1.14-1.261-1.168,1.222-.2-1.679L10.52,29.757l-.363-1.712-1.8,1.526L6.628,28.042,4.9,29.571,3.18,28.042,1.768,29.505l-1.213.006,1.359,1.1-1.653.57,1.359,1.1L0,33.234l2.292-.684,1.02,1.828,1.776-1.1.924,1.875,1.822-1,.4,1.721,1.312-1.2.42,1.723,1.276-1.23.551,1.7.152-1.517.022,1.529.015-1.529L12,36.874l.772-.638-1.9,2,1.108,2.526-1.9,1.99,1.109,2.521-1.906,2,1.361,2.106L8.986,51.216l1.443,2-1.564,1.91,1.553,1.915-1.37,1.986L10.881,60.6l-.962,2.213L12.022,64l-.513,2.381,2.094.209-.049,2.081,2.036-.419.588,1.994,1.67-1.045,1.864,1.528,1.9-1.529,1.9,1.529L25.4,69.2l1.964,1.526.3-1.708,1.15,1.209.108-1.665,1.148,1.21-.249-1.4,1.507-.21L29.964,67.1l1.646-.531L30.245,65.5l1.274-1.322-1.812,1.465-1.49-1.491-1.408,1.566-1.485-1.49-1.5,1.562.162-1.613-1.155,1.075.5-1.495L22.187,64.84l.638-1.386L20.6,62.843l.536-2.328-2.053-1.224,1.094-2.127L18.469,55.5l1.438-2.074L18.353,51.43l1.573-1.98-1.4-2.1,1.721-1.823-1.227-1.85,1.787-1.33-1.225-1.859,1.787-1.323-1.056-2.219L21.958,38.2l1.066-1.529L24.086,38.2l1.062-1.529,1.492,1.392-1.042-1.6,1.653-.572-1.358-1.1,1.652-.568-1.2-.487-.209-1.416-1.254,1.31-.655-1.689-1.251,1.31L22.93,32.2l-1.017-2.809,2-2.525L22.9,23.814l2-2.521-1.011-3.071,1.433.528-1.07-1.1,1.263.874-1.076-1.1L25.851,18l-1.368-1.035,1.63-.438-1.381-.967,1.63-.436-1.249-.381L23.8,13.476Z" fill="#676767"/>
    <path id="パス_24289" data-name="パス 24289" d="M58.849,34.5l-1.817-1.529-1.155,1.146L53.654,38.18l.7,4.84-2.312,4.306.7,4.833-2.311,4.3,1.246,2.058-1.772,1.6,1.266,2.028-1.753,1.626,1.3,2-1.707,1.646,1.336,1.961-1.705,1.646,1.336,1.953-1.705,1.637.148.811-.293,0,1.456.547-.919.9,1.978-1.52L52.5,76.894l1.86-1.529,1.854,1.529,1.57-1.473,1.3-1.511-1.268-2.469L59.6,69.323l-1.235-2.48,1.829-2.076-1.228-2.222,1.78-1.81-1.277-2.193L61.2,56.694l-1.321-2.216,2.244-3.92-.768-4.441L63.6,42.209l-.771-4.435,2.229-4.229-2.565.957L60.67,32.973Zm7.408-19.666v.044l.157.145.433-1.062ZM61.8,13.165l-1.67-1.529-1.665,1.529L56.568,11.67l.7,1.606L55.61,13.3l1.183,1.159-1.655.017,1.2,1.1-1.857,1.451,1.252,2.05-1.654,1.742,1.544,1.841L54.344,24.87l1.02.546.506-1.349-.337,1.519.865-1.292-.073,1.578,1.558-1.567L59.466,25.8l1.505-1.567,1.577,1.49,1.244-1.514,1.385.369-.849-1.541,1.756.059-.851-1.537,1.837-.125L65.707,19.85l1.655-1.136-1.389-1.446,1.652-1.13-1.211-1.113-.156.382V14.88l-.019-.017.019-.027,0-.988-.581,1.445.463-1.274-1.436.19,1.425-.7-1.581-.135,1.424-.7-1.005.47-1.5-1.508Z" fill="#676767"/>
    <path id="パス_24290" data-name="パス 24290" d="M86.22,71.476,86.1,69.557l-1.821.567.071-1.9-1.871.366.342-1.847-1.976-.207.678-1.893-1.942-.524.965-1.763-1.827-.85,1.251-1.618L78.28,58.735l1.436-1.45L78.187,55.93l1.607-1.209-1.238-1.787,1.777-1.267-1.235-1.8,1.777-1.273-1.233-1.811,1.909-1.447-.965-2.179,2.036-1.237-.746-2.263,2.146-1.023-.365-2.475,2.378-.793.058-2.505,2.479-.379.483-2.471,2.409.225.989-2.2,2.256.844,1.537-1.854L98.2,28.433,99.851,26.9l1.646,1.529,1.65-1.529,1.653,1.529,1.69-1.528,1.234,1.846,1.85-1.074.946,1.918,1.946-.883.719,2.012,1.988-.669.419,2.055,2.056-.409.137,2.093,2.078-.134-.154,2.185,2.01.9L120.4,38.532l1.381,1.726-1.337.714L119,42.469l-1.666-1.529-1.669,1.529-1.672-1.529-1.845,1.509.54-2.186-1.888-.519.67-1.841-1.956.025.1-1.948-1.777.565-.006-1.87-1.735.7-.138-1.865-1.552.862-.483-1.681-1.24,1.28-.545-1.7-1.244,1.28-.645-1.715-.781,1.805-1.627-.894-.065,1.86-1.774-.555.258,1.822-2.377.463.127,2.435-2.3.818.488,2.388-2.142,1.163.812,2.3L88.857,46.82l1,2.226-1.894,1.542,1.193,2.1-1.542,1.191,1.575,1.2-1.4,1.4,1.7,1.018-1.232,1.534,1.782.824-.983,1.713L90.983,62l-.638,1.87,1.944.087-.024,2.047,2.042-.388.447,2.03,1.909-.821,1.1,1.908,1.07-1.963,1.913.882.717-1.979,1.961.776.647-2.013,2.34.78,1.641-1.825,1.994,1.455,2.021-1.407,1.2,1.429,1.27.46-1.636.473,1.375,1.006-1.637.477,1.287,1.253-2.184-.491-.5,1.953-1.854-.791-.518,1.946-1.814-.854-.524,1.847-1.6-1.062-.688,1.8-1.489-1.218-.975,1.716-1.913-1.529-1.892,1.53-1.9-1.53-1.9,1.53-1.881-1.529-1.347,1.32-.814-1.759-1.6,1.1-.534-1.864Z" fill="#676767"/>
    <path id="パス_24291" data-name="パス 24291" d="M119.655,62.575l1.214-.643-.108-.412Zm20.1-56.181-.743.9.6-.856ZM138.941,0l-1.917,1.554L134.988.165l-1.711,1.774-2.706-.694,1.205,2-1.745,1.309,1.279,1.765-1.744,1.3L130.844,9.4,129,11.019l1.175,2.145-1.837,1.613,1.175,2.139L127.686,18.5l.982,2.359-1.989,1.64.977,2.382-1.989,1.637.984,2.351-1.95,2.256,1.057,2.81L123.8,36.208l1.058,2.805L122.9,41.307l1.35,1.789-1.689,1.436,1.354,1.752-1.687,1.43,1.355,1.736-1.615,1.371,1.436,1.575-1.617,1.387,1.437,1.569-1.6,1.284,1.1.995-1.55-.439.984,1.275-1.548-.44,1.07,1.1-1.591.291,1.384.95-1.627.417,1.386.948-.365.194.292,1.117.4-1.529.4,1.529,1.149-.894L121.556,64.4l1.5,2.15-1.562,2.1,1.5,2.147-1.562,2.084.179.7h-.309l.34.123.015.059.1-.016,1,.362-.908.884,1.952-1.521L125.639,75l1.84-1.529L129.315,75l1.621-1.5,1.157-.82-1.373-1.773,1.637-1.522L130.888,67.7l1.518-1.633-1.536-1.232,1.5-1.285-1.563-1.206,1.493-1.293-1.533-1.4,2.066-.767-.622-2.014,2.068-.4-.385-2.071,1.477.12,1.555-.014-.309,2.119,2.131.231-.23,2.13,2.152.166.015,2.422,2.383.353.222,2.4,2.4.156.748,2.544,1.742-1.516,1.6,1.529,1.593-1.529,1.59,1.529,1.278-1.462,1.2.05-1.368-1.046,1.643-.512-1.369-1.042,1.616-.879-2.878-.7-.513-2.635-2.629-.529-.33-2.662-2.581-.729.023-2.473-2.384-.661.152-2.462-2.342-.784.389-1.947.18-2.542,2.755-.954.445-2.886,2.788-.86.531-2.863,2.985-1.112.65-3.125,2.969-1.181.568-3.143,3.012-1.411-1.318-1.168,1.63-.438-1.382-.968,1.63-.435-.945-.133-1.358-1.462-1.671,1.529-1.67-1.529-1.665,1.529-1.942-1.479-1.278,3.9-3.377,1.7-1.07,3.619-3.423,1.6-1.155,3.6-2.717.707-.419,2.77-2.691.761-.364,2.776-1.515.793-1.215-.621,1.643-.844L132.1,41.473l1.641-.841-1.392-1.226,1.821-1.517-1.195-2.032,1.817-1.5-1.2-2.026,1.811-1.467-.984-2.342L136.4,26.9l-.98-2.365,1.985-1.615-.988-2.333,1.994-2.5L137.4,15.031l2-2.522-1.014-3.051,2-2.535-1.269.452.688-1,.392-.125-1.323-.923,1.617.078L139.351,4.26l1.675.078-1.377-.987,1.624-.4-1.389-.93,1.623-.4-1.24-.323Z" fill="#676767"/>
    <path id="パス_24292" data-name="パス 24292" d="M180.185,31.378l1.03,2.407,2.471.068.222,2.465,2.388.641-.3,2.44,2.077.767-.478,2.417,2.167.907-.568,2.275,2.192.965-1.233-.294.654,1.391-.774-1.055-.061-.14-.027.019-.046-.063.034.072-2.044,1.453-2.021-1.658L183.6,47.762l-1.891-1.805L179.359,47.1l-1.451-1.842-2.039,1.158-1.448-1.841-2.031,1.159-1.03-1.607-.813-.85,1.862-.466-.954-1.662,1.859-.462-.946-1.679,1.906-.148-.635-1.755,1.866.072-.511-1.8,1.854.194-.452-1.748,1.75.441-.235-1.789,1.644.736Zm2.956-3.609-1.767-1.529-1.764,1.529-1.759-1.529-1.736,1.528-1.415-1.21-.626,1.841-1.743-.864-.237,1.93-1.9-.468-.662,2.788-2.752.768-.289,2.841-2.615,1.15.153,2.844L161.7,40.8l.555,2.676-2.211,1.6.769,2.621-2.074,1.781,1,2.556-1.881,2,1.282,2.424-1.62,2.212,1.587,2.232-1.278,2.268,1.933,1.745-.813,2.475,2.239,1.332-.306,2.607,1.34,1.585,2.449.044.946,2.258,2.309-.829,1.684,1.837,1.883-1.529,1.862,1.529,1.858-1.529,1.855,1.529,1.821-1.528,1.739,1.132,1.048-1.906,1.966.931.856-2,2.048.731.78-2.154,2.255.406.528-2.232,2.287.162.147-2.055L194.1,67.5l-1.382-.97,1.63-.436-1.382-.968,1.476-1.038-2.887.975-2.243-1.539L187.3,65.34l-2.615-.729-1.145,2.45-2.3-.184-.6,2.237-2.266-.463-.931,2.12-2.034-.9-.9,1.342-.363-1.7L172.788,70.6l.015-1.739-1.644.682.244-2.223-2.124-.576L170,64.664l-1.957-1.005,1.128-1.9-1.78-1.388,1.336-1.815L167.1,57l1.5-1.681-1.476-1.777,1.666-.44-1.324-1.063,1.655-.381L167.8,50.6l1.521-.088.635-.959.792,1.723,1.384-1.3.85,1.7,1.349-1.335,1.3,1.733,1.715-1.322,1.358,1.69,1.673-1.375,1.456,1.649,2.364-1.529,2.355,1.529,2.35-1.529,2.35,1.529,2.35-1.529,1.746,1.4,1.237-1.86,2.09.792.64-2.145,2.44-.081-1.674-1.943,1.154-2.054-1.974-1.279.7-2.248-2.233-.764.4-2.191-2.15-.555.489-2.164-2.122-.652.588-2.17-1.961-.138.468-1.878-1.927.138.207-1.923-1.871.439-.165-1.91-1.753.806-.484-1.868-1.6,1.08-.912-1.769Z" fill="#676767"/>
    <path id="パス_24293" data-name="パス 24293" d="M223.43,15.046l-2.044-1.375-1.715,1.772-2.739-.652.944,3.379-2.031,2.715.981,3.242-2.032,2.71.929,3.415-1.14-1.261-1.168,1.222-.2-1.678-1.164,1.222-.363-1.712-1.8,1.526-1.729-1.529-1.726,1.529-1.722-1.529L203.3,29.505l-1.213.006,1.359,1.1-1.653.57,1.359,1.1-1.62.952,2.292-.684,1.02,1.828,1.775-1.1.925,1.875,1.821-1,.4,1.721,1.312-1.2.42,1.724,1.276-1.231.552,1.7.152-1.517.022,1.529.015-1.529.019,1.529.772-.638-1.9,2,1.108,2.526-1.9,1.99,1.109,2.521-1.906,2,1.36,2.106-1.652,1.834,1.443,2-1.564,1.91,1.553,1.915-1.37,1.986,1.833,1.571-.962,2.213,2.1,1.187-.513,2.381,2.094.209-.049,2.082,2.036-.42.588,1.994,1.671-1.045,1.863,1.528,1.9-1.529,1.9,1.529,1.892-1.529,1.963,1.526.3-1.708,1.151,1.209.107-1.665,1.148,1.21-.249-1.4,1.508-.21L231.5,67.1l1.646-.531L231.779,65.5l1.274-1.322-1.812,1.465-1.49-1.491-1.408,1.566-1.485-1.49-1.5,1.562.162-1.613-1.155,1.075.5-1.495-1.147,1.079.638-1.386-2.223-.611.535-2.328-2.053-1.224,1.1-2.127L220,55.5l1.438-2.074-1.554-1.993,1.573-1.98-1.4-2.1,1.72-1.823-1.226-1.85,1.787-1.33-1.225-1.859,1.787-1.323-1.057-2.219,1.65,1.258,1.066-1.529L225.62,38.2l1.062-1.529,1.492,1.392-1.042-1.6,1.653-.572-1.359-1.1,1.653-.568-1.205-.487-.209-1.416-1.254,1.31-.656-1.689-1.25,1.31-.042-1.054-1.016-2.809,2-2.525-1.014-3.052,2-2.521-1.012-3.071,1.434.528-1.07-1.1,1.263.874-1.076-1.1,1.416.578-1.367-1.035,1.63-.438-1.381-.967,1.629-.436-1.249-.381-1.314-1.27Z" fill="#676767"/>
  </g>
</svg>
