<svg xmlns="http://www.w3.org/2000/svg" viewBox="0 0 574.4 415.65"><defs><style>.cls-1{isolation:isolate;}.cls-2{fill:#84312e;}.cls-3{fill:#c75e21;}.cls-4{fill:#5c1d20;}.cls-5{mix-blend-mode:multiply;opacity:0.4;}.cls-6{fill:#1c7847;}.cls-7{fill:#f39e6e;}.cls-8{fill:#fff;}.cls-9{fill:#57be77;}.cls-10{fill:#231e31;}.cls-11{fill:#290920;}.cls-12{fill:#b2684b;}.cls-13{fill:#e87555;}.cls-14{fill:#ffd054;}.cls-15{fill:#f7eeda;}.cls-16{fill:#ffb554;}.cls-17{fill:#eedbb1;}.cls-18{fill:#a37954;}.cls-19{fill:none;stroke:#eedbb1;stroke-linecap:round;stroke-linejoin:round;stroke-width:1.37px;}.cls-20{fill:#a45757;}.cls-21{fill:#ffda60;}.cls-22{fill:#f18856;}.cls-23{fill:#cf896f;}</style></defs><g class="cls-1"><g id="圖層_2" data-name="圖層 2"><g id="圖層_1-2" data-name="圖層 1"><polygon class="cls-2" points="480.14 98.46 486.69 169.53 464.81 167.48 465.35 103.45 480.14 98.46"/><polygon class="cls-3" points="476.26 163.38 475.75 140.33 490.37 140.33 489.8 167.31 476.26 163.38"/><path class="cls-4" d="M496.7,176.14a15.31,15.31,0,0,1-15.21,15.41c-1.56,0-39.88-.59-41.3-1-6.21-1.94-8-19.71-8-26.64,0-8.52,40.86-3.15,49.26-3.15A15.31,15.31,0,0,1,496.7,176.14Z"/><g class="cls-5"><path class="cls-6" d="M527.15,366.6c0,4.67-34.06,8.46-76.09,8.46S375,371.27,375,366.6s34.07-8.47,76.09-8.47S527.15,361.92,527.15,366.6Z"/></g><path class="cls-7" d="M538.17,56.26s8.09-8.08,10.1-9.32,9.63-3.39,10-2.68-7.08,5.54-7.08,5.54,21.69-2.58,22.64-1.61-13.85,4-13.85,4,14.31-.85,14.44.64-14.32,3.19-14.32,3.19,14,.42,14.28,1.73-14.87,2.5-14.87,2.5,9.1.77,9.28,2-19.68,1-19.68,1l-6.93,2.33Z"/><polygon class="cls-8" points="401.22 365.69 402.1 362.16 367.11 352.37 366.3 355.38 401.22 365.69"/><polygon class="cls-7" points="387.92 342.3 406.72 226.31 429.75 238.42 402.1 362.16 387.92 342.3"/><path class="cls-8" d="M395.48,295.65l-7.56,46.65,14.18,19.86,13.47-60.26C408.87,299.81,402.2,297.65,395.48,295.65Z"/><path class="cls-3" d="M402.1,362.16l2.71-12.09-16.89-7.77-1.36,6.24s-17.71-1-19.45,3.82Z"/><polygon class="cls-8" points="501.11 355.45 499.61 352.14 532.31 336.28 533.64 339.11 501.11 355.45"/><polygon class="cls-7" points="510.05 330.07 475.07 231 452.49 236.39 499.61 352.14 510.05 330.07"/><path class="cls-8" d="M476.3,294.89l23.31,57.25L510,330.07l-15.73-44.56C488.27,288.56,482.3,291.75,476.3,294.89Z"/><path class="cls-3" d="M499.61,352.14l-4.81-11.42L510,330.07l2.44,5.9s17.26-4.12,19.83.31Z"/><polygon class="cls-2" points="454.07 240.27 483.37 233.56 468.23 181.73 411.24 178.7 397.5 232.13 429.75 238.42 438.76 200.38 454.07 240.27"/><path class="cls-4" d="M480.14,234.3l-1.34.3c-5.18-15.38-10.13-30.72-14.05-42.94a10.51,10.51,0,0,1-1.13-1.08c-2.29-2.54-3.29-6-3.77-9.29l1.4.07c.47,3,1.39,6.08,3.39,8.3a16.42,16.42,0,0,0,7.12,4.18l.46,1.55a24,24,0,0,1-5.6-2.38C470.46,205,475.2,219.61,480.14,234.3Zm-63.08-48.65a28.05,28.05,0,0,0,3.46-6.45l-1.43-.08a26.27,26.27,0,0,1-11.33,13.11l-.47,1.81A28,28,0,0,0,417.06,185.65Zm22.6,17.08.26.43-.08-2.65a150.12,150.12,0,0,1,.66-20.25l-1.35-.07a147.71,147.71,0,0,0-.75,17.41,27.72,27.72,0,0,1-1.75-17.55l-1.37-.07a29.15,29.15,0,0,0,.18,13.3c-2.12,8.55-4.44,17.21-6.7,25.6-1.62,6-3.28,12.22-4.87,18.4l1.35.26c1.58-6.14,3.24-12.3,4.85-18.31,2.06-7.66,4.17-15.55,6.14-23.39a27.73,27.73,0,0,0,2.33,5l.06.09"/><path class="cls-8" d="M412.21,173.47l-1,5.23s34.84,6.76,57,3l-.31-4.95Z"/><path class="cls-9" d="M540.54,68.51v0l-6.74-12.63a3.9,3.9,0,0,0-5.27-2.15L452.44,88.49l-19.33,1.68-.05,0-50.3-54.55a5.47,5.47,0,0,0-7.13-.8l-.16.12-11.4,8.66a5.46,5.46,0,0,0-.44,7.39l52.2,61.36L410.38,163l-1.05,6.15a3.81,3.81,0,0,0,2.88,4.34c8.35,2,32.58,6,55.71,3.31a4.43,4.43,0,0,0,3.92-4.48l-1.14-59.76,68-39A3.89,3.89,0,0,0,540.54,68.51Z"/><path class="cls-3" d="M454.53,87.54l7.52-3.46s.76,35.63,9.14,54.3l.25,12.71S455,136.9,454.53,87.54Z"/><path class="cls-3" d="M428.51,85.26h0c-6.39,7.94-12,27.52-12.68,27.12l-3.22,32.77,19.95-55.5Z"/><path class="cls-8" d="M436,84.06a5.66,5.66,0,0,0-3.61,3.48c-1,2.29-2.8,14.73-.44,15.65,2.51,1,9.43-9,9.43-9s7.78,10.15,9.76,9.87,7.12-17.86.76-20.14C447.5,82.36,436,84.06,436,84.06Z"/><path class="cls-10" d="M447.18,32.34a26.17,26.17,0,0,1-6.91-17.12,22.49,22.49,0,0,0,6.45,10.38,76.88,76.88,0,0,0,6.65,4.8,19,19,0,0,1,5.73,5.79,8.56,8.56,0,0,1,.58,7.87c2.49,0,4.58,2.11,5.28,4.49a9.56,9.56,0,0,1-1.08,7.18c-2.62,4.78-5.72,6.89-11.14,6.39,3.27-4,3.51-7.46,3.9-12.62A16.32,16.32,0,0,0,454.11,40C452.4,37.2,449.44,34.77,447.18,32.34Z"/><path class="cls-10" d="M431.32,39.55c-3.26,4.41-5.87,8.08-9,12.6.62-6.22,1.62-10.53,5.74-16.53A9.83,9.83,0,0,0,431.32,39.55Z"/><path class="cls-10" d="M449.38,69.21a4.67,4.67,0,0,0,3.95,4,15.47,15.47,0,0,0-.48-4.69,2,2,0,0,0-.8-1.29,1.43,1.43,0,0,0-1.66.36C450,68,449.32,68.61,449.38,69.21Z"/><path class="cls-7" d="M450.23,84.59l.49-15.88s7.34,5.49,10.16-1c2.51-5.83-3.88-8.39-7.93-6.58,0,0,12.41-19.16-5.22-26.68s-25.8,17.31-27.81,23.3c-3.54,10.57,2.43,18.1,7.76,20.4l7.42,1.13S435,83,435,84.35c-.07,3.05-.75,5.83,4.17,7.72l.21.08A8.2,8.2,0,0,0,450.23,84.59Z"/><path class="cls-10" d="M442.51,55.82a2.05,2.05,0,1,1-1.68-2.37A2.06,2.06,0,0,1,442.51,55.82Z"/><path class="cls-10" d="M432.43,53.07a2,2,0,1,1-1.67-2.37A2.06,2.06,0,0,1,432.43,53.07Z"/><path class="cls-11" d="M432.4,61.37a.55.55,0,0,0,.42-1c-.9-.52-1.31-1-1.37-1.49-.1-.81.65-2,2.18-3.47a.55.55,0,0,0,0-.78.56.56,0,0,0-.78,0c-1.86,1.78-2.66,3.18-2.52,4.4a3.28,3.28,0,0,0,1.92,2.31A.38.38,0,0,0,432.4,61.37Z"/><path class="cls-11" d="M430.47,64.15h0a7.69,7.69,0,0,0,5.37-.6.56.56,0,0,0,.24-.74.54.54,0,0,0-.74-.24,6.53,6.53,0,0,1-4.59.51.55.55,0,1,0-.29,1.06Z"/><path class="cls-11" d="M453,66.37a.55.55,0,0,0,.65-.32,2.94,2.94,0,0,1,4.68-1,.55.55,0,0,0,.78,0,.56.56,0,0,0,0-.78,4,4,0,0,0-6.44,1.44.56.56,0,0,0,.3.72Z"/><path class="cls-11" d="M455.61,66.53a.54.54,0,0,0,.66-.71l-.67-1.9a.55.55,0,0,0-1,.36l.68,1.9A.52.52,0,0,0,455.61,66.53Z"/><path class="cls-11" d="M446.71,50.39a.65.65,0,0,0,.67-1,7.2,7.2,0,0,0-6.66-2.42.65.65,0,1,0,.22,1.28,5.93,5.93,0,0,1,5.45,2A.57.57,0,0,0,446.71,50.39Z"/><path class="cls-11" d="M435.09,47.1a.65.65,0,0,0,.74-.93A5.22,5.22,0,0,0,429.22,44a.65.65,0,0,0-.31.86.64.64,0,0,0,.85.31,4,4,0,0,1,4.93,1.65A.64.64,0,0,0,435.09,47.1Z"/><path class="cls-12" d="M444.38,74.61S435,78.31,430,78.47l5.1.77s0,1.21-.06,2.5C442.18,79.66,444.38,74.61,444.38,74.61Z"/><path class="cls-13" d="M438.49,62.66a3,3,0,1,0,3-2.91A3,3,0,0,0,438.49,62.66Z"/><path class="cls-13" d="M421.43,58.07a3,3,0,1,0,3-2.91A3,3,0,0,0,421.43,58.07Z"/><path class="cls-8" d="M533.79,55.85s6-4.1,7.27-2.43l4.69,11c.25,2.26-1.73,2.42-5.22,4.09Z"/><path class="cls-7" d="M371.32,33.51s-4-10.72-5.28-12.68-7.34-7.1-8-6.61,4.12,8,4.12,8-18.63-11.41-19.9-10.92,10.89,9.46,10.89,9.46S340.56,14,339.82,15.29s11.68,8.88,11.68,8.88-12.94-5.48-13.7-4.39,12.46,8.49,12.46,8.49-8.58-3.11-9.26-2.06,17.47,9.11,17.47,9.11l5.32,5Z"/><path class="cls-8" d="M375.47,35s-3.73-6.23-5.59-5.25l-8.84,8c-1.18,1.94.55,2.91,3,5.89Z"/><path class="cls-10" d="M417.66,27.89a34.16,34.16,0,0,0,31.4,17.72A16.28,16.28,0,0,0,451,56s-5.18,8.15-3.24,8.9,5.48-3.78,7.06-4.34,6.57-11.21,2.5-19.22-16.55-14.12-22.6-21.12Z"/><path class="cls-8" d="M486.88,72.74,479.71,76a245,245,0,0,0,10.74,25.2l8.25-4.73A148.06,148.06,0,0,1,486.88,72.74Z"/><path class="cls-8" d="M399.52,93.22a252.44,252.44,0,0,1,19.82-17.9l-5.78-6.27A251.79,251.79,0,0,0,394,86.67Z"/><g class="cls-5"><ellipse class="cls-6" cx="170.73" cy="365.15" rx="32.64" ry="3.63"/></g><path class="cls-7" d="M66,60.22s-8.09-8.08-10.09-9.31-9.64-3.39-10-2.68S53,53.76,53,53.76s-21.7-2.57-22.65-1.61S44.19,56.2,44.19,56.2s-14.3-.85-14.44.63S44.07,60,44.07,60s-14,.43-14.28,1.74,14.87,2.5,14.87,2.5-9.1.76-9.28,2,19.69,1,19.69,1L62,69.56Z"/><path class="cls-7" d="M273.9,35.24s5.69-9.92,7.29-11.63,8.41-5.8,8.94-5.21-5.39,7.2-5.39,7.2,20.26-8.18,21.43-7.5-12.3,7.54-12.3,7.54,13.58-4.58,14.1-3.18-13,6.84-13,6.84,13.66-3.27,14.23-2.08-13.69,6.32-13.69,6.32,9-1.65,9.48-.51-18.74,6.12-18.74,6.12l-6.07,4.06Z"/><polygon class="cls-7" points="59.47 245.73 22.1 279 20.99 288.76 28.37 292.54 71.89 261.57 59.47 245.73"/><path class="cls-7" d="M162,302.87l.56,35.2,16.29-1.19,3.33-33.33S169.06,302.12,162,302.87Z"/><path class="cls-14" d="M66,240.38s-1.93-7.7,3.94-11.14,10.16,1,10.43-7,6-11.16,12.54-10.67l45.57-36.16,55.6,9.37s-4.43,77.85-5.71,92.67.89,16.41-5.22,16.92l-21.65.27c-6.55-1.2-6.66-2.9-3.3-13.32s-4.22-6.84-2.5-17.13,3.29-17.94,4.06-26.43.64-39.15.64-39.15l-81,58.13Z"/><path class="cls-15" d="M33.58,268.78,22.1,279,21,288.76l7.38,3.78,14.4-10.25A104.4,104.4,0,0,1,33.58,268.78Z"/><polygon class="cls-15" points="21.88 299.05 23.97 297.06 1.89 269.73 0 271.92 21.88 299.05"/><path class="cls-3" d="M24,297.06l4.4-4.52s-5.28-3.93-6.26-5.44c-1.32-2,0-8.1,0-8.1s-16-12.23-20.21-9.27Z"/><path class="cls-15" d="M178.89,336.88l-1.82,15.35-7,6.93-7.54-3.43,0-17.66A103.9,103.9,0,0,0,178.89,336.88Z"/><polygon class="cls-15" points="161.49 364.85 161.75 361.98 197.83 362.31 197.29 365.15 161.49 364.85"/><path class="cls-3" d="M161.75,362l.82-6.25s6.36,1.68,8.14,1.52c2.4-.21,6.36-5,6.36-5s20.49,5,20.76,10.08Z"/><polygon class="cls-16" points="59.47 245.73 71.89 261.57 79.41 256.73 65.98 240.38 59.47 245.73"/><polygon class="cls-16" points="161.48 294.63 162.04 302.87 182.22 303.55 183.13 294.36 161.48 294.63"/><path class="cls-16" d="M146,176.67c-3.81,2.89-7.64,5.83-11.53,8.88,3.81,1.35,9.72-2.08,12-4a32,32,0,0,0,3.92-4.13l1.56.26a34.38,34.38,0,0,1-4.59,4.91c-2.15,1.83-6.91,4.64-11,4.64a6.68,6.68,0,0,1-3.11-.71c-21.26,16.73-43.57,35.79-65.56,56l-.88-1.07c26.08-24,52.62-46.31,77.3-65.09Zm14.36,23.46.54-.3a22.51,22.51,0,0,0,4.58-3.36c.08,17.61-.28,35.29-.63,52.41-.31,14.94-.62,30.32-.63,45.71h1.37c0-15.38.32-30.74.63-45.67.37-17.57.74-35.74.63-53.82a32.85,32.85,0,0,0,4.74-6.7,39.58,39.58,0,0,0,3.18-6.87l-1.37-.23a40.68,40.68,0,0,1-3,6.45,28.57,28.57,0,0,1-8,9.51c2.78-5.4,5.14-10.93,7.42-16.56l-1.39-.23a180.73,180.73,0,0,1-8.44,18.4m33.15,1.52a27.3,27.3,0,0,1-5.47-16.68l-1.36-.23a28.75,28.75,0,0,0,6.71,19C193.09,201.74,193.13,201.05,193.17,200.38Z"/><polygon class="cls-16" points="138.46 175.4 140.57 169.3 195 179.75 194.06 184.77 138.46 175.4"/><polygon class="cls-17" points="265.65 37.91 273.18 30.84 284.52 42.81 276.52 49.37 265.65 37.91"/><polygon class="cls-17" points="73.47 61.35 64.64 56.78 59.91 71.02 67.58 74.57 73.47 61.35"/><path class="cls-18" d="M140,79.07c.61,3.38,57.19,9.8,60.54,10.56s6.83-1.09,9.22-3.58A14.75,14.75,0,0,0,214,77.4c.61-6.29-4.9-12.45-11.44-12.05-1.57.1-59.9-10.13-59.9-10.13C139,58.74,139.29,75.13,140,79.07Z"/><path class="cls-14" d="M131.77,71.77c.61,3.38,3,6.61,6.34,7.37s6.83-1.09,9.22-3.57a14.81,14.81,0,0,0,4.22-8.66c.61-6.28-4.9-12.45-11.44-12S130.85,66.61,131.77,71.77Z"/><path class="cls-2" d="M201.88,80.58l-57.24-7.65s-16.5,57.25-20.43,88.11l29,5.75Z"/><polygon class="cls-4" points="141.32 134.34 120.59 130.84 118.8 164.03 140.57 169.3 141.32 134.34"/><path class="cls-8" d="M140.57,169.3s-6.6-3.56-4.16-13.79,10.81-46.94,10.81-46.94L70.08,80.41a4.33,4.33,0,0,1-2.5-5.84l.48-1.09L72.82,62.8l.65-1.45a4.33,4.33,0,0,1,5.13-2.41l88.81,25.14,26,2.51,66.42-49.12a4.32,4.32,0,0,1,5.8.44l.76.79,10.11,10.67h0a4.33,4.33,0,0,1-.37,6.31l-65,54.18s-6.28,58.63-7.71,63.82-8.45,6.07-8.45,6.07Z"/><path class="cls-10" d="M157.52,48.23A23,23,0,0,1,198,31.12c3.79,4.58,5.67,10.49,6.4,16.38.88,7.15-.24,15.31-5.85,19.82a18.18,18.18,0,0,1-11.13,3.55C173.92,71.08,159,62.91,157.52,48.23Z"/><path class="cls-10" d="M160.67,37.85a5.94,5.94,0,0,0-10.34-5.08c.8-5.21-2.23-11.56-7.24-13.16a11.56,11.56,0,0,0-13.4,5.6,8.41,8.41,0,0,0-8.94.13A8,8,0,0,0,124,39.63c-2.39,4.37-.65,10.28,3.38,13.19A10.68,10.68,0,0,0,141,51.49c-1.05,2.7-1.09,6,.63,8.33a8.88,8.88,0,0,0,7.57,3.55c4.19-.27,11.1-.73,13.2-4.37C165.68,53.37,159.3,44.22,160.67,37.85Z"/><path class="cls-10" d="M178.25,26.53a10.07,10.07,0,0,1-2.52-5.32,6.89,6.89,0,0,1,1.72-5.52,5.24,5.24,0,0,1,5.47-1.35,9.59,9.59,0,0,1,.55-9.49A11.81,11.81,0,0,1,192.11,0,14.22,14.22,0,0,1,201.67,3c3.44-2.22,8.86-2,11.78.85a9.38,9.38,0,0,1,1.33,11.29c2.38,2.54,1.65,7.54-.63,10.17s-6,3.66-9.47,3.39c.58,2.44-1.58,5.23-3.86,6.25a12.48,12.48,0,0,1-7.39.4,20.72,20.72,0,0,1-8.67-3.45C182.24,30,178.55,29.65,178.25,26.53Z"/><path class="cls-7" d="M175.81,85l-3.42-22.1s-7.75,4.9-10-1.84c-2-6,4.53-8.05,8.43-5.93,0,0-10.86-20.08,7.3-26.18S202.43,48.26,204,54.4c2.69,10.81-3.86,17.85-9.35,19.72l-4.54.47s.59,5.71,1,7.57.91,5.91-4.5,7.42C179.37,91.6,175.81,85,175.81,85Z"/><path class="cls-10" d="M181.59,50.73a2,2,0,1,0,1.86-2.23A2.05,2.05,0,0,0,181.59,50.73Z"/><path class="cls-10" d="M191.85,48.79a2.05,2.05,0,1,0,1.86-2.23A2.06,2.06,0,0,0,191.85,48.79Z"/><path class="cls-11" d="M191.23,57.06a.55.55,0,0,1-.34-1c.94-.45,1.38-.86,1.49-1.38.16-.8-.5-2.06-1.91-3.63a.55.55,0,0,1,.05-.78.56.56,0,0,1,.78.05c1.71,1.92,2.4,3.37,2.15,4.58A3.25,3.25,0,0,1,191.36,57,.35.35,0,0,1,191.23,57.06Z"/><path class="cls-11" d="M192.93,60h0a7.66,7.66,0,0,1-5.31-1,.55.55,0,0,1,.58-.94,6.49,6.49,0,0,0,4.53.87.55.55,0,0,1,.2,1.09Z"/><path class="cls-11" d="M170.35,60.42a.54.54,0,0,1-.62-.36,3,3,0,0,0-1.93-1.9,3,3,0,0,0-2.66.49.55.55,0,0,1-.67-.88,4,4,0,0,1,6.3,1.94.55.55,0,0,1-.35.7Z"/><path class="cls-11" d="M167.68,60.37a.59.59,0,0,1-.32,0,.55.55,0,0,1-.28-.73l.82-1.84a.55.55,0,1,1,1,.44l-.82,1.85A.53.53,0,0,1,167.68,60.37Z"/><path class="cls-11" d="M177.83,45a.67.67,0,0,1-.58-.18.65.65,0,0,1,0-.91A7.16,7.16,0,0,1,184.08,42a.65.65,0,0,1,.46.79.65.65,0,0,1-.79.46,5.93,5.93,0,0,0-5.58,1.54A.73.73,0,0,1,177.83,45Z"/><path class="cls-11" d="M189.68,42.62a.65.65,0,0,1-.67-1A5.21,5.21,0,0,1,195.77,40a.64.64,0,1,1-.63,1.12,4,4,0,0,0-5,1.25A.62.62,0,0,1,189.68,42.62Z"/><path class="cls-12" d="M190.07,74.59l2.06-.21c-4.71-.29-12.51-3.53-12.51-3.53a13.42,13.42,0,0,0,10.69,5.89C190.17,75.52,190.07,74.59,190.07,74.59Z"/><path class="cls-13" d="M185.05,57.86a3,3,0,1,1-2.75-3.14A2.95,2.95,0,0,1,185.05,57.86Z"/><path class="cls-13" d="M202.42,54.64a3,3,0,1,1-2.75-3.14A2.95,2.95,0,0,1,202.42,54.64Z"/><path class="cls-10" d="M170.77,55.16c1.44,1,4.48,9.91,5.19,8.87S172,47.39,172,47.39s6.43-7.09,6-13.21c0,0,10,14,24,9.65,0,0-8.44-24-26.48-16.74s-12.19,23.3-12.19,23.3Z"/><path class="cls-15" d="M171.26,27.94c-12.54,9.45-2.55,23.8-2.55,23.8s-4.76-9.56,4.27-19c7.8-8.14,20-6.29,24.88-1.53C194.62,27.81,183.92,18.41,171.26,27.94Z"/><path class="cls-8" d="M167.41,84.08s.09-8.94,2-9.51,22,1.2,24.34,2.12.75,11.66.75,11.66-5.9,3.73-12.36,3.36S167.41,84.08,167.41,84.08Z"/><path class="cls-19" d="M165.17,112.24a64,64,0,0,0,28,38.47"/><path class="cls-19" d="M168.65,85.55A40.55,40.55,0,0,0,193.38,87"/><path class="cls-2" d="M158.46,79.36s-5.32,44.34-23.83,63.93l2.91,7.42s22-13.39,29.87-66.63Z"/><path class="cls-2" d="M194.79,85.55s15.44,27.87,12.78,56.63l3.59-32.32s1.12-16.29-9.56-29.32L198,82.39Z"/><path class="cls-20" d="M275.66,368.31s-50.94,13.92-56.51,17.89-2.79,29.45,11.94,29.45,68-40.57,68-40.57,61.28,9.51,71.23,8.53,12.73-26.06,4.77-32.82-76.49,6.65-76.49,6.65S227.8,339,222.33,337.73c-8.36-2-13.13,27.35-5.85,29C227.38,369.15,275.66,368.31,275.66,368.31Z"/><path class="cls-21" d="M295.81,365c-27.3,1.58-46.06-13-53.25-35.28s-1.44-47.24,6.23-61.64,15.84-17.75,16.32-10.07,1.92,24,5.27,27.82,12-3.83,13.44-26.39-1.44-43.66,1.92-45.1S297.25,220.6,303,240s5.28,42.92,12.48,43.39,8.15-19.67,12.47-21.11,18.23,18.26,16.79,49S320.76,363.52,295.81,365Z"/><path class="cls-22" d="M295.55,360.58c-15.51,2.05-28.8-11.88-31.46-28.71s5.32-35,8.42-30.58,7.09,30.19,13.29,28.39,4.88-52.75,9.75-53.19,19.05,24.4,19.94,42.16S311.54,358.47,295.55,360.58Z"/><path class="cls-21" d="M324.26,225.85c-3.25-1.56.32,8.64,1.61,17.37s5.82,6.46,6.47,0S328.46,227.87,324.26,225.85Z"/><path class="cls-23" d="M219.69,389c1.87-1.88,5.49,1.89,9.22,9.25,2.85,5.62,4.73,12.54,2.19,15.14s-9.25-4.91-11.41-10.67C217.86,397.81,217.54,391.11,219.69,389Z"/></g></g></g></svg>