<svg xmlns="http://www.w3.org/2000/svg" xmlns:xlink="http://www.w3.org/1999/xlink" viewBox="0 0 1801.22 589.71"><defs><style>.cls-1{isolation:isolate;}.cls-2{fill:url(#linear-gradient);}.cls-3{fill:url(#linear-gradient-2);}.cls-4{fill:url(#linear-gradient-3);}.cls-5{fill:url(#linear-gradient-4);}.cls-6{fill:url(#linear-gradient-5);}.cls-7{fill:url(#linear-gradient-6);}.cls-8{fill:url(#linear-gradient-7);}.cls-11,.cls-17,.cls-20,.cls-9{fill:#1d2088;}.cls-49,.cls-9{opacity:0.4;}.cls-10{fill:url(#linear-gradient-8);}.cls-12{fill:url(#linear-gradient-9);}.cls-13{fill:url(#linear-gradient-10);}.cls-14{fill:url(#linear-gradient-11);}.cls-15{fill:url(#linear-gradient-12);}.cls-16{fill:url(#linear-gradient-13);}.cls-17{opacity:0.64;}.cls-18{fill:url(#linear-gradient-14);}.cls-19{fill:url(#linear-gradient-15);}.cls-20{opacity:0.66;}.cls-21{fill:url(#linear-gradient-16);}.cls-22{fill:url(#linear-gradient-17);}.cls-23{fill:url(#linear-gradient-18);}.cls-24{fill:url(#linear-gradient-19);}.cls-25{fill:url(#linear-gradient-20);}.cls-26{fill:#151c51;opacity:0.52;}.cls-27{fill:url(#linear-gradient-21);}.cls-28{fill:url(#linear-gradient-22);}.cls-29{fill:url(#linear-gradient-23);}.cls-30{fill:url(#linear-gradient-24);}.cls-31{fill:#1c7847;}.cls-32{fill:#1f141c;}.cls-33{fill:#0d442d;}.cls-34{fill:#ffd054;}.cls-35{fill:#d48d52;}.cls-36,.cls-42{fill:#fff;}.cls-37{fill:url(#linear-gradient-25);}.cls-38{fill:url(#linear-gradient-26);}.cls-39{fill:url(#linear-gradient-27);}.cls-40{fill:url(#linear-gradient-28);}.cls-41{fill:url(#linear-gradient-29);}.cls-42{font-size:39.08px;font-family:Mushin-83pv-RKSJ-H, Mushin;letter-spacing:0.2em;}.cls-43{fill:#78a531;}.cls-44{fill:#518f3d;}.cls-45,.cls-60{fill:none;stroke-linecap:round;stroke-linejoin:round;}.cls-45{stroke:#78a531;stroke-width:2.06px;}.cls-46{fill:#84312e;}.cls-47{fill:#c75e21;}.cls-48{fill:#5c1d20;}.cls-49{mix-blend-mode:multiply;}.cls-50{fill:#f39e6e;}.cls-51{fill:#57be77;}.cls-52{fill:#231e31;}.cls-53{fill:#290920;}.cls-54{fill:#b2684b;}.cls-55{fill:#e87555;}.cls-56{fill:#f7eeda;}.cls-57{fill:#ffb554;}.cls-58{fill:#eedbb1;}.cls-59{fill:#a37954;}.cls-60{stroke:#eedbb1;stroke-width:1.37px;}.cls-61{fill:#a45757;}.cls-62{fill:#ffda60;}.cls-63{fill:#f18856;}.cls-64{fill:#cf896f;}</style><linearGradient id="linear-gradient" x1="-3194.55" y1="-2738.58" x2="-3287.22" y2="-3046.1" gradientTransform="translate(4828.35 696.06) rotate(-34.89)" gradientUnits="userSpaceOnUse"><stop offset="0" stop-color="#1d2088"/><stop offset="0.28" stop-color="#34509d"/><stop offset="0.99" stop-color="#6ec6d1"/></linearGradient><linearGradient id="linear-gradient-2" x1="-3350.16" y1="-2753.75" x2="-3439.91" y2="-3051.59" xlink:href="#linear-gradient"/><linearGradient id="linear-gradient-3" x1="10828.94" y1="-2699.35" x2="10733.42" y2="-3016.35" gradientTransform="matrix(-0.82, 0.57, 0.57, 0.82, 10916.72, -3550.27)" gradientUnits="userSpaceOnUse"><stop offset="0" stop-color="#1d2088"/><stop offset="0.28" stop-color="#4550a4"/><stop offset="0.99" stop-color="#a7c6e8"/></linearGradient><linearGradient id="linear-gradient-4" x1="825.61" y1="597.16" x2="825.61" y2="418.62" gradientUnits="userSpaceOnUse"><stop offset="0" stop-color="#050f05"/><stop offset="0.1" stop-color="#071112"/><stop offset="1" stop-color="#1d2088"/></linearGradient><linearGradient id="linear-gradient-5" x1="6613.62" y1="580.82" x2="6518.1" y2="263.81" gradientTransform="matrix(-1, 0, 0, 1, 7422.91, 0)" xlink:href="#linear-gradient-3"/><linearGradient id="linear-gradient-6" x1="6539.44" y1="532.34" x2="6443.92" y2="215.34" gradientTransform="matrix(-1, 0, 0, 1, 7422.91, 0)" xlink:href="#linear-gradient"/><linearGradient id="linear-gradient-7" x1="854" y1="600.7" x2="870.28" y2="379.03" gradientUnits="userSpaceOnUse"><stop offset="0" stop-color="#527586"/><stop offset="1" stop-color="#7e77b6"/></linearGradient><linearGradient id="linear-gradient-8" x1="418.61" y1="-923.11" x2="360.43" y2="-1021.37" gradientTransform="matrix(1.12, -0.38, 0.18, 1.02, 451.22, 1632.56)" gradientUnits="userSpaceOnUse"><stop offset="0" stop-color="#1d2088"/><stop offset="0.28" stop-color="#34509d"/><stop offset="1" stop-color="#6ec6d1"/></linearGradient><linearGradient id="linear-gradient-9" x1="4469.41" y1="1163.04" x2="4397.19" y2="1041.06" gradientTransform="matrix(1.07, 0.5, -0.57, 0.87, -3367.82, -2706.01)" xlink:href="#linear-gradient-8"/><linearGradient id="linear-gradient-10" x1="8404.78" y1="-461.72" x2="8332.55" y2="-583.72" gradientTransform="matrix(0.42, 1.11, -1.02, 0.22, -3081.7, -8665.59)" xlink:href="#linear-gradient-8"/><linearGradient id="linear-gradient-11" x1="1096.83" y1="616.6" x2="1096.83" y2="373.89" xlink:href="#linear-gradient-4"/><linearGradient id="linear-gradient-12" x1="1143.4" y1="506.55" x2="1047.87" y2="189.54" gradientTransform="matrix(1, 0, 0, 1, 0, 0)" xlink:href="#linear-gradient-3"/><linearGradient id="linear-gradient-13" x1="1069.51" y1="454.6" x2="1013.89" y2="233.99" gradientUnits="userSpaceOnUse"><stop offset="0" stop-color="#151c51"/><stop offset="1" stop-color="#7e77b6"/></linearGradient><linearGradient id="linear-gradient-14" x1="1112.68" y1="461.66" x2="1145.38" y2="112.45" gradientUnits="userSpaceOnUse"><stop offset="0" stop-color="#1d2088"/><stop offset="0.04" stop-color="#21258b"/><stop offset="1" stop-color="#789bcd"/></linearGradient><linearGradient id="linear-gradient-15" x1="1106.25" y1="516.49" x2="1227.05" y2="267.33" gradientTransform="matrix(1, 0, 0, 1, 0, 0)" xlink:href="#linear-gradient-8"/><linearGradient id="linear-gradient-16" x1="6988.13" y1="527.83" x2="7152.81" y2="527.83" gradientTransform="matrix(-1, -0.03, -0.03, 1, 8117.27, 83.71)" xlink:href="#linear-gradient-8"/><linearGradient id="linear-gradient-17" x1="8766.67" y1="-861.98" x2="8708.49" y2="-960.25" gradientTransform="matrix(0.33, 1.14, -1.03, 0.14, -2553.14, -9432.6)" xlink:href="#linear-gradient-8"/><linearGradient id="linear-gradient-18" x1="3542.11" y1="744.85" x2="3469.89" y2="622.86" gradientTransform="matrix(1.15, 0.27, -0.39, 0.97, -2684.11, -1242.23)" gradientUnits="userSpaceOnUse"><stop offset="0" stop-color="#1d2088"/><stop offset="1" stop-color="#7e77b6"/></linearGradient><linearGradient id="linear-gradient-19" x1="588.4" y1="615.1" x2="588.4" y2="378.86" xlink:href="#linear-gradient-4"/><linearGradient id="linear-gradient-20" x1="363.31" y1="572.49" x2="498.26" y2="314.73" gradientUnits="userSpaceOnUse"><stop offset="0" stop-color="#151c51"/><stop offset="1" stop-color="#00539c"/></linearGradient><linearGradient id="linear-gradient-21" x1="3599.9" y1="1469.67" x2="3553.6" y2="1286" gradientTransform="matrix(0.89, 0.46, -0.46, 0.89, -2008.61, -2402.41)" xlink:href="#linear-gradient-13"/><linearGradient id="linear-gradient-22" x1="1461.92" y1="830.93" x2="1494.62" y2="481.73" gradientTransform="translate(-654.13 -529.62) rotate(7.35)" xlink:href="#linear-gradient-8"/><linearGradient id="linear-gradient-23" x1="498" y1="512.55" x2="677.14" y2="380.65" gradientTransform="matrix(1, 0, 0, 1, 0, 0)" xlink:href="#linear-gradient-8"/><linearGradient id="linear-gradient-24" x1="-424.58" y1="-152.38" x2="-259.9" y2="-152.38" gradientTransform="matrix(0.99, -0.15, 0.15, 0.99, 846.98, 517.81)" xlink:href="#linear-gradient-14"/><linearGradient id="linear-gradient-25" x1="6415.61" y1="499.81" x2="6322.94" y2="192.28" gradientTransform="translate(-3468.25 -3478.33) rotate(34.31)" xlink:href="#linear-gradient"/><linearGradient id="linear-gradient-26" x1="1456.05" y1="553.16" x2="1354.1" y2="329.54" xlink:href="#linear-gradient-4"/><linearGradient id="linear-gradient-27" x1="175.3" y1="546.57" x2="136.93" y2="298.09" xlink:href="#linear-gradient-13"/><linearGradient id="linear-gradient-28" x1="149.2" y1="546.64" x2="53.16" y2="407.42" gradientTransform="matrix(1, 0, 0, 1, 0, 0)" xlink:href="#linear-gradient-8"/><linearGradient id="linear-gradient-29" x1="4054.99" y1="1397.63" x2="3982.77" y2="1275.64" gradientTransform="matrix(1.07, 0.5, -0.57, 0.87, -3367.82, -2706.01)" xlink:href="#linear-gradient-18"/></defs><g class="cls-1"><g id="圖層_2" data-name="圖層 2"><g id="圖層_1-2" data-name="圖層 1"><path class="cls-2" d="M623.12,303.87q-34.49-27.22-66.73-57.14-10.56-9.78-20.82-19.9a1.15,1.15,0,0,1-.13.56c-.82,1.52-6.61,2.81-8.25,3.42-2.8,1-5.63,2-8.5,2.8a43.9,43.9,0,0,1-13.89,2.15c-4.69-.19-9.48-1.73-12.85-5s-5.07-8.45-3.5-12.89c2.08-5.88,9.13-8.77,15.34-8.11s11.75,4,17.07,7.27l8.91,5.47c.73.45,2,1,3.11,1.65q-15.33-15.27-29.76-31.4a.85.85,0,0,1-.15.3c-.87,1.26-6.13,1.85-7.64,2.23-2.58.64-5.19,1.21-7.81,1.65a39.28,39.28,0,0,1-12.51.55,17.44,17.44,0,0,1-10.91-5.69c-2.67-3.24-3.66-8-1.84-11.77,2.41-5,8.95-6.88,14.38-5.69s10,4.69,14.42,8.11l7.37,5.71c.39.31,1,.68,1.59,1.09q-12.86-14.61-24.8-30c-1.26,1-5.57,1.51-6.89,1.84-2.41.61-4.85,1.14-7.31,1.55a36.72,36.72,0,0,1-11.73.52,16.37,16.37,0,0,1-10.22-5.34c-2.5-3-3.43-7.49-1.72-11,2.26-4.69,8.38-6.44,13.48-5.33s9.39,4.4,13.51,7.6l6.9,5.36c.17.13.38.28.62.44q-7.67-10.1-14.89-20.53a483.74,483.74,0,0,1-35.89-60.79q-1.72-3.51-3.43-7.07a29,29,0,0,1-4.2-.2c-1.64-.06-3.29-.16-4.93-.34A24.43,24.43,0,0,1,401,64.14a10.83,10.83,0,0,1-5.53-5.24,7,7,0,0,1,.9-7.32c2.29-2.58,6.49-2.58,9.53-1s5.18,4.5,7.22,7.28l1.46,2c-3.53-7.61-6.88-15.39-9.84-23.29a20.54,20.54,0,0,1-3.2-.15c-1.25,0-2.49-.12-3.73-.26a18.73,18.73,0,0,1-5.73-1.35,8.2,8.2,0,0,1-4.19-4,5.3,5.3,0,0,1,.68-5.55c1.74-2,4.92-2,7.23-.73s3.92,3.41,5.47,5.52l2.18,3c-1.59-4.48-3-9-4.31-13.53-.75-.23-2.1-2-2.59-2.52-.87-.9-1.72-1.82-2.52-2.78a18.29,18.29,0,0,1-3.19-4.93,8.16,8.16,0,0,1-.27-5.77A5.29,5.29,0,0,1,394.87,0c2.6-.21,4.9,2,5.71,4.48s.48,5.18.13,7.77l-.57,4.33c0,.23,0,.53-.06.85,1.76,4.58,3.5,9.14,5.26,13.69a25.5,25.5,0,0,1,0-9.38,10.11,10.11,0,0,1,2.42-4.92,4.77,4.77,0,0,1,5.08-1.26,4.84,4.84,0,0,1,2.6,4.12,11.1,11.1,0,0,1-1.06,4.95c-1.57,3.84-4,8.28-7.35,10.91,6.11,15.7,12.52,31.21,20.51,46.31q3.69,7,7.62,13.77c-3-7.5-3.29-18.22-1.88-24.13.79-3.27,2-6.56,4.39-8.93s6.14-3.62,9.22-2.28c2.84,1.24,4.5,4.38,4.72,7.47a20.17,20.17,0,0,1-1.91,9c-2.93,7.14-7.54,15.47-13.79,20.18q4.62,8,9.54,15.74a41.86,41.86,0,0,1-2.68-11.85c-.15-3.36.13-6.86,1.77-9.8s4.92-5.16,8.25-4.71c3.07.42,5.52,3,6.58,5.9a20,20,0,0,1,.62,9.18c-.83,7.38-2.88,16.23-7.25,22.45a588.56,588.56,0,0,0,52.47,66.57C499,183,495,170.33,494.64,162.92c-.17-3.95.16-8,2.08-11.5s5.77-6,9.68-5.52c3.6.48,6.48,3.5,7.72,6.91s1.14,7.17.73,10.78c-1,9-3.57,20-9.18,27.33C527.45,215,550.88,237.64,575,259.53c-8.16-8.77-14.44-23.09-15.8-31.93-.76-5-.91-10.24,1-14.88s6.47-8.48,11.51-8.36c4.63.11,8.71,3.54,10.77,7.69S585,221,585,225.62c0,11.59-1.73,25.79-7.78,35.86,15.43,13.94,31.14,27.57,46.89,41.07C624.88,303.23,624,304.53,623.12,303.87Zm-100.67-109c1.29,8.42,7.65,22.5,15.71,29.9,5.38-8.86,6.88-21.41,6.9-31.63,0-4.08-.32-8.28-2.13-11.93s-5.39-6.66-9.46-6.76c-4.43-.1-8.39,3.27-10.11,7.35S521.78,190.46,522.45,194.83Zm-103.93-148c-1.09,4.57-.77,13.1,1.81,18.56,4.59-3.41,8-9.51,10.12-14.74a14.78,14.78,0,0,0,1.39-6.54,6.38,6.38,0,0,0-3.43-5.43,6.3,6.3,0,0,0-6.7,1.66A13.33,13.33,0,0,0,418.52,46.88Zm49.17,83.9C468,137.89,472,150.17,478,157c5.27-6.86,7.66-17.15,8.62-25.63.38-3.39.49-6.91-.68-10.1s-3.87-6-7.24-6.48c-3.66-.5-7.26,2-9.07,5.17S467.53,127.08,467.69,130.78ZM419.53,97.72c2.26.25,4.52.39,6.79.46,1.33,0,5.78.8,6.78,0,1.32-1.08-1.62-3.76-2.58-5.07l-4.7-6.41c-2.81-3.82-5.76-7.77-9.94-10s-10-2.23-13.11,1.32c-2.38,2.67-2.67,6.8-1.24,10.08a14.9,14.9,0,0,0,7.62,7.21A33.5,33.5,0,0,0,419.53,97.72Zm137.9,155.13c-6-3.72-12.37-7.53-19.43-8.27s-15.1,2.53-17.46,9.23c-1.78,5.05.14,10.94,4,14.67s9.28,5.49,14.63,5.71,10.66-1,15.81-2.46c3.26-.92,6.49-2,9.67-3.18,1.86-.7,8.46-2.17,9.39-3.89,1.21-2.25-4.37-4.31-6.45-5.58ZM443.36,128.4c1.29-.32,5.78-.82,6.52-1.89,1-1.41-2.59-3.18-3.87-4.18l-6.28-4.87c-3.74-2.91-7.66-5.9-12.29-6.92s-10.2.58-12.26,4.86a9.63,9.63,0,0,0,1.57,10,14.9,14.9,0,0,0,9.29,4.85,33.57,33.57,0,0,0,10.67-.47C438.94,129.44,441.17,129,443.36,128.4Z"/><path class="cls-3" d="M460,413.29c-6.89-19.55-13.93-39.13-21.35-58.55-11.58,2-25.43-1.55-36.25-5.71-4.33-1.66-8.64-3.74-11.77-7.16s-4.86-8.46-3.29-12.83c1.71-4.74,6.92-7.55,12-7.7s9.88,1.89,14.24,4.4c7.76,4.46,18.84,15.49,24.07,26.27-11.68-30.43-24.35-60.47-38.91-89.47-8.86,2.59-20,1-28.8-1.31-3.52-.93-7.06-2.17-9.79-4.57s-4.5-6.17-3.65-9.7c.92-3.84,4.73-6.48,8.64-7s7.86.63,11.47,2.21c6.8,3,17.14,11.36,21.83,19.81a589.84,589.84,0,0,0-43.12-73c-7.38,1.83-16.37.55-23.55-1.34a20,20,0,0,1-8.34-3.9c-2.33-2-3.84-5.26-3.12-8.27.79-3.27,4-5.52,7.37-6s6.7.53,9.78,1.88a42,42,0,0,1,10.08,6.78q-5.46-7.38-11.23-14.58c-6.65,4.12-16.08,5.42-23.8,5.57a20.13,20.13,0,0,1-9.08-1.47c-2.8-1.33-5.13-4-5.26-7.1-.14-3.36,2.38-6.41,5.45-7.78s6.59-1.31,9.92-.86c6,.82,15.9,5,21.82,10.47-3.29-4.07-6.64-8.11-10.09-12.08-11.19-12.91-23.34-24.49-35.77-35.86-3.65,2.15-8.68,2.84-12.82,2.92a11.19,11.19,0,0,1-5-.81,4.81,4.81,0,0,1-2.89-3.91,4.75,4.75,0,0,1,3-4.28,10.12,10.12,0,0,1,5.46-.48,25.42,25.42,0,0,1,8.75,3.38l-10.86-9.85c-.31-.1-.6-.2-.81-.25l-4.25-1c-2.54-.62-5.17-1.28-7.2-2.93s-3.24-4.6-2.11-7a5.32,5.32,0,0,1,4.87-2.76,8.13,8.13,0,0,1,5.27,2.34,18.07,18.07,0,0,1,3.45,4.76c.61,1.09,1.16,2.22,1.68,3.35.28.63,1.47,2.54,1.42,3.33q5.66,4.23,11.05,8.91l-2-3.12c-1.4-2.2-2.84-4.5-3.16-7.09s.84-5.57,3.28-6.48A5.33,5.33,0,0,1,292,94.86a8.15,8.15,0,0,1,2.19,5.35,18.31,18.31,0,0,1-.8,5.82c-.32,1.21-.7,2.4-1.11,3.58a21.66,21.66,0,0,1-1,3c6.3,5.61,12.35,11.55,18.17,17.58-.44-.69-.89-1.38-1.33-2.08-1.85-2.9-3.75-5.93-4.17-9.35s1.1-7.34,4.33-8.55a7,7,0,0,1,7.15,1.81,10.82,10.82,0,0,1,2.89,7,24.23,24.23,0,0,1-1.06,7.69c-.42,1.59-.92,3.16-1.47,4.72a27,27,0,0,1-1.32,4c1.8,1.92,3.59,3.85,5.35,5.76a483.72,483.72,0,0,1,43.72,55.43q7.14,10.49,13.76,21.3a7.16,7.16,0,0,0-.19-.74c-.83-2.79-1.67-5.58-2.5-8.37-1.5-5-3-10.19-2.2-15.34s4.64-10.23,9.84-10.65c3.92-.31,7.74,2.17,9.66,5.6A16.31,16.31,0,0,1,393.17,200a36.75,36.75,0,0,1-4.72,10.74c-1.27,2.15-2.65,4.23-4.08,6.26-.79,1.11-2.81,5-4.21,5.76q10,16.68,19,34c-.16-.73-.3-1.4-.44-1.88l-2.67-8.93c-1.6-5.33-3.21-10.88-2.36-16.38s5-10.92,10.51-11.36c4.18-.33,8.26,2.32,10.31,6a17.45,17.45,0,0,1,1.37,12.23,39.25,39.25,0,0,1-5,11.47c-1.35,2.29-2.83,4.51-4.36,6.68-.9,1.27-3.35,6-4.83,6.33a1.32,1.32,0,0,1-.34,0q9.85,19.26,18.53,39.1c-.19-1.3-.27-2.65-.42-3.5q-.94-5.15-1.88-10.28c-1.13-6.14-2.24-12.53-.61-18.55S423.79,256,430,256.22c4.7.14,8.92,3.59,10.76,7.92s1.55,9.35,0,13.8a44.12,44.12,0,0,1-7,12.17c-1.79,2.38-3.7,4.68-5.68,6.91-1.16,1.31-4.46,6.25-6.17,6.46a1.18,1.18,0,0,1-.57-.08q5.75,13.22,11,26.6,16.17,40.86,29.18,82.87C461.89,413.89,460.34,414.28,460,413.29ZM383.76,275.73c-4.43.13-9,2.61-10.51,6.77-1.38,3.83.14,8.26,2.89,11.27s6.54,4.83,10.35,6.29c9.54,3.67,21.78,6.81,32,5-4-10.19-14.81-21.21-22.2-25.46C392.44,277.4,388.18,275.6,383.76,275.73Zm-95.1-145.86a6.28,6.28,0,0,0-4,5.64,6.37,6.37,0,0,0,3.82,5.17,14.76,14.76,0,0,0,6.6,1.06c5.65-.11,12.56-1.06,17.4-4.11-4.16-4.38-12-7.76-16.65-8.39A13.36,13.36,0,0,0,288.66,129.87Zm56.92,73.46c-3.66.51-7.24,3-8.1,6.58-.8,3.31.87,6.85,3.42,9.1s5.88,3.41,9.17,4.28c8.26,2.17,18.72,3.66,27,1.22-4.24-8.1-14.25-16.26-20.77-19.11C352.94,203.92,349.24,202.82,345.58,203.33ZM344.36,138a14.84,14.84,0,0,0-4-9.71,9.63,9.63,0,0,0-9.84-2.49c-4.45,1.66-6.55,7.05-6,11.76s3.2,8.88,5.75,12.88c1.42,2.23,2.85,4.46,4.27,6.7.88,1.37,2.31,5.07,3.8,4.24,1.14-.64,2.05-5.06,2.49-6.31.75-2.14,1.44-4.31,2-6.5A33.06,33.06,0,0,0,344.36,138Zm95.52,206.91c.44,2.39.34,8.34,2.87,8,1.94-.24,5.7-5.86,7-7.35,2.25-2.54,4.43-5.16,6.46-7.87,3.25-4.26,6.27-8.78,8-13.85s2.06-10.78,0-15.7-6.89-8.86-12.24-9c-7.1-.21-13.06,6.09-14.92,12.94s-.58,14.13.7,21.11Q438.8,339,439.88,344.89ZM366.62,176.16a33.14,33.14,0,0,0,4.29-9.77A14.82,14.82,0,0,0,369.75,156a9.66,9.66,0,0,0-8.79-5.09c-4.73.38-8.22,5-8.95,9.68s.64,9.41,2,14l2.28,7.61c.47,1.56.84,5.51,2.49,5.12,1.27-.3,3.36-4.31,4.12-5.39C364.21,180,365.47,178.11,366.62,176.16Z"/><path class="cls-4" d="M475.68,437.29c-2.8-20.54-5.74-41.14-9.08-61.66-11.74-.38-24.6-6.66-34.34-12.92-3.91-2.5-7.72-5.41-10.09-9.4s-3-9.26-.62-13.22c2.63-4.29,8.3-6,13.26-5.13s9.3,3.86,13.06,7.2c6.7,5.93,15.32,19,18.26,30.59-5.29-32.17-11.62-64.14-20-95.49-9.2.74-19.79-3.06-27.94-7.11-3.26-1.61-6.47-3.55-8.66-6.45s-3.17-7-1.62-10.24c1.68-3.57,5.95-5.39,9.89-5.14s7.56,2.21,10.78,4.49c6.06,4.28,14.49,14.59,17.38,23.81a591.74,591.74,0,0,0-27.48-80.2c-7.6.3-16.14-2.77-22.8-6.07a20.27,20.27,0,0,1-7.38-5.5c-1.86-2.48-2.69-5.93-1.38-8.73,1.43-3.05,5.07-4.59,8.43-4.38s6.45,1.88,9.19,3.82a42.36,42.36,0,0,1,8.51,8.68q-3.87-8.34-8-16.55c-7.35,2.7-16.85,2.06-24.43.65a20.17,20.17,0,0,1-8.61-3.28c-2.47-1.86-4.21-5-3.71-8,.54-3.31,3.62-5.8,6.91-6.51s6.72.05,9.89,1.16c5.73,2,14.57,8.09,19.25,14.67-2.4-4.66-4.86-9.29-7.43-13.88-8.36-14.9-17.92-28.7-27.79-42.34-4,1.36-9.08,1-13.15.26a11,11,0,0,1-4.74-1.8,4.81,4.81,0,0,1-2-4.42,4.75,4.75,0,0,1,3.8-3.58,10.12,10.12,0,0,1,5.45.63,25.63,25.63,0,0,1,7.89,5.08l-8.65-11.84c-.28-.16-.54-.31-.75-.41l-3.95-1.87c-2.36-1.12-4.8-2.3-6.45-4.32s-2.25-5.16-.66-7.23a5.28,5.28,0,0,1,5.31-1.73,8.2,8.2,0,0,1,4.7,3.37,18.49,18.49,0,0,1,2.42,5.35c.37,1.19.68,2.41,1,3.62.15.68.93,2.79.72,3.55q4.68,5.3,9,11c-.44-1.15-.88-2.31-1.31-3.46-.94-2.44-1.88-5-1.67-7.58s2-5.28,4.53-5.68a5.32,5.32,0,0,1,5,2.44,8.17,8.17,0,0,1,1.06,5.67,18.75,18.75,0,0,1-2,5.55c-.56,1.11-1.17,2.21-1.81,3.27a22.18,22.18,0,0,1-1.61,2.78c5,6.76,9.75,13.8,14.23,20.89-.29-.77-.58-1.54-.88-2.3-1.22-3.22-2.47-6.58-2.19-10s2.56-7,6-7.49a7,7,0,0,1,6.64,3.22,10.76,10.76,0,0,1,1.4,7.48,24.42,24.42,0,0,1-2.59,7.32c-.73,1.47-1.54,2.91-2.39,4.32a28,28,0,0,1-2.11,3.64q2.07,3.36,4.08,6.72A484.22,484.22,0,0,1,425,205.65q4.86,11.73,9.17,23.65c0-.28,0-.54,0-.76q-.37-4.35-.76-8.7c-.45-5.2-.88-10.6.95-15.48s6.61-9.08,11.79-8.43c3.9.49,7.14,3.68,8.33,7.43a16.33,16.33,0,0,1-1.06,11.48,36.82,36.82,0,0,1-6.8,9.57c-1.67,1.84-3.45,3.61-5.26,5.31-1,.92-3.75,4.27-5.29,4.78q6.47,18.36,11.74,37.1c0-.74,0-1.43,0-1.93q-.42-4.64-.82-9.29c-.48-5.54-.94-11.3,1-16.51s7.06-9.69,12.58-9c4.17.52,7.62,3.93,8.89,7.93a17.41,17.41,0,0,1-1.13,12.25A39.26,39.26,0,0,1,461,265.27c-1.79,2-3.68,3.84-5.62,5.66-1.14,1.06-4.48,5.17-6,5.22a1.66,1.66,0,0,1-.33,0q5.75,20.85,10.24,42c.08-1.31.27-2.65.29-3.51l.24-10.45c.14-6.24.33-12.72,3.15-18.29S472,276,478.08,277.4c4.58,1.09,8,5.32,8.94,9.94s-.38,9.46-2.77,13.51a43.62,43.62,0,0,1-9.34,10.5c-2.23,2-4.57,3.84-7,5.62-1.4,1-5.63,5.22-7.34,5.08a1.24,1.24,0,0,1-.55-.19q3,14.1,5.43,28.28,7.58,43.28,11.82,87.06C477.41,438.26,475.82,438.33,475.68,437.29ZM428.82,287.16c-4.36-.77-9.35.73-11.65,4.5-2.13,3.48-1.54,8.12.54,11.62s5.43,6.06,8.86,8.26c8.61,5.52,20,11.07,30.32,11.35-1.84-10.77-10.22-23.76-16.59-29.41C437,290.54,433.18,287.92,428.82,287.16ZM365.17,125.08c-2.39.52-4.63,2.32-5,4.73a6.32,6.32,0,0,0,2.7,5.83A14.57,14.57,0,0,0,369.1,138c5.55,1,12.51,1.5,17.86-.51-3.18-5.13-10.17-10-14.61-11.58A13.34,13.34,0,0,0,365.17,125.08Zm40.9,83.46c-3.69-.24-7.7,1.46-9.27,4.8-1.45,3.09-.54,6.89,1.52,9.6s5.06,4.54,8.11,6.05c7.65,3.8,17.59,7.37,26.22,6.66-2.51-8.79-10.67-18.81-16.47-22.91C413.16,210.6,409.75,208.77,406.07,208.54Zm12-64.25A14.86,14.86,0,0,0,416.15,134a9.64,9.64,0,0,0-9.13-4.43c-4.69.72-7.84,5.58-8.22,10.31s1.33,9.34,3,13.77c.94,2.48,1.89,5,2.83,7.43.58,1.52,1.24,5.43,2.87,4.92,1.24-.39,3-4.54,3.71-5.68,1.17-1.94,2.28-3.92,3.28-6A33.23,33.23,0,0,0,418.08,144.29Zm51.73,221.94c-.06,2.44-1.36,8.24,1.19,8.45,1.94.15,6.76-4.59,8.36-5.78,2.71-2,5.38-4.16,7.92-6.4,4-3.52,7.91-7.34,10.63-11.95s4.2-10.14,3.14-15.39-5-10.06-10.17-11.3c-6.91-1.65-14,3.32-17.22,9.66s-3.43,13.71-3.59,20.81Q469.94,360.29,469.81,366.23Zm-37.65-180a33.3,33.3,0,0,0,6.18-8.7,14.78,14.78,0,0,0,1-10.44,9.62,9.62,0,0,0-7.57-6.76c-4.71-.59-9.06,3.22-10.72,7.67s-1.28,9.35-.86,14.07l.69,7.92c.14,1.62-.3,5.56,1.41,5.51,1.3,0,4.15-3.54,5.12-4.44C429,189.46,430.64,187.86,432.16,186.18Z"/><path class="cls-5" d="M689.77,472.44c-1.31-8.77-1.71-17.92,1.05-26.35S700,430,708.58,427.76c10.44-2.76,21.65,3,28.41,11.47s10,19.07,13.12,29.42c-3.82-14.26-7.68-28.86-6.47-43.57s8.5-29.79,21.75-36.3,32.26-1,36.73,13.1a42.68,42.68,0,0,1,1.51,10.39l2,32.37A67.84,67.84,0,0,1,843,392.16c10.43-5,24.7-6.43,32.06,2.5,6.08,7.36,4.58,18.28,1.59,27.35s-7.2,18.37-5.48,27.76c1-12,13.57-21.61,25.38-19.47q1.1,15.34,2.18,30.69c1.25-15.46,15.27-28.82,30.77-29.33s30.36,11.91,32.63,27.24c1.84,12.49-3.77,24.76-9.54,36-13,25.29-28.71,50.81-53.31,65.11-25.54,14.84-56.64,15.32-86.18,15.39-29,.07-60.6-.79-82.71-19.48-11.17-9.44-16.34-22.13-23.13-34.59C698.8,505.83,692.39,490,689.77,472.44Z"/><path class="cls-6" d="M793.22,577.94c9.46-18.45,18.83-37,27.83-55.77-9.41-7-16.36-19.53-20.78-30.24-1.77-4.28-3.23-8.85-2.9-13.47s2.81-9.34,7.06-11.21c4.61-2,10.24-.17,13.81,3.38s5.42,8.48,6.6,13.38c2.1,8.69,1.71,24.32-2.52,35.54,14.06-29.41,27.15-59.27,38.2-89.78-8-4.65-14.49-13.83-18.86-21.82-1.74-3.18-3.27-6.61-3.41-10.24s1.39-7.52,4.53-9.33c3.42-2,8-1,11.05,1.45s4.95,6.13,6.29,9.85c2.51,7,3.53,20.25.62,29.46a589,589,0,0,0,23.34-81.49c-6.4-4.1-11.65-11.51-15.22-18a20.15,20.15,0,0,1-2.91-8.73c-.11-3.09,1.18-6.4,3.86-7.95,2.92-1.68,6.79-.86,9.42,1.23s4.21,5.23,5.36,8.4a41.83,41.83,0,0,1,2,12q1.6-9,2.87-18.18c-7.57-2-15-7.95-20.41-13.45a20.17,20.17,0,0,1-5.18-7.6c-1-2.95-.62-6.48,1.54-8.7,2.34-2.42,6.29-2.69,9.39-1.39s5.49,3.88,7.45,6.61c3.55,4.93,7.32,15,7.4,23,.7-5.19,1.33-10.4,1.84-15.63,1.68-17,1.72-33.79,1.43-50.64-4.06-1.17-8-4.35-10.93-7.3a11.16,11.16,0,0,1-2.86-4.19,4.83,4.83,0,0,1,.85-4.79,4.77,4.77,0,0,1,5.17-.77,10.28,10.28,0,0,1,4.11,3.64,25.39,25.39,0,0,1,3.56,8.68q-.15-7.32-.32-14.66c-.14-.29-.26-.57-.37-.76l-2.18-3.8c-1.29-2.26-2.62-4.63-2.82-7.23s1.11-5.52,3.6-6.31a5.28,5.28,0,0,1,5.34,1.63,8.15,8.15,0,0,1,1.93,5.44,18.47,18.47,0,0,1-1.08,5.78c-.37,1.19-.81,2.36-1.28,3.52-.26.64-.83,2.82-1.44,3.32.54,4.67.91,9.4,1.13,14.15l.9-3.59c.63-2.53,1.31-5.16,3-7.17s4.62-3.22,7-2.07a5.3,5.3,0,0,1,2.73,4.88,8.12,8.12,0,0,1-2.37,5.26,18.46,18.46,0,0,1-4.78,3.42q-1.65.9-3.36,1.65a21.85,21.85,0,0,1-2.91,1.36c.26,8.43.1,16.9-.27,25.28.2-.8.39-1.6.59-2.39.84-3.35,1.73-6.81,3.93-9.47s6.09-4.24,9.18-2.73a7,7,0,0,1,3.6,6.44,10.74,10.74,0,0,1-3.13,6.94,24,24,0,0,1-6.31,4.52c-1.44.79-2.93,1.51-4.43,2.18a28.35,28.35,0,0,1-3.81,1.78c-.15,2.63-.32,5.25-.5,7.84A482.87,482.87,0,0,1,884.15,359q-2.71,12.39-6,24.64c.16-.24.3-.45.41-.64l4.35-7.58c2.6-4.52,5.34-9.19,9.63-12.15s10.62-3.66,14.5-.17c2.92,2.63,3.74,7.11,2.58,10.86a16.37,16.37,0,0,1-7.44,8.81,36.69,36.69,0,0,1-11,4c-2.43.55-4.89,1-7.35,1.34-1.35.19-5.52,1.36-7.08.9q-5.21,18.76-11.59,37.15c.42-.61.82-1.18,1.07-1.61l4.64-8.08c2.78-4.83,5.7-9.81,10.28-13s11.33-3.91,15.47-.18c3.11,2.8,4,7.58,2.75,11.58a17.41,17.41,0,0,1-7.93,9.41,39.16,39.16,0,0,1-11.8,4.22c-2.59.6-5.21,1.06-7.84,1.43-1.55.23-6.64,1.68-7.92.84a1.07,1.07,0,0,1-.25-.22q-7.22,20.4-15.65,40.34c.82-1,1.75-2,2.25-2.71l6.18-8.44c3.68-5,7.55-10.24,13-13.2s13.12-3,17.27,1.7c3.13,3.51,3.53,8.94,1.65,13.26s-5.73,7.55-10,9.5a44.09,44.09,0,0,1-13.67,3.27c-3,.34-5.94.53-8.92.63-1.75.06-7.61,1.06-8.93,0a1,1,0,0,1-.34-.47q-5.64,13.26-11.73,26.3-18.54,39.84-40.1,78.17C794.09,579.73,792.75,578.87,793.22,577.94ZM840.67,428c-3.13-3.12-8.08-4.75-12.13-3-3.74,1.63-5.91,5.77-6.2,9.84s1,8.07,2.54,11.84c3.9,9.45,10,20.5,18.37,26.66,4.66-9.9,5.22-25.34,3.22-33.62C845.43,435.44,843.81,431.12,840.67,428Zm40.51-169.35c-2.25-.94-5.12-.74-6.82,1a6.33,6.33,0,0,0-1.12,6.32,14.72,14.72,0,0,0,3.76,5.53c4,4,9.41,8.39,15,9.8.32-6-2.61-14-5.36-17.86A13.31,13.31,0,0,0,881.18,258.65ZM867,350.49c-2.89-2.3-7.15-3.2-10.35-1.35-2.95,1.7-4.38,5.34-4.25,8.74s1.56,6.61,3.2,9.6c4.1,7.49,10.21,16.1,17.69,20.46,3-8.64,2-21.53-.4-28.22C871.62,356.24,869.88,352.8,867,350.49Zm46.61-45.82a14.87,14.87,0,0,0,4.31-9.56,9.64,9.64,0,0,0-5-8.86c-4.26-2.09-9.62.1-12.64,3.76s-4.25,8.42-5.4,13L893,310.74c-.4,1.58-2.1,5.17-.47,5.68,1.25.39,5.08-2,6.29-2.54,2.07-.92,4.12-1.91,6.11-3A33.47,33.47,0,0,0,913.6,304.67ZM829.06,516.3c-1.44,2-5.83,6-3.86,7.61,1.51,1.24,8.18.11,10.16,0,3.39-.11,6.79-.33,10.16-.72,5.33-.57,10.69-1.48,15.56-3.71s9.24-5.92,11.38-10.83,1.68-11.09-1.88-15.08c-4.72-5.31-13.4-5.3-19.65-1.94s-10.66,9.29-14.85,15Zm72.12-169.21a33.57,33.57,0,0,0,10.05-3.61,14.81,14.81,0,0,0,6.76-8,9.64,9.64,0,0,0-2.35-9.88c-3.52-3.17-9.28-2.53-13.18.16s-6.39,6.94-8.76,11.05l-4,6.89c-.81,1.41-3.42,4.4-2,5.33,1.09.72,5.43-.53,6.75-.72C896.73,348,899,347.59,901.18,347.09Z"/><path class="cls-7" d="M867.4,529.47c9.46-18.46,18.83-37,27.83-55.77-9.41-7-16.36-19.53-20.78-30.24-1.77-4.29-3.23-8.85-2.9-13.48s2.81-9.34,7.06-11.2c4.61-2,10.24-.17,13.81,3.38s5.42,8.48,6.6,13.37c2.1,8.7,1.71,24.33-2.52,35.54,14.06-29.41,27.15-59.26,38.2-89.78-8-4.65-14.49-13.82-18.86-21.81-1.74-3.19-3.27-6.62-3.41-10.25s1.39-7.51,4.53-9.32c3.42-2,8-1,11,1.44s5,6.14,6.28,9.85c2.52,7,3.54,20.26.63,29.47a589.18,589.18,0,0,0,23.34-81.5c-6.4-4.1-11.65-11.51-15.22-18a20.19,20.19,0,0,1-2.91-8.74c-.12-3.09,1.18-6.4,3.86-7.94,2.92-1.68,6.79-.87,9.42,1.23s4.21,5.23,5.35,8.39a41.52,41.52,0,0,1,2,12q1.61-9,2.87-18.18c-7.57-2-15-7.95-20.41-13.44a20.21,20.21,0,0,1-5.18-7.61c-1-2.94-.62-6.48,1.54-8.7,2.34-2.41,6.29-2.68,9.39-1.39s5.49,3.88,7.45,6.61c3.55,4.94,7.32,15,7.4,23,.7-5.19,1.33-10.39,1.84-15.63,1.68-17,1.72-33.79,1.43-50.63-4.06-1.17-8-4.35-10.93-7.31a11,11,0,0,1-2.86-4.18,4.82,4.82,0,0,1,.85-4.8,4.77,4.77,0,0,1,5.17-.76,10.14,10.14,0,0,1,4.11,3.64A25.44,25.44,0,0,1,967,195.4q-.15-7.31-.32-14.65c-.14-.3-.26-.57-.37-.77l-2.18-3.79c-1.29-2.27-2.62-4.64-2.82-7.24s1.11-5.52,3.6-6.31a5.3,5.3,0,0,1,5.34,1.63,8.19,8.19,0,0,1,1.93,5.44,18.47,18.47,0,0,1-1.08,5.78c-.38,1.19-.81,2.37-1.28,3.52-.26.64-.83,2.82-1.44,3.32q.81,7,1.13,14.15l.9-3.59c.63-2.53,1.31-5.16,3-7.17s4.62-3.22,7-2.07a5.3,5.3,0,0,1,2.73,4.88,8.15,8.15,0,0,1-2.37,5.26,18.5,18.5,0,0,1-4.78,3.43c-1.1.6-2.22,1.14-3.36,1.65a20.72,20.72,0,0,1-2.91,1.35c.26,8.43.1,16.91-.27,25.28.2-.79.39-1.59.59-2.39.84-3.34,1.73-6.81,3.93-9.46s6.09-4.25,9.18-2.73a7,7,0,0,1,3.6,6.43,10.76,10.76,0,0,1-3.13,7,24.21,24.21,0,0,1-6.31,4.51c-1.44.79-2.93,1.51-4.43,2.18a26.08,26.08,0,0,1-3.81,1.78q-.22,3.94-.5,7.85a484.13,484.13,0,0,1-10.17,69.85q-2.72,12.4-6,24.64c.16-.23.3-.45.41-.64l4.35-7.57c2.6-4.52,5.34-9.2,9.63-12.16s10.62-3.66,14.49-.17c2.93,2.63,3.75,7.11,2.59,10.86a16.3,16.3,0,0,1-7.44,8.81,36.42,36.42,0,0,1-11.05,4c-2.43.56-4.89,1-7.35,1.34-1.35.2-5.53,1.37-7.08.91q-5.21,18.75-11.59,37.15c.42-.62.82-1.18,1.07-1.62L945,367.9c2.78-4.82,5.7-9.81,10.28-13s11.33-3.9,15.47-.18c3.11,2.81,4,7.58,2.75,11.59a17.47,17.47,0,0,1-7.93,9.4,39.46,39.46,0,0,1-11.8,4.23c-2.59.59-5.22,1-7.85,1.43-1.54.22-6.63,1.68-7.91.84a1.36,1.36,0,0,1-.25-.22q-7.21,20.39-15.65,40.33c.82-1,1.74-2,2.25-2.71l6.18-8.44c3.68-5,7.55-10.24,13-13.19s13.12-3,17.27,1.69c3.13,3.51,3.53,8.95,1.65,13.26s-5.73,7.55-10,9.51a43.8,43.8,0,0,1-13.67,3.26c-3,.34-6,.53-8.92.63-1.75.06-7.61,1.06-8.93,0a1.15,1.15,0,0,1-.34-.47q-5.64,13.25-11.73,26.3Q890.36,492,868.8,530.33C868.27,531.25,866.93,530.4,867.4,529.47Zm47.45-150c-3.14-3.12-8.08-4.74-12.13-3-3.74,1.64-5.91,5.78-6.2,9.84s1,8.08,2.54,11.85c3.9,9.45,10,20.49,18.37,26.65,4.66-9.89,5.22-25.34,3.22-33.62C919.61,387,918,382.64,914.85,379.52Zm40.51-169.35c-2.25-.94-5.12-.74-6.82,1a6.36,6.36,0,0,0-1.12,6.33,14.69,14.69,0,0,0,3.76,5.52c4,4,9.41,8.39,15,9.81.32-6-2.61-14.05-5.36-17.87A13.44,13.44,0,0,0,955.36,210.17ZM941.17,302c-2.89-2.31-7.15-3.2-10.35-1.36-3,1.7-4.38,5.34-4.25,8.74s1.56,6.62,3.2,9.6c4.1,7.5,10.21,16.11,17.69,20.46,3-8.64,2-21.52-.4-28.21C945.8,307.77,944.06,304.32,941.17,302Zm46.61-45.83a14.83,14.83,0,0,0,4.31-9.55,9.62,9.62,0,0,0-5-8.86c-4.26-2.09-9.62.09-12.64,3.75s-4.25,8.43-5.4,13l-1.92,7.71c-.4,1.58-2.1,5.16-.47,5.67,1.24.39,5.08-2,6.29-2.53,2.07-.93,4.12-1.91,6.1-3A33.39,33.39,0,0,0,987.78,256.19ZM903.24,467.83c-1.44,2-5.83,6-3.86,7.6,1.51,1.25,8.18.11,10.16,0,3.39-.11,6.79-.33,10.16-.71,5.33-.58,10.69-1.49,15.56-3.72s9.24-5.91,11.38-10.82,1.68-11.09-1.88-15.09c-4.72-5.3-13.4-5.3-19.65-1.93s-10.66,9.29-14.85,15Zm72.12-169.22a33.55,33.55,0,0,0,10-3.6,14.83,14.83,0,0,0,6.76-8,9.62,9.62,0,0,0-2.35-9.87c-3.52-3.18-9.28-2.54-13.18.15s-6.39,6.94-8.76,11.06l-4,6.88c-.81,1.41-3.42,4.4-2,5.34,1.09.71,5.43-.53,6.75-.72C970.91,299.51,973.15,299.11,975.36,298.61Z"/><path class="cls-8" d="M867.22,542.16c57.64-26.09,76.43-76.54,90-125.76,3.47-12.57,6-25.73,3.93-38.61s-9.3-25.51-21.06-31.14c-13.32-6.38-30.07-2.37-41.19,7.36s-17.18,24.19-19.6,38.76c-.58-7-1.22-14.15-4.3-20.45s-9.2-11.6-16.21-11.6c-9,0-15.7,8.25-20.17,16.1a142.76,142.76,0,0,0-17.38,51.93c.61-6.56,1.22-13.27-.38-19.66s-5.83-12.52-12.09-14.55-13.29.45-18.15,4.85-8,10.4-10.34,16.55c-28.85,77.52,29.85,133.76,29.85,133.76S832.33,558,867.22,542.16Z"/><path class="cls-9" d="M880.87,459.4c25.13-7.59,46.73-26.9,60.69-48.6.25-.39-.36-.73-.62-.36-15,21.69-34.91,35.25-58.42,45.39,12.4-27,23.31-55,30-83.48a.51.51,0,0,0-1-.36c-14.37,36.79-27.66,73.36-46,108.46-5.54-22.72-8.38-45.51-7.4-69a.15.15,0,0,0-.29,0c-1.2,23.59.78,47.55,7,70.4l-.3.59c-9.74,18.43-20.67,36-31.94,53.33-15.35-28.16-23.47-61-20.38-93.18,0-.11-.17-.11-.18,0-3.05,33.46,2.27,65.65,18.61,95.3a1.35,1.35,0,0,0,.32.38c-10.42,16-21.08,31.82-31.31,48a1.48,1.48,0,0,0,2.39,1.73c19.62-21.39,35.79-46.5,50.06-72.22,27.86-11.37,56.15-25.13,75-49.31.28-.36-.22-.87-.51-.51-18.9,23.62-46,35.64-73.07,47.26,4.84-8.79,9.45-17.65,13.91-26.44C872.05,477.81,876.54,468.68,880.87,459.4Z"/><path class="cls-10" d="M767.15,538.41c-18.65-11.25-46.57-20.13-69.2-30.21-29.46-13.11-40.8-39.92-29.3-53.17s39.47-9,57.46,12.89C749.24,496,767.15,538.41,767.15,538.41Z"/><path class="cls-11" d="M771.08,543.1C744,515,714.84,488.85,685.68,463.19c-.24-.21-.5.18-.28.39,28.54,26.67,57.21,53.18,84.25,81.23C770.11,544.23,770.6,543.67,771.08,543.1Z"/><path class="cls-12" d="M768.86,550.73c-7.2-26.05-24.77-57.9-36.55-86.3-15.35-37-2.67-70.82,19-72.94s43.23,25.64,40.78,60.68C788.94,497.24,768.86,550.73,768.86,550.73Z"/><path class="cls-11" d="M768.39,558.32c-.41-48.41-4.34-96.9-8.7-144.94,0-.38-.61-.26-.59.12,2.95,48.41,6.14,96.77,6.55,145.14C766.56,558.52,767.48,558.42,768.39,558.32Z"/><path class="cls-13" d="M905.1,548.88c13.06-23.67,22.76-58.73,34.18-87.28,14.86-37.17,47.58-52.52,64.56-38.89s13,48.55-13.25,71.9C956.85,524.64,905.1,548.88,905.1,548.88Z"/><path class="cls-11" d="M899.46,554c33.55-34.92,64.62-72.35,95.07-109.75.25-.3-.25-.62-.5-.33-31.72,36.68-63.24,73.5-96.75,108.39C898,552.84,898.74,553.41,899.46,554Z"/><path class="cls-14" d="M961,456.7c-1.31-8.78-1.72-17.92,1-26.35s9.18-16.07,17.76-18.34c10.45-2.76,21.65,3.05,28.41,11.48s10,19.06,13.12,29.41c-3.82-14.25-7.67-28.85-6.46-43.56s8.5-29.8,21.74-36.31,32.26-1,36.74,13.1a43.24,43.24,0,0,1,1.51,10.39q1,16.19,2,32.37a67.84,67.84,0,0,1,37.31-52.47c10.43-5,24.69-6.43,32.06,2.49,6.07,7.36,4.57,18.28,1.59,27.35s-7.2,18.37-5.49,27.76c1-12,13.57-21.61,25.39-19.47q1.1,15.34,2.18,30.69c1.25-15.45,15.27-28.82,30.76-29.33s30.37,11.91,32.63,27.25c1.84,12.48-3.77,24.75-9.54,36-13,25.3-28.71,50.82-53.3,65.11-25.54,14.85-56.65,15.32-86.19,15.39-29,.07-60.59-.78-82.71-19.48-11.17-9.44-16.33-22.13-23.12-34.58C970,490.08,963.62,474.26,961,456.7Z"/><path class="cls-15" d="M1158.06,504.53q-21.6-38.26-40.1-78.17-6.07-13-11.73-26.3a1.09,1.09,0,0,1-.34.47c-1.32,1.09-7.18.1-8.93,0-3-.1-6-.29-8.92-.63a44.09,44.09,0,0,1-13.67-3.27c-4.27-2-8.12-5.19-10-9.51s-1.48-9.74,1.65-13.25c4.15-4.66,11.77-4.66,17.27-1.7s9.36,8.16,13,13.2l6.18,8.44c.51.69,1.43,1.68,2.25,2.71q-8.4-19.95-15.65-40.34a1.07,1.07,0,0,1-.25.22c-1.28.84-6.37-.62-7.91-.84-2.63-.38-5.26-.84-7.85-1.43a39.16,39.16,0,0,1-11.8-4.22,17.49,17.49,0,0,1-7.93-9.41c-1.24-4-.36-8.78,2.75-11.59,4.14-3.72,10.89-3,15.47.19s7.5,8.14,10.28,13l4.64,8.08c.25.43.65,1,1.07,1.61q-6.36-18.39-11.59-37.15c-1.55.46-5.73-.71-7.08-.9-2.46-.36-4.92-.79-7.35-1.34a36.69,36.69,0,0,1-11-4,16.37,16.37,0,0,1-7.44-8.81c-1.16-3.76-.33-8.23,2.59-10.86,3.87-3.49,10.2-2.79,14.49.17s7,7.63,9.63,12.15l4.35,7.58.41.64q-3.27-12.26-6-24.64a484.26,484.26,0,0,1-10.17-69.86q-.27-3.9-.5-7.84a28.35,28.35,0,0,1-3.81-1.78c-1.5-.67-3-1.39-4.43-2.18a24,24,0,0,1-6.31-4.52,10.74,10.74,0,0,1-3.13-6.94,7,7,0,0,1,3.6-6.44c3.09-1.52,7,.07,9.18,2.73s3.09,6.12,3.93,9.47c.2.79.4,1.59.59,2.39-.37-8.38-.53-16.85-.27-25.28a21.85,21.85,0,0,1-2.91-1.36c-1.14-.51-2.26-1-3.36-1.65a18.46,18.46,0,0,1-4.78-3.42,8.19,8.19,0,0,1-2.37-5.26,5.29,5.29,0,0,1,2.73-4.88c2.34-1.15,5.3,0,7,2.06s2.34,4.64,3,7.18l.9,3.59c.22-4.75.59-9.48,1.13-14.15-.61-.5-1.18-2.68-1.44-3.32-.47-1.16-.9-2.33-1.28-3.52a18.53,18.53,0,0,1-1.08-5.78,8.15,8.15,0,0,1,1.93-5.44,5.28,5.28,0,0,1,5.34-1.63c2.49.79,3.79,3.7,3.6,6.3s-1.52,5-2.82,7.24l-2.17,3.8c-.12.19-.24.47-.38.76q-.17,7.35-.32,14.66a25.38,25.38,0,0,1,3.57-8.68,10.19,10.19,0,0,1,4.1-3.64,4.32,4.32,0,0,1,6,5.56,11.16,11.16,0,0,1-2.86,4.19c-2.91,3-6.87,6.13-10.93,7.3-.29,16.85-.25,33.63,1.43,50.63.51,5.24,1.14,10.45,1.84,15.64.08-8.08,3.85-18.11,7.4-23.05,2-2.73,4.35-5.31,7.45-6.6s7-1,9.39,1.38c2.16,2.22,2.5,5.76,1.54,8.71a20.17,20.17,0,0,1-5.18,7.6c-5.42,5.5-12.84,11.45-20.41,13.45q1.26,9.14,2.87,18.17a41.44,41.44,0,0,1,2-12c1.14-3.17,2.72-6.3,5.35-8.4s6.5-2.91,9.42-1.23c2.68,1.54,4,4.85,3.86,8a20.15,20.15,0,0,1-2.91,8.73c-3.57,6.52-8.82,13.93-15.22,18a589,589,0,0,0,23.34,81.49c-2.91-9.21-1.89-22.48.63-29.47,1.33-3.71,3.2-7.38,6.28-9.84s7.63-3.42,11.05-1.45c3.15,1.81,4.67,5.7,4.53,9.33s-1.67,7.06-3.41,10.24c-4.37,8-10.89,17.17-18.86,21.82,11,30.51,24.14,60.36,38.2,89.78-4.23-11.22-4.62-26.85-2.52-35.54,1.18-4.9,3-9.83,6.6-13.38s9.2-5.4,13.81-3.38c4.25,1.86,6.72,6.58,7.06,11.2s-1.13,9.2-2.9,13.48c-4.42,10.71-11.37,23.21-20.78,30.24,9,18.75,18.37,37.32,27.83,55.77C1159.94,504.6,1158.59,505.46,1158.06,504.53Zm-51.85-139.06c-2,8.28-1.44,23.73,3.22,33.63,8.33-6.16,14.47-17.21,18.37-26.66,1.55-3.77,2.83-7.78,2.54-11.84s-2.46-8.21-6.2-9.84c-4.05-1.78-9-.16-12.13,3S1107.25,361.17,1106.21,365.47Zm-40.12-176.29c-2.75,3.82-5.68,11.83-5.36,17.86,5.54-1.41,11-5.78,15-9.8a14.61,14.61,0,0,0,3.76-5.53,6.33,6.33,0,0,0-1.12-6.32c-1.7-1.75-4.57-1.95-6.82-1A13.37,13.37,0,0,0,1066.09,189.18Zm13.71,96.27c-2.41,6.69-3.36,19.57-.4,28.22,7.48-4.36,13.59-13,17.69-20.46,1.64-3,3.07-6.2,3.2-9.6s-1.29-7-4.25-8.74c-3.2-1.85-7.46-.95-10.35,1.35S1081.06,282,1079.8,285.45Zm-32-48.84c2,1.09,4,2.08,6.1,3,1.21.54,5.05,2.93,6.29,2.54,1.63-.51-.07-4.1-.47-5.68l-1.92-7.71c-1.15-4.6-2.38-9.37-5.4-13s-8.38-5.85-12.64-3.76a9.64,9.64,0,0,0-5,8.86,14.87,14.87,0,0,0,4.31,9.56A33.59,33.59,0,0,0,1047.77,236.61Zm68.83,195.81c-4.19-5.73-8.6-11.65-14.85-15s-14.93-3.37-19.65,1.93c-3.56,4-4,10.19-1.88,15.09s6.52,8.6,11.38,10.83,10.23,3.13,15.56,3.71c3.37.39,6.77.61,10.16.72,2,.06,8.65,1.2,10.16,0,2-1.63-2.42-5.64-3.86-7.61ZM1058.19,274c1.32.19,5.66,1.43,6.75.72,1.43-.93-1.19-3.92-2-5.33l-4-6.89c-2.37-4.11-4.85-8.36-8.76-11s-9.66-3.33-13.18-.16a9.63,9.63,0,0,0-2.35,9.88,14.81,14.81,0,0,0,6.76,8,33.28,33.28,0,0,0,10,3.6C1053.71,273.32,1056,273.71,1058.19,274Z"/><path class="cls-16" d="M1097.09,413.14a120.53,120.53,0,0,0,32-79.89c.07-6.08-.37-12.36-3.13-17.78s-8.31-9.79-14.39-9.54c-5.14.21-9.71,3.65-12.6,7.92s-4.37,9.29-5.82,14.23a141.89,141.89,0,0,0,2.63-47.78c-.85-7.35-3.51-16.05-10.68-17.88-5-1.29-10.41,1.69-13.48,5.89s-4.36,9.42-5.57,14.49c23.37-74.32-19.15-97-28.55-48-8.47-20.47-16.16-90.1-52.64-73.32s7,75.32,17.1,91.33c-8.48-7.09-36-28.18-45.33-14.34-13.59,20.1,19.35,48.62,45.46,70-10.43-4.62-21.35-9.34-32.76-8.78s-23.33,8.18-24.74,19.51C943.38,329,950,337.87,956.9,344.8a136.3,136.3,0,0,0,57.65,34.2c-7.39-.28-15-.52-21.89,2.31s-13.17,9.71-11.79,17C989.44,443.18,1095,419.46,1097.09,413.14Z"/><path class="cls-17" d="M1083,289.79c-4.31,21.52-10.47,42.75-14.76,64.25q-9.94-22.82-20.08-45.55c2.6-21.7,2.25-44,2.13-65.78,0-.91-1.4-1-1.42-.11-.44,20.38-2.26,40.72-2.85,61.07-19.19-43.06-38.63-86-57.29-129.27-.18-.43-.81-.11-.64.31,17.17,42.1,34.25,84.41,52.08,126.37-17.26-13.07-36.36-23.94-53.73-36.93-.28-.21-.56.23-.3.44,17.25,14.26,35.36,29.85,55.49,39.92q11.34,26.6,23.18,53c-23.29-6.29-46.14-8.66-67.49-21.35-.49-.29-1,.43-.49.74a152.64,152.64,0,0,0,69,22.83q11.72,26,24.12,51.59a1.25,1.25,0,0,0,2.25-1.09q-11-26.58-22.55-53c7.76-21.27,11.21-45.12,13.72-67.42C1083.42,289.58,1083.08,289.57,1083,289.79Z"/><path class="cls-18" d="M1111.34,475.67s-27.76-106-27.7-182.33c0-46.83,2.19-101.81,30.43-139.17,22.13-29.26,53.63-12.7,62.33,16.83,12.09,41,2.11,101.77-6.44,143C1153.22,394.77,1111.34,475.67,1111.34,475.67Z"/><path class="cls-11" d="M1174.25,209.68a590.44,590.44,0,0,0-51.69,67.84q.56-5.76,1.16-11.51h0c16.29-24.87,33.66-49.13,51.9-72.62,0-.07-.05-.17-.11-.1a780.86,780.86,0,0,0-51.31,68.17c3.87-35,9.08-69.92,14.52-104.83,0-.27-.37-.39-.42-.11q-2.68,15.13-5.22,30.26c-1-9.68-2.26-19.29-3.94-28.87,0-.1-.15-.06-.14,0q2.48,15.39,3.73,30.92c-6.53,39.09-12.07,78.21-15.1,117.77a930.46,930.46,0,0,0-21.9-98.14c0-.09-.16,0-.14,0,8.86,33.76,15.85,67.93,21.73,102.32q-.46,6.44-.85,12.87c-.2,3.58-.41,7.17-.62,10.75-6.06-36.18-16.48-71.75-23.62-107.7,0-.11-.2-.07-.18.05,8.44,37.64,13.37,76.37,23.44,113.63-3.15,53-6.6,106.44-6.31,159.44a.86.86,0,0,0,1.71,0c3.77-41.26,4.77-82.83,6.08-124.32,20.66-14.53,33.89-38.67,46.31-60a.28.28,0,0,0-.49-.29c-13.23,21.54-27,41-45.74,57.92q.21-6.51.43-13c19.16-20.31,34.36-43.65,47.54-68.15a.09.09,0,1,0-.16-.09c-13.07,23.56-29.56,44.82-47.27,65q.53-14.85,1.23-29.68c.75-15.41,1.91-30.76,3.36-46.08a729,729,0,0,1,52.27-71.32C1174.57,209.74,1174.38,209.54,1174.25,209.68Z"/><path class="cls-19" d="M1247.44,253.37c-51,20.44-169.08,104.58-128.87,235.05,0,0,73-18.61,100-97.23C1236.68,338.57,1247.66,279.18,1247.44,253.37Z"/><path class="cls-20" d="M1118.28,529.9c.93-30.35,7.33-58.58,17.38-85.95a1.65,1.65,0,0,0,.21,0c21.37-6.94,43.06-10.8,65.06-15a.19.19,0,0,0,0-.37c-21.66,0-43,4.72-63.64,11.1.16-.43.31-.87.47-1.3,11.4-3.27,22.53-7.26,34.11-10,11-2.59,22.2-3.6,33.16-6,.47-.11.57-.9,0-.92-21-.75-45.88,4.56-65.73,13.07,4.91-12.27,10.53-24.4,16.72-36.48.74-1.43,1.5-2.85,2.24-4.28h0c22.26-8.44,45-14.7,67.62-21.91.51-.16.28-.95-.23-.89-22.21,2.87-44.21,10-65,18.28,1.39-2.67,2.77-5.34,4.18-8,21.65-7.6,42.81-16.18,64.78-23,.13,0,.07-.26-.06-.23-21.33,5.26-43.08,11.37-63.2,20.41q4.11-7.64,8.37-15.21a1.18,1.18,0,0,0,.64-1.14c16.92-30.08,35.52-59.22,56.92-86.32.3-.37-.28-.81-.59-.44A596.49,596.49,0,0,0,1181.87,345c.25-12.62-4.73-27-11-37.27-.17-.29-.56,0-.47.28,2.16,7.17,4.63,14.35,6.16,21.68,1.34,6.41,1.41,13,2.79,19.38-1.64,2.71-3.25,5.44-4.86,8.17-2.61-15.64-4.1-31.08-11.14-45.62a.09.09,0,0,0-.17.07c5.77,15.77,6.6,32.69,9.16,49.17q-10.8,18.51-20.7,37.58-6.4,12.29-12,24.7c-2.2-6.24-6.5-11.65-9.56-17.55a207.45,207.45,0,0,1-9-21,1.71,1.71,0,0,0-3.24.42c-.75,6.82,3.1,15.38,6,21.32,3.49,7.1,7.64,15.62,13.81,20.6a2.39,2.39,0,0,0,.22.12c-14.26,32.54-23.63,66.18-22.9,102.79C1115,531.75,1118.23,531.79,1118.28,529.9Z"/><path class="cls-21" d="M954.68,278c53,14.28,180.24,83.89,155.71,218.19,0,0-74.66-9.87-110.79-84.74C975.43,361.36,957.51,303.68,954.68,278Z"/><path class="cls-20" d="M1115.58,537.37c-4.51-30-14.19-57.31-27.41-83.3a.67.67,0,0,1-.2,0c-22-4.36-44-5.63-66.38-7.22a.19.19,0,0,1,0-.37c21.5-2.58,43.28-.39,64.5,3.51l-.62-1.23c-11.71-1.91-23.23-4.56-35-5.9-11.2-1.28-22.47-1-33.64-2.08-.48,0-.68-.82-.12-.91,20.78-3.22,46.09-.89,66.82,5.22-6.33-11.6-13.34-23-20.92-34.25-.9-1.34-1.82-2.65-2.73-4h0c-23.1-5.76-46.41-9.29-69.74-13.78-.52-.1-.38-.91.13-.91,22.39.23,45.07,4.71,66.73,10.48-1.7-2.48-3.38-5-5.1-7.45-22.39-5-44.42-11-67-15.17-.13,0-.1-.24,0-.23,21.8,2.71,44.12,6.2,65.17,12.81q-5-7.11-10.11-14.12a1.17,1.17,0,0,1-.77-1.05c-20.35-27.88-42.26-54.62-66.72-79-.34-.34.19-.84.54-.51a597.66,597.66,0,0,1,57.65,63.35c-1.73-12.49,1.51-27.39,6.5-38.3.14-.3.56-.06.51.22-1.31,7.37-2.9,14.8-3.56,22.26-.58,6.53.14,13.09-.49,19.57,2,2.5,3.87,5,5.79,7.54.75-15.83.41-31.34,5.68-46.61a.09.09,0,0,1,.18.05c-3.87,16.34-2.7,33.24-3.29,49.9q12.9,17.11,25,34.88c5.2,7.62,10.18,15.31,14.87,23.1,1.45-6.45,5.08-12.33,7.42-18.55a208.17,208.17,0,0,0,6.45-21.9,1.71,1.71,0,0,1,3.27,0c1.55,6.68-1.26,15.63-3.46,21.88-2.63,7.46-5.74,16.42-11.29,22.08a1.49,1.49,0,0,1-.2.15c18,30.63,31.28,62.93,34.88,99.37C1119,538.82,1115.86,539.23,1115.58,537.37Z"/><path class="cls-22" d="M1188.37,434.49c12.06-18.12,22.19-45.62,33.27-67.77,14.42-28.85,41.71-39,54.43-26.9s7.18,39.84-15.45,56.83C1231.53,418.5,1188.37,434.49,1188.37,434.49Z"/><path class="cls-11" d="M1183.5,438.21c29.26-25.78,56.71-53.75,83.66-81.74.21-.23-.17-.51-.38-.3-27.92,27.33-55.69,54.77-84.92,80.53C1182.42,437.19,1183,437.7,1183.5,438.21Z"/><path class="cls-23" d="M1117.06,458.69c-12.3-24.07-35.92-51.74-53.19-77.18-22.47-33.13-16.87-68.83,3.93-75.27s47.5,16.41,52.16,51.23C1126,402.24,1117.06,458.69,1117.06,458.69Z"/><path class="cls-11" d="M1118.13,466.22c-10.15-47.34-23.77-94.05-37.72-140.22-.11-.38-.65-.14-.55.23,12.64,46.82,25.5,93.55,35.64,140.85C1116.37,466.77,1117.25,466.5,1118.13,466.22Z"/><path class="cls-24" d="M452.57,452c-1.31-8.77-1.72-17.91,1-26.35s9.18-16.07,17.76-18.33c10.45-2.76,21.65,3,28.41,11.48s10,19.06,13.12,29.41c-3.82-14.26-7.68-28.86-6.47-43.57s8.5-29.79,21.75-36.3,32.26-1,36.74,13.1a43.17,43.17,0,0,1,1.51,10.39q1,16.18,2,32.37a67.83,67.83,0,0,1,37.31-52.48c10.42-5,24.69-6.43,32.05,2.5,6.08,7.36,4.58,18.28,1.59,27.35s-7.2,18.37-5.48,27.76c1-12,13.57-21.61,25.39-19.47q1.08,15.35,2.18,30.69c1.24-15.46,15.26-28.82,30.76-29.33s30.37,11.91,32.63,27.25c1.84,12.48-3.77,24.75-9.54,36-13,25.29-28.71,50.81-53.3,65.11C636.5,554.41,605.4,554.89,575.86,555c-29,.07-60.59-.79-82.71-19.48C482,526,476.81,513.35,470,500.89,461.59,485.41,455.19,469.59,452.57,452Z"/><path class="cls-25" d="M472.49,488.25c5.25-4.11,10-9.65,10.61-16.29s-4.47-14-11.13-13.65c6.51-.53,13.21-1.12,19-4.1s10.58-9,10.07-15.49-8-12.07-13.85-9.14c6.28-1.81,12.7-3.69,18-7.5s9.42-10,9-16.5c-.44-6.35-5.28-11.92-11.25-14.15s-12.79-1.39-18.57,1.29c9.23-7.13,18.09-15.05,24.21-25s9.27-22.14,6.38-33.43-12.69-21.1-24.32-21.93c-13.4-1-25.39,9.83-30.27,22.34s-4.27,26.41-3.58,39.82c.16-10.71-12.72-18.39-23-15.3s-16.74,13.95-17.48,24.63,3.19,21.16,8.05,30.71c-3.62-10.8-15.75-17.73-27-16.16s-20.8,10.94-23.39,22,25.22,75.91,25.22,75.91S457.65,499.88,472.49,488.25Z"/><path class="cls-26" d="M453.16,429.59c18.66-31.76,34.77-67.86,42.15-104.1a.12.12,0,0,0-.23-.08c-7.05,17-11.69,35-18.67,52A380.37,380.37,0,0,1,451,428.27c-19.13,32.07-43.12,60-69.32,86.39a.86.86,0,0,0,1.17,1.26C411.08,491.82,434.42,461.46,453.16,429.59Z"/><path class="cls-27" d="M541.49,567.61a90.29,90.29,0,0,0,48.73-42.16c2.13-4,4-8.36,4-12.91s-2.16-9.37-6.29-11.29c-3.5-1.63-7.72-.91-11.11.94s-6.1,4.68-8.76,7.47a106,106,0,0,0,18.16-30.88c2-5.19,3.18-11.89-1-15.57-2.91-2.59-7.51-2.45-11-.71s-6.13,4.77-8.68,7.73c41.08-41.42,20.59-71.13-2.52-41.72,1.39-16.53,20.19-65.49-9.84-66.86s-21.2,52.53-20,66.64C530,420.66,519,397.18,508,403.18c-15.95,8.7-3.83,39,6.21,62.17-5.35-6.66-11-13.55-18.78-17.1s-18.33-2.57-23.16,4.49c-4.15,6.06-2.84,14.25-.6,21.25a102,102,0,0,0,26.61,42.55c-4.82-2.72-9.83-5.51-15.35-6s-12.11,1.94-13.68,7.25C459.55,550.62,537.9,571.08,541.49,567.61Z"/><path class="cls-17" d="M574.5,480.71c-10.25,12.84-21.64,24.85-31.89,37.67q1.23-18.58,2.29-37.2c9.18-13.54,16.59-28.47,24-43,.31-.6-.58-1.16-.91-.56-7.29,13.41-15.49,26.31-22.87,39.65,2-35.23,3.84-70.49,6.29-105.68,0-.35-.51-.35-.54,0-3,33.9-6.2,67.92-8.75,102-7-14.62-16-28.41-23.07-43-.11-.23-.45,0-.35.2,6.58,15.41,13.28,32,23.21,45.61q-1.59,21.6-2.77,43.21c-13.33-12.19-27.72-21.61-37.57-37.39-.22-.36-.8-.05-.58.33a114.25,114.25,0,0,0,38.06,38.88q-1.12,21.31-1.67,42.61a.94.94,0,0,0,1.87,0q1.8-21.47,3.19-43c12.46-11.48,22.95-26.16,32.28-40.14C574.83,480.7,574.61,480.58,574.5,480.71Z"/><path class="cls-28" d="M686.4,495.19s-14-108.65-4.14-184.37c6-46.44,15.19-100.7,48-134.13,25.68-26.19,54.81-5.74,59.67,24.66,6.74,42.19-10.93,101.21-24.69,141C738.29,420.31,686.4,495.19,686.4,495.19Z"/><path class="cls-20" d="M782.82,239.43a592.93,592.93,0,0,0-59.94,60.67c.86-3.75,1.72-7.51,2.62-11.26h0c19.34-22.58,39.67-44.42,60.76-65.38.06-.07,0-.18-.09-.12a780.48,780.48,0,0,0-59.61,61c8.32-34.26,17.95-68.18,27.81-102.11.07-.26-.31-.43-.4-.17q-4.61,14.67-9.05,29.35.42-14.58-.21-29.14c0-.1-.15-.07-.15,0q.49,15.57-.26,31.14c-11.47,37.93-22,76-30,114.87a930.75,930.75,0,0,0-9.17-100.14c0-.09-.15-.07-.14,0,4.47,34.62,7,69.4,8.45,104.27q-1.27,6.31-2.48,12.65-1,5.3-2,10.58c-1.38-36.65-7.17-73.27-9.65-109.84,0-.11-.19-.09-.18,0,3.55,38.41,3.48,77.46,8.71,115.69-9.9,52.17-20.17,104.73-26.66,157.32a.86.86,0,0,0,1.71.22c9-40.43,15.32-81.53,21.93-122.52,22.34-11.76,38.55-34,53.6-53.55a.29.29,0,0,0-.45-.35c-15.88,19.67-32.06,37.18-52.78,51.6.7-4.29,1.39-8.59,2.09-12.87,21.6-17.7,39.66-38.9,55.87-61.51.07-.1-.07-.21-.14-.11-16,21.69-35.06,40.67-55.2,58.43,1.62-9.77,3.27-19.54,5-29.28,2.71-15.18,5.82-30.27,9.22-45.27a728.86,728.86,0,0,1,61-64C783.13,239.53,783,239.31,782.82,239.43Z"/><path class="cls-29" d="M502.84,446.86c5.71-20.88,16.21-41.05,33-54.72,28.67-23.33,69.41-23.62,106.1-19.09,10.2,1.26,21.2,3.23,28.17,10.78,7.27,7.88,8.12,19.67,7.3,30.36A136.63,136.63,0,0,1,567.48,537.9c-13.29,2.61-27.28,3.19-40.22-.81S498,521.56,495.05,507.43C491.37,490.05,498.23,463.68,502.84,446.86Z"/><path class="cls-26" d="M669.11,396.71q-12.63,6-25.32,12.3c4.3-6.49,7.43-14,10.2-21.17.11-.3-.4-.52-.53-.22-3.62,8.1-8.43,15.26-12.77,22.92L638,411.85c5.56-8.29,8.52-17.88,11.34-27.54.06-.18-.21-.25-.27-.07-3.69,10.37-7.73,20.54-14.45,29.3-19.91,10-39.62,20.65-58.45,32.48,3.55-19.89,6-39.29,12.38-58.65.12-.35-.42-.49-.55-.15-7.15,18.84-13.75,39.76-13.91,60.13q-6.81,4.33-13.48,8.89c2.74-22,5.28-43.34,11.26-64.93.13-.45-.53-.62-.69-.19-7.47,20.82-13.31,44.47-13,66.84-3.7,2.58-7.36,5.19-11,7.88a260.08,260.08,0,0,0-33.48,29.53c1.57-9.69,2.16-19.61,4.16-29.28a203,203,0,0,1,10.3-34c.09-.22-.29-.38-.4-.17-9.27,19.64-18.78,44.51-17.14,66.83C495,516.14,482.52,536.25,477.32,559a1.72,1.72,0,0,0,3.31.91c10.71-27.41,26.72-50.64,46.89-70.59,19.83-1.2,41.61,7.65,59.71,13.62,1,.32,1.67-1.23.72-1.7-10.76-5.31-22.24-8.67-34-11.09-8-1.66-16.3-3.32-24.45-2.81,1.62-1.56,3.26-3.11,4.93-4.63,24.74-1.31,47.65,6.56,71.47,12.62a.86.86,0,0,0,.46-1.66c-22.25-8.56-46.61-14.9-70.53-12.22a258.7,258.7,0,0,1,21.55-17.33c11.31-8.16,23-15.84,35-23.19a152.81,152.81,0,0,1,40,16.94.21.21,0,0,0,.26-.33c-9.45-9-24.7-15.79-37.89-18q5.31-3.25,10.68-6.43c7,1.13,13.62,1.79,20.24,4.71a175.43,175.43,0,0,1,18.57,10c.81.48,1.45-.7.72-1.23-9.84-7.19-22.92-16.65-36-15.54,8.27-4.82,16.63-9.49,25-14.1a.76.76,0,0,0,.38-.21c11.76-6.46,23.59-12.77,35.37-19C670.35,397.35,669.77,396.39,669.11,396.71Z"/><path class="cls-30" d="M551.28,300.62c-51,20.44-169.08,104.58-128.87,235,0,0,73-18.62,100-97.23C540.51,385.82,551.5,326.43,551.28,300.62Z"/><path class="cls-20" d="M422.12,577.15c.93-30.35,7.32-58.58,17.38-85.95a1.36,1.36,0,0,0,.2,0c21.38-6.94,43.07-10.8,65.07-15a.19.19,0,0,0,0-.37c-21.65,0-43,4.72-63.64,11.1.17-.43.31-.87.48-1.3,11.39-3.27,22.53-7.26,34.11-10,11-2.59,22.19-3.61,33.16-6,.47-.11.57-.9,0-.92-21-.75-45.87,4.55-65.73,13.07,4.92-12.27,10.53-24.4,16.73-36.48.73-1.44,1.5-2.85,2.24-4.28h0c22.26-8.44,45-14.7,67.63-21.91.5-.16.27-.95-.24-.89-22.21,2.87-44.2,10-65,18.28,1.4-2.67,2.77-5.34,4.19-8,21.64-7.61,42.81-16.18,64.77-23,.13,0,.07-.26-.06-.23-21.33,5.26-43.08,11.37-63.2,20.41,2.74-5.1,5.54-10.16,8.37-15.22a1.15,1.15,0,0,0,.64-1.13c16.92-30.08,35.52-59.22,56.93-86.32.29-.37-.29-.81-.59-.44a595.73,595.73,0,0,0-49.78,69.72c.25-12.62-4.72-27-11-37.27-.18-.29-.56,0-.48.27,2.17,7.17,4.63,14.36,6.16,21.69,1.34,6.41,1.41,13,2.8,19.38-1.65,2.71-3.25,5.44-4.86,8.17-2.61-15.64-4.11-31.08-11.14-45.62a.09.09,0,0,0-.17.07c5.77,15.77,6.6,32.69,9.16,49.16q-10.81,18.53-20.71,37.59c-4.26,8.19-8.3,16.41-12,24.7-2.2-6.24-6.5-11.65-9.55-17.55a209.82,209.82,0,0,1-9-21,1.71,1.71,0,0,0-3.24.42c-.75,6.82,3.1,15.38,6,21.32,3.5,7.1,7.65,15.62,13.82,20.6a1.14,1.14,0,0,0,.22.12c-14.26,32.54-23.64,66.18-22.91,102.79C418.85,579,422.06,579,422.12,577.15Z"/><path class="cls-31" d="M607.19,410.86c.65-4.86,1.33-9.78,2-14.68l17.77,9-16.38-18.47c5.26-34.93,11.1-66.38,11.1-66.38s26.85,54.15,44.66,97.11l-10.2,18.24,13.24-10.77c7.68,19.15,13,35.09,12.32,41.36-.85,8.23-22.53,28.07-35.53,29.88s-39.27-11.34-42.34-19-.9-33.57,2.8-62.26Z"/><rect class="cls-32" x="386.95" y="495.93" width="18.06" height="67.38" transform="translate(875.29 985.21) rotate(170.33)"/><path class="cls-33" d="M307.63,493.1c6.1,14,50.89,35.92,79.27,37a39.28,39.28,0,0,0,17.81-3c15.74-6.21,34.54-21.34,47.39-35.77,8.72-9.78,14.7-19.23,15.14-25.39.75-10-6.28-31.92-17.44-59.45-3.18-7.88-6.7-16.25-10.5-24.92l-26.57,23,19.83-38.15c-17.53-39-97.69-197.22-97.69-197.22s-16.93,120.19-19,137.42l34.86,37-37.14-17.44c-1.14,10.14-2.26,20.31-3.28,30.38l19.48,15.21-20.3-7C303.69,424,300.92,477.66,307.63,493.1Z"/><path class="cls-34" d="M470.88,532.1l-41.44,10.16s5.61-198.49,111.16-178.47Z"/><path class="cls-35" d="M658.41,486.15S579,349.77,522.8,363.53c-18.14,6-44.11,64-48.23,98.42a559.37,559.37,0,0,0-3.69,70.15Z"/><path class="cls-32" d="M599.94,483.23s-14.58-67.69-55.48-61.4c-44.81,7.06-23.08,80.65-23.08,80.65Z"/><path class="cls-36" d="M474.57,462c26.05-85.56,66-98.16,66-98.16s28.8,10.65,62.76,46.21c0,0-34.45-54.86-62.76-52.45C488,362,474.57,462,474.57,462Z"/><path class="cls-32" d="M455.48,430.41a251.67,251.67,0,0,0-11.67,50.07,126.87,126.87,0,0,0,22.34-2.66q2.42-25.15,6.57-50.11C467,428.66,461.22,429.45,455.48,430.41Z"/><path class="cls-37" d="M1517.74,543.3q13.21-41.91,29.73-82.68,5.4-13.33,11.21-26.52a1.18,1.18,0,0,1-.57.08c-1.7-.23-5-5.19-6.12-6.51-2-2.24-3.86-4.55-5.64-6.95a44.05,44.05,0,0,1-6.94-12.21c-1.49-4.46-1.75-9.48.12-13.8s6.11-7.73,10.81-7.85c6.24-.14,11.44,5.43,13,11.46s.43,12.41-.74,18.54l-2,10.28c-.16.84-.25,2.2-.44,3.49q8.84-19.74,18.79-39a.93.93,0,0,1-.33,0c-1.49-.36-3.9-5.08-4.8-6.36-1.51-2.18-3-4.41-4.31-6.71a39.22,39.22,0,0,1-5-11.5,17.43,17.43,0,0,1,1.45-12.22c2.08-3.64,6.17-6.26,10.35-5.9,5.54.48,9.61,5.92,10.43,11.43s-.83,11-2.46,16.36l-2.74,8.91c-.14.48-.29,1.16-.45,1.88q9.11-17.2,19.23-33.83c-1.39-.82-3.39-4.67-4.17-5.78-1.42-2.05-2.79-4.14-4-6.29a36.91,36.91,0,0,1-4.65-10.78,16.35,16.35,0,0,1,1.36-11.45c2-3.41,5.78-5.87,9.7-5.53,5.19.45,9,5.55,9.77,10.71s-.78,10.35-2.31,15.33q-1.27,4.19-2.56,8.35c-.06.21-.13.46-.19.74q6.72-10.75,13.9-21.21a484.19,484.19,0,0,1,44.1-55.13q2.65-2.85,5.39-5.72a28.4,28.4,0,0,1-1.3-4c-.54-1.56-1-3.14-1.43-4.73a23.94,23.94,0,0,1-1-7.69,10.72,10.72,0,0,1,2.93-7,7,7,0,0,1,7.16-1.77c3.23,1.23,4.72,5.16,4.28,8.58s-2.36,6.43-4.24,9.32l-1.34,2.07c5.87-6,12-11.89,18.29-17.46a19.48,19.48,0,0,1-1-3c-.4-1.17-.78-2.37-1.08-3.58a18.6,18.6,0,0,1-.77-5.83,8.18,8.18,0,0,1,2.23-5.33,5.3,5.3,0,0,1,5.43-1.33c2.44.93,3.57,3.91,3.24,6.49s-1.8,4.88-3.22,7.08l-2,3.1c3.61-3.08,7.32-6,11.11-8.84,0-.78,1.15-2.68,1.44-3.31.52-1.13,1.08-2.25,1.7-3.34a18.3,18.3,0,0,1,3.48-4.74,8.16,8.16,0,0,1,5.29-2.3,5.32,5.32,0,0,1,4.85,2.79c1.12,2.36-.13,5.3-2.16,6.93s-4.67,2.28-7.21,2.88l-4.26,1c-.22,0-.5.15-.82.25q-5.47,4.89-10.92,9.77a25.53,25.53,0,0,1,8.77-3.32,10.12,10.12,0,0,1,5.46.51,4.76,4.76,0,0,1,3,4.3,4.82,4.82,0,0,1-2.92,3.9,11.17,11.17,0,0,1-5,.77c-4.14-.11-9.17-.83-12.8-3-12.51,11.28-24.74,22.78-36,35.61-3.47,4-6.85,8-10.16,12,6-5.46,15.86-9.55,21.89-10.33,3.33-.43,6.84-.45,9.91.93s5.56,4.46,5.4,7.82c-.15,3.09-2.5,5.75-5.31,7.06a20.18,20.18,0,0,1-9.1,1.41c-7.71-.21-17.13-1.56-23.75-5.73q-5.82,7.16-11.33,14.5a42,42,0,0,1,10.13-6.71c3.09-1.33,6.46-2.31,9.79-1.82s6.56,2.77,7.32,6c.71,3-.83,6.22-3.17,8.25a20.13,20.13,0,0,1-8.36,3.84c-7.2,1.84-16.2,3.06-23.57,1.18a592.06,592.06,0,0,0-43.61,72.69c4.75-8.41,15.14-16.73,22-19.66,3.63-1.55,7.59-2.7,11.49-2.13s7.7,3.24,8.6,7.09c.82,3.53-1,7.3-3.72,9.67s-6.3,3.61-9.82,4.51c-8.82,2.26-20,3.76-28.81,1.12-14.75,28.9-27.62,58.85-39.52,89.2,5.3-10.75,16.46-21.7,24.25-26.11,4.38-2.48,9.24-4.49,14.28-4.3s10.22,3,11.89,7.78c1.55,4.38-.21,9.4-3.36,12.8s-7.49,5.45-11.83,7.09c-10.84,4.08-24.72,7.54-36.28,5.46-7.55,19.38-14.72,38.9-21.75,58.41C1519,544.71,1517.42,544.31,1517.74,543.3Zm66.2-132.83c-7.41,4.2-18.32,15.15-22.37,25.31,10.19,1.88,22.45-1.18,32-4.78,3.81-1.44,7.62-3.24,10.39-6.23s4.31-7.4,3-11.24c-1.47-4.18-6-6.68-10.46-6.84S1587.79,408.29,1583.94,410.47Zm101.42-149.68c-4.66.6-12.52,3.93-16.71,8.28,4.82,3.09,11.73,4.08,17.37,4.23a14.67,14.67,0,0,0,6.61-1,6.36,6.36,0,0,0,3.86-5.14,6.3,6.3,0,0,0-3.93-5.67A13.33,13.33,0,0,0,1685.36,260.79Zm-61,75.75c-6.54,2.81-16.6,10.9-20.89,19,8.29,2.49,18.75,1.08,27-1,3.3-.84,6.62-2,9.2-4.22s4.26-5.75,3.48-9.07c-.83-3.6-4.4-6.1-8-6.64S1627.78,335.08,1624.38,336.54Zm13.81-56.75c.56,2.19,1.24,4.36,2,6.5.43,1.26,1.31,5.69,2.44,6.33,1.48.85,3-2.85,3.83-4.21l4.32-6.67c2.58-4,5.22-8.14,5.83-12.84s-1.45-10.11-5.89-11.8a9.61,9.61,0,0,0-9.85,2.43,14.77,14.77,0,0,0-4,9.67A33.72,33.72,0,0,0,1638.19,279.79Zm-96.07,184c1.32-7,2.64-14.24.83-21.1s-7.72-13.21-14.82-13c-5.36.12-10.18,4-12.31,8.93s-1.83,10.62-.14,15.7,4.69,9.62,7.91,13.9c2,2.73,4.18,5.36,6.41,7.92,1.31,1.49,5,7.14,7,7.39,2.53.33,2.47-5.61,2.92-8Q1541,469.63,1542.12,463.77ZM1618,313c.76,1.09,2.82,5.11,4.08,5.41,1.66.41,2-3.54,2.53-5.1.78-2.53,1.55-5.06,2.33-7.59,1.39-4.54,2.8-9.26,2.1-13.95s-4.16-9.33-8.89-9.74c-3.56-.31-7,1.93-8.82,5a14.86,14.86,0,0,0-1.24,10.41,33.59,33.59,0,0,0,4.23,9.81C1615.43,309.19,1616.68,311.1,1618,313Z"/><path class="cls-38" d="M1274.25,455.25c-1.31-8.78-1.72-17.92,1-26.35s9.18-16.07,17.76-18.34c10.45-2.76,21.65,3.05,28.41,11.48s10,19.06,13.12,29.41c-3.82-14.25-7.67-28.85-6.46-43.56s8.5-29.8,21.74-36.31,32.26-1,36.74,13.1a43.24,43.24,0,0,1,1.51,10.39l2,32.38A67.84,67.84,0,0,1,1427.45,375c10.43-5,24.69-6.43,32.06,2.49,6.07,7.36,4.57,18.29,1.59,27.35s-7.2,18.37-5.49,27.76c1-12,13.57-21.61,25.39-19.46q1.1,15.33,2.18,30.68c1.25-15.45,15.27-28.82,30.76-29.33s30.37,11.91,32.63,27.25c1.84,12.48-3.77,24.75-9.54,36-13,25.29-28.71,50.81-53.3,65.1-25.54,14.85-56.65,15.32-86.19,15.39-29,.07-60.59-.78-82.71-19.48-11.17-9.44-16.33-22.12-23.12-34.58C1283.27,488.63,1276.87,472.81,1274.25,455.25Z"/><rect class="cls-32" x="1410.61" y="495.93" width="18.06" height="67.38" transform="translate(109.12 -230.91) rotate(9.67)"/><path class="cls-33" d="M1508,493.1c-6.1,14-50.89,35.92-79.27,37a39.28,39.28,0,0,1-17.81-3c-15.74-6.21-34.54-21.34-47.39-35.77-8.72-9.78-14.7-19.23-15.14-25.39-.75-10,6.28-31.92,17.44-59.45,3.18-7.88,6.7-16.25,10.5-24.92l26.57,23-19.83-38.15c17.53-39,97.68-197.22,97.68-197.22s16.94,120.19,19,137.42l-34.85,37L1502,326.13c1.14,10.14,2.26,20.31,3.28,30.38l-19.48,15.21,20.3-7C1511.93,424,1514.7,477.66,1508,493.1Z"/><path class="cls-35" d="M1758.57,531.55l42.65-1.6s-59.84-189.34-155.85-141.14Z"/><path class="cls-34" d="M1565.64,538.79s39-152.94,96.78-155.11c19.09.83,60,49.46,73.37,81.42a558.11,558.11,0,0,1,22.78,66.45Z"/><path class="cls-32" d="M1621.07,520s-4.55-69.1,36.5-74.27c45-5.49,44.32,71.23,44.32,71.23Z"/><path class="cls-36" d="M1735.79,465.1c-48.52-75.14-90.42-76.29-90.42-76.29s-24.77,18.14-47.68,61.65c0,0,18.08-62.2,46-67.65C1695.52,372.66,1735.79,465.1,1735.79,465.1Z"/><path class="cls-39" d="M223.93,506.13c30.17-55.61,14.66-107.16-4.27-154.59-4.83-12.11-10.79-24.11-20.19-33.14s-22.82-14.71-35.59-12.09c-14.47,3-25.39,16.28-28.38,30.75s.92,29.66,7.8,42.73c-4.69-5.21-9.52-10.54-15.78-13.7s-14.35-3.68-19.93.55c-7.2,5.46-7.53,16.06-6.34,25a142.54,142.54,0,0,0,17.52,51.89c-3.48-5.6-7-11.31-12.18-15.44s-12.21-6.46-18.43-4.29-10.31,8.39-11.53,14.84-.13,13.14,1.76,19.42C102.23,537.28,183,546.63,183,546.63S205.66,539.8,223.93,506.13Z"/><path class="cls-17" d="M161.16,331.47a.51.51,0,0,0-1,.3c11,38.7,22.71,76.53,29.26,116.37,6.66,40.54,7.53,81.17,11.06,122a1.48,1.48,0,0,0,2.95-.07c3.71-39.72-2-81.12-9-120.16C187.18,410,177.6,368.62,161.16,331.47Z"/><path class="cls-40" d="M176.08,547.77c-18.65-11.24-46.57-20.13-69.2-30.2-29.46-13.12-40.8-39.93-29.31-53.18s39.48-8.95,57.47,12.89C158.17,505.37,176.08,547.77,176.08,547.77Z"/><path class="cls-11" d="M180,552.47c-27.07-28.08-56.24-54.25-85.41-79.92-.23-.2-.5.19-.28.4,28.55,26.67,57.21,53.17,84.26,81.22C179,553.6,179.52,553,180,552.47Z"/><path class="cls-41" d="M189.72,548.22c-7.2-26.05-24.77-57.9-36.56-86.3-15.34-37-2.67-70.83,19-72.94s43.22,25.64,40.77,60.68C209.79,494.73,189.72,548.22,189.72,548.22Z"/><path class="cls-11" d="M189.25,555.81c-.41-48.41-4.34-96.9-8.71-144.94,0-.38-.61-.26-.58.12,2.94,48.41,6.13,96.77,6.54,145.14C187.42,556,188.33,555.91,189.25,555.81Z"/><path class="cls-35" d="M42.64,546,0,544.42S59.83,355.07,155.85,403.28Z"/><path class="cls-34" d="M235.58,553.25s-39-152.94-96.78-155.1c-19.09.82-60,49.45-73.37,81.41A557.82,557.82,0,0,0,42.64,546Z"/><path class="cls-32" d="M180.15,534.41s4.55-69.09-36.51-74.26c-45-5.5-44.31,71.23-44.31,71.23Z"/><path class="cls-36" d="M65.43,479.56c48.51-75.13,90.42-76.28,90.42-76.28s24.77,18.14,47.67,61.65c0,0-18.08-62.21-46-67.66C105.7,387.13,65.43,479.56,65.43,479.56Z"/><text class="cls-42" transform="translate(594.21 304.12) rotate(16.3)">Z</text><path class="cls-31" d="M846.61,474.19a26.72,26.72,0,0,1,37.46-22.94c3.25-21.66,18.75-43,38-53.47a72.36,72.36,0,0,1,63.36-2.4c13.45-10.79,35.13-9.71,49.89-.79s23,27.49,19.7,44.42c4.86-3.68,12.57-3.91,18.23-1.66a18.15,18.15,0,0,1,11,13.62c17.34-20.21,49.6-28.16,73.31-16s37.18,41.43,31,67.32Z"/><path class="cls-43" d="M672.73,494.44c-6.55-9.87-1.52-24.08,7.86-31.32s21.71-9.18,33.49-10.41,24-2.09,34.44-7.73c12.79-6.92,20.88-19.9,30.62-30.7s23.94-20.27,38-16.48c17.21,4.65,24.78,26.48,41.53,32.61,13,4.75,27.15-1.35,40.92-2.72,27.91-2.79,56.36,17,63.47,44.12"/><path class="cls-44" d="M1423,558c-138-53.86-318.18-86.46-515.23-86.46S530.62,504.18,392.58,558v31.67H1423Z"/><path class="cls-45" d="M1177.57,529.09l1.31,2.62"/><path class="cls-45" d="M1181.86,531.88c0-1.59-.08-3.17-.13-4.76"/><path class="cls-45" d="M1186.89,534.17c.21-1.53.42-3.06.64-4.59"/><path class="cls-45" d="M842.9,495c.35.76.7,1.52,1.06,2.28"/><path class="cls-45" d="M848.06,490.77v4.41"/><path class="cls-45" d="M853.08,493.81l-.46,3.5"/><path class="cls-45" d="M487.68,559.67l1.18,1.54"/><path class="cls-45" d="M492.56,557.68v3.64"/><path class="cls-45" d="M1280.83,557.19l1.07,2.28"/><path class="cls-45" d="M1286,552.94v4.41"/><path class="cls-45" d="M1291,556l-.45,3.49"/><path class="cls-45" d="M781.38,539.57l1.18,1.55"/><path class="cls-45" d="M786.26,537.58v3.65"/><path class="cls-45" d="M562.28,557l1.63,4.54"/><path class="cls-45" d="M568.13,553.13l-.33,8.12"/><path class="cls-45" d="M572.35,562.22c.32-1.19.65-2.38,1-3.57"/><path class="cls-45" d="M1092.27,566.42c.55,1.52,1.09,3,1.63,4.55"/><path class="cls-45" d="M1098.12,562.53l-.33,8.11"/><path class="cls-45" d="M1102.34,571.61c.32-1.19.65-2.38,1-3.57"/><path class="cls-45" d="M929,553.93l1.62,4.55"/><path class="cls-45" d="M934.79,550l-.33,8.11"/><path class="cls-45" d="M939,559.13c.32-1.19.65-2.38,1-3.57"/><path class="cls-45" d="M658.86,518.38l1.62,4.54"/><path class="cls-45" d="M664.7,514.48c-.11,2.71-.21,5.41-.32,8.12"/><path class="cls-45" d="M668.92,523.57c.33-1.19.65-2.38,1-3.57"/><path class="cls-45" d="M1366.16,571.2c.54,1.51,1.08,3,1.63,4.54"/><path class="cls-45" d="M1372,567.3l-.33,8.12"/><path class="cls-45" d="M1376.23,576.39c.32-1.19.64-2.38,1-3.57"/><path class="cls-45" d="M423.92,568l1.62,4.55"/><path class="cls-45" d="M429.76,564.15c-.11,2.7-.21,5.41-.32,8.11"/><path class="cls-45" d="M434,573.24c.33-1.19.65-2.38,1-3.57"/><polygon class="cls-46" points="1103.88 246.49 1110.43 317.56 1088.55 315.51 1089.09 251.49 1103.88 246.49"/><polygon class="cls-47" points="1100.01 311.42 1099.49 288.36 1114.11 288.36 1113.54 315.34 1100.01 311.42"/><path class="cls-48" d="M1120.44,324.18a15.31,15.31,0,0,1-15.21,15.41c-1.56,0-39.88-.59-41.3-1-6.21-1.94-8-19.72-8-26.65,0-8.51,40.86-3.15,49.26-3.15A15.31,15.31,0,0,1,1120.44,324.18Z"/><g class="cls-49"><path class="cls-31" d="M1150.89,514.63c0,4.68-34.06,8.47-76.09,8.47s-76.09-3.79-76.09-8.47,34.07-8.46,76.09-8.46S1150.89,510,1150.89,514.63Z"/></g><path class="cls-50" d="M1161.91,204.29s8.09-8.08,10.1-9.31,9.63-3.39,10-2.68-7.08,5.53-7.08,5.53,21.69-2.58,22.64-1.61-13.85,4.05-13.85,4.05,14.31-.85,14.44.63-14.32,3.19-14.32,3.19,14,.43,14.28,1.74-14.87,2.5-14.87,2.5,9.1.76,9.28,2-19.68,1-19.68,1l-6.93,2.32Z"/><polygon class="cls-36" points="1024.96 513.73 1025.84 510.2 990.85 500.4 990.04 503.42 1024.96 513.73"/><polygon class="cls-50" points="1011.65 490.34 1030.46 374.35 1053.49 386.45 1025.84 510.2 1011.65 490.34"/><path class="cls-36" d="M1019.22,443.68l-7.56,46.66,14.18,19.86,13.47-60.26C1032.61,447.85,1025.94,445.69,1019.22,443.68Z"/><path class="cls-47" d="M1025.84,510.2l2.71-12.1-16.89-7.76-1.36,6.24s-17.71-1-19.45,3.82Z"/><polygon class="cls-36" points="1124.85 503.49 1123.35 500.17 1156.05 484.31 1157.38 487.14 1124.85 503.49"/><polygon class="cls-50" points="1133.79 478.11 1098.81 379.04 1076.23 384.42 1123.35 500.17 1133.79 478.11"/><path class="cls-36" d="M1100,442.93l23.31,57.24,10.44-22.06-15.74-44.57C1112,436.6,1106,439.79,1100,442.93Z"/><path class="cls-47" d="M1123.35,500.17l-4.81-11.42,15.25-10.64,2.43,5.9s17.26-4.13,19.83.3Z"/><polygon class="cls-46" points="1077.81 388.31 1107.11 381.59 1091.97 329.77 1034.98 326.74 1021.24 380.17 1053.49 386.45 1062.5 348.41 1077.81 388.31"/><path class="cls-48" d="M1103.88,382.33l-1.34.31c-5.18-15.39-10.13-30.72-14-42.94a11.59,11.59,0,0,1-1.13-1.08c-2.29-2.54-3.29-6-3.77-9.3l1.41.08c.46,3,1.38,6.08,3.38,8.3a16.4,16.4,0,0,0,7.12,4.17l.46,1.55a23.13,23.13,0,0,1-5.6-2.38C1094.2,353,1098.94,367.64,1103.88,382.33Zm-63.08-48.64a27.91,27.91,0,0,0,3.46-6.46l-1.43-.07a26.38,26.38,0,0,1-11.33,13.11l-.47,1.81A28.1,28.1,0,0,0,1040.8,333.69Zm22.6,17.07.26.44-.08-2.66a148.5,148.5,0,0,1,.67-20.25l-1.36-.07a147.79,147.79,0,0,0-.75,17.42,27.73,27.73,0,0,1-1.75-17.55L1059,328a29.11,29.11,0,0,0,.18,13.29c-2.12,8.55-4.44,17.22-6.7,25.6-1.62,6-3.28,12.22-4.87,18.4l1.35.26c1.59-6.14,3.24-12.3,4.85-18.3,2.06-7.66,4.17-15.56,6.14-23.39a27.73,27.73,0,0,0,2.33,5l.06.09"/><path class="cls-36" d="M1036,321.5l-1,5.24s34.84,6.75,57,3l-.31-5Z"/><path class="cls-51" d="M1164.28,216.54v0l-6.74-12.63a3.9,3.9,0,0,0-5.27-2.14l-76.08,34.79-19.33,1.68,0,0-50.3-54.55a5.47,5.47,0,0,0-7.13-.79l-.16.11-11.4,8.66a5.46,5.46,0,0,0-.44,7.39l52.2,61.36-5.45,50.6-1,6.15a3.81,3.81,0,0,0,2.88,4.34c8.35,2,32.58,6,55.71,3.31a4.42,4.42,0,0,0,3.92-4.47l-1.14-59.77,68-39A3.91,3.91,0,0,0,1164.28,216.54Z"/><path class="cls-47" d="M1078.27,235.57l7.52-3.46s.77,35.63,9.14,54.3l.25,12.72S1078.73,284.94,1078.27,235.57Z"/><path class="cls-47" d="M1052.25,233.29h0c-6.39,8-12,27.53-12.68,27.12l-3.22,32.77,20-55.49Z"/><path class="cls-36" d="M1059.75,232.09a5.7,5.7,0,0,0-3.61,3.49c-1,2.29-2.8,14.72-.44,15.64s9.43-9,9.43-9,7.78,10.16,9.76,9.87,7.12-17.86.76-20.14C1071.24,230.4,1059.75,232.09,1059.75,232.09Z"/><path class="cls-52" d="M1070.92,180.37a26.17,26.17,0,0,1-6.91-17.12,22.44,22.44,0,0,0,6.45,10.38,77,77,0,0,0,6.65,4.81,18.84,18.84,0,0,1,5.73,5.79,8.54,8.54,0,0,1,.58,7.86c2.49,0,4.58,2.11,5.28,4.49a9.58,9.58,0,0,1-1.08,7.19c-2.62,4.77-5.72,6.88-11.14,6.38,3.27-4,3.51-7.46,3.9-12.62a16.36,16.36,0,0,0-2.53-9.46C1076.14,185.23,1073.18,182.81,1070.92,180.37Z"/><path class="cls-52" d="M1055.06,187.59c-3.26,4.4-5.87,8.08-9,12.59.62-6.21,1.62-10.52,5.74-16.53A10,10,0,0,0,1055.06,187.59Z"/><path class="cls-52" d="M1073.12,217.25a4.68,4.68,0,0,0,4,4,15.41,15.41,0,0,0-.48-4.69,2,2,0,0,0-.8-1.3,1.43,1.43,0,0,0-1.66.36C1073.7,216.07,1073.06,216.64,1073.12,217.25Z"/><path class="cls-50" d="M1074,232.62l.49-15.88s7.34,5.5,10.16-1c2.51-5.82-3.88-8.38-7.93-6.57,0,0,12.41-19.17-5.22-26.68s-25.8,17.3-27.81,23.3c-3.54,10.56,2.43,18.1,7.76,20.4l7.42,1.13s-.09,3.75-.12,5.1c-.07,3.05-.75,5.84,4.17,7.72l.21.08A8.19,8.19,0,0,0,1074,232.62Z"/><path class="cls-52" d="M1066.25,203.85a2,2,0,1,1-1.68-2.37A2.06,2.06,0,0,1,1066.25,203.85Z"/><path class="cls-52" d="M1056.17,201.11a2.05,2.05,0,1,1-1.67-2.37A2.05,2.05,0,0,1,1056.17,201.11Z"/><path class="cls-53" d="M1056.14,209.4a.53.53,0,0,0,.62-.25.54.54,0,0,0-.2-.75c-.9-.53-1.31-1-1.37-1.49-.1-.82.65-2,2.18-3.48a.55.55,0,0,0,0-.78.56.56,0,0,0-.78,0c-1.86,1.78-2.66,3.17-2.52,4.4a3.32,3.32,0,0,0,1.92,2.31Z"/><path class="cls-53" d="M1054.21,212.19h0a7.63,7.63,0,0,0,5.37-.6.55.55,0,1,0-.5-1,6.59,6.59,0,0,1-4.59.52.55.55,0,1,0-.29,1.06Z"/><path class="cls-53" d="M1076.69,214.41a.56.56,0,0,0,.65-.32A2.93,2.93,0,0,1,1082,213a.55.55,0,0,0,.78,0,.56.56,0,0,0,0-.78,4,4,0,0,0-6.44,1.43.56.56,0,0,0,.3.72Z"/><path class="cls-53" d="M1079.35,214.57a.56.56,0,0,0,.66-.72l-.67-1.9a.54.54,0,0,0-.7-.33.55.55,0,0,0-.34.7l.68,1.9A.54.54,0,0,0,1079.35,214.57Z"/><path class="cls-53" d="M1070.45,198.43a.67.67,0,0,0,.59-.13.65.65,0,0,0,.08-.91,7.17,7.17,0,0,0-6.66-2.42.65.65,0,0,0-.53.75.66.66,0,0,0,.75.52,6,6,0,0,1,5.45,2A.69.69,0,0,0,1070.45,198.43Z"/><path class="cls-53" d="M1058.83,195.13a.65.65,0,0,0,.47,0,.66.66,0,0,0,.27-.88A5.22,5.22,0,0,0,1053,192a.64.64,0,0,0,.54,1.17,3.94,3.94,0,0,1,4.93,1.64A.58.58,0,0,0,1058.83,195.13Z"/><path class="cls-54" d="M1068.12,222.64s-9.35,3.71-14.38,3.86l5.1.78s0,1.21-.06,2.5C1065.92,227.69,1068.12,222.64,1068.12,222.64Z"/><path class="cls-55" d="M1062.23,210.69a3,3,0,1,0,3-2.91A3,3,0,0,0,1062.23,210.69Z"/><path class="cls-55" d="M1045.17,206.1a3,3,0,1,0,3-2.91A3,3,0,0,0,1045.17,206.1Z"/><path class="cls-36" d="M1157.53,203.88s6-4.1,7.27-2.43l4.69,11c.25,2.26-1.73,2.41-5.22,4.08Z"/><path class="cls-50" d="M995.06,181.54s-4-10.72-5.28-12.68-7.34-7.1-7.95-6.6,4.12,8,4.12,8-18.63-11.4-19.9-10.92,10.89,9.47,10.89,9.47-12.64-6.76-13.38-5.46,11.68,8.88,11.68,8.88-12.94-5.48-13.7-4.39S974,176.3,974,176.3s-8.58-3.1-9.26-2.06,17.47,9.12,17.47,9.12l5.32,5Z"/><path class="cls-36" d="M999.21,183s-3.73-6.23-5.59-5.24l-8.84,8c-1.18,1.95.55,2.91,3,5.89Z"/><path class="cls-52" d="M1041.4,175.92a34.16,34.16,0,0,0,31.4,17.72,16.3,16.3,0,0,0,2,10.42s-5.18,8.15-3.24,8.89,5.48-3.78,7.06-4.34,6.57-11.21,2.5-19.22-16.55-14.12-22.6-21.11Z"/><path class="cls-36" d="M1110.62,220.78l-7.17,3.28a243.94,243.94,0,0,0,10.74,25.19l8.25-4.72A148.89,148.89,0,0,1,1110.62,220.78Z"/><path class="cls-36" d="M1023.26,241.25a256.47,256.47,0,0,1,19.82-17.9l-5.78-6.27a249.91,249.91,0,0,0-19.6,17.63Z"/><g class="cls-49"><ellipse class="cls-31" cx="794.47" cy="513.18" rx="32.64" ry="3.63"/></g><path class="cls-50" d="M689.72,208.26s-8.09-8.08-10.09-9.32-9.63-3.38-10-2.68,7.09,5.54,7.09,5.54-21.7-2.58-22.65-1.61,13.85,4.05,13.85,4.05-14.3-.86-14.44.63,14.32,3.19,14.32,3.19-14,.43-14.28,1.73,14.87,2.51,14.87,2.51-9.1.76-9.28,2,19.69,1,19.69,1l6.92,2.33Z"/><path class="cls-50" d="M897.64,183.28s5.69-9.92,7.3-11.64,8.4-5.8,8.93-5.21-5.39,7.2-5.39,7.2,20.26-8.18,21.43-7.49-12.3,7.54-12.3,7.54,13.58-4.58,14.1-3.18-13,6.83-13,6.83,13.67-3.27,14.23-2.07-13.68,6.32-13.68,6.32,9-1.65,9.47-.51S910,187.18,910,187.18l-6.07,4.06Z"/><polygon class="cls-50" points="683.21 393.77 645.84 427.04 644.73 436.8 652.11 440.57 695.63 409.6 683.21 393.77"/><path class="cls-50" d="M785.78,450.9l.56,35.21,16.29-1.2L806,451.59S792.8,450.15,785.78,450.9Z"/><path class="cls-34" d="M689.72,388.41s-1.93-7.69,3.94-11.14,10.16,1,10.43-7,6-11.17,12.54-10.68l45.57-36.16,55.6,9.38s-4.43,77.84-5.71,92.66.89,16.41-5.22,16.93l-21.65.26c-6.55-1.2-6.66-2.9-3.3-13.32s-4.22-6.83-2.5-17.12,3.29-17.94,4.06-26.44.64-39.15.64-39.15l-81,58.14Z"/><path class="cls-56" d="M657.32,416.81,645.84,427l-1.11,9.76,7.38,3.77,14.4-10.24A104.5,104.5,0,0,1,657.32,416.81Z"/><polygon class="cls-56" points="645.62 447.09 647.71 445.1 625.63 417.77 623.74 419.95 645.62 447.09"/><path class="cls-47" d="M647.71,445.1l4.4-4.53s-5.28-3.93-6.26-5.43c-1.32-2,0-8.1,0-8.1s-16-12.23-20.21-9.27Z"/><path class="cls-56" d="M802.63,484.91l-1.82,15.35-7,6.93-7.54-3.43,0-17.65A103.9,103.9,0,0,0,802.63,484.91Z"/><polygon class="cls-56" points="785.23 512.89 785.5 510.01 821.57 510.34 821.03 513.18 785.23 512.89"/><path class="cls-47" d="M785.49,510l.82-6.25s6.36,1.69,8.14,1.53c2.4-.22,6.36-5,6.36-5s20.49,5,20.76,10.08Z"/><polygon class="cls-57" points="683.21 393.77 695.63 409.6 703.15 404.77 689.72 388.41 683.21 393.77"/><polygon class="cls-57" points="785.22 442.66 785.78 450.9 805.96 451.59 806.87 442.4 785.22 442.66"/><path class="cls-57" d="M769.77,324.71c-3.81,2.88-7.64,5.82-11.53,8.87,3.81,1.36,9.72-2.07,12-4a31.87,31.87,0,0,0,3.92-4.12l1.56.26a34.92,34.92,0,0,1-4.59,4.91c-2.15,1.82-6.91,4.64-11,4.64a6.68,6.68,0,0,1-3.11-.72c-21.26,16.73-43.57,35.8-65.56,56l-.88-1.07c26.08-24,52.62-46.3,77.3-65.08Zm14.36,23.46.54-.3a23.29,23.29,0,0,0,4.58-3.36c.08,17.61-.28,35.29-.63,52.4-.31,14.95-.61,30.33-.63,45.72l1.37,0c0-15.37.32-30.74.63-45.67.37-17.57.74-35.73.63-53.82a32.77,32.77,0,0,0,4.74-6.69,39.58,39.58,0,0,0,3.18-6.87l-1.37-.23a40.24,40.24,0,0,1-3,6.44,28.61,28.61,0,0,1-8,9.52c2.78-5.4,5.14-10.94,7.42-16.57l-1.39-.23a180.73,180.73,0,0,1-8.44,18.4m33.15,1.53a27.35,27.35,0,0,1-5.47-16.68l-1.36-.23a28.72,28.72,0,0,0,6.71,19C816.83,349.77,816.87,349.09,816.91,348.42Z"/><polygon class="cls-57" points="762.2 323.43 764.31 317.34 818.74 327.79 817.8 332.81 762.2 323.43"/><polygon class="cls-58" points="889.39 185.94 896.92 178.87 908.26 190.85 900.26 197.41 889.39 185.94"/><polygon class="cls-58" points="697.21 209.38 688.38 204.82 683.65 219.06 691.32 222.6 697.21 209.38"/><path class="cls-59" d="M763.73,227.11c.61,3.38,57.19,9.79,60.54,10.55s6.83-1.09,9.22-3.57a14.75,14.75,0,0,0,4.22-8.66c.61-6.28-4.9-12.45-11.44-12.05-1.57.1-59.9-10.12-59.9-10.12C762.72,206.78,763,223.16,763.73,227.11Z"/><path class="cls-34" d="M755.51,219.8c.61,3.38,3,6.62,6.34,7.38s6.83-1.09,9.22-3.58a14.81,14.81,0,0,0,4.22-8.65c.61-6.29-4.9-12.45-11.44-12S754.59,214.64,755.51,219.8Z"/><path class="cls-46" d="M825.62,228.62,768.38,221s-16.5,57.25-20.43,88.11l29,5.76Z"/><polygon class="cls-48" points="765.07 282.37 744.34 278.87 742.54 312.06 764.31 317.34 765.07 282.37"/><path class="cls-36" d="M764.31,317.34s-6.6-3.56-4.16-13.79S771,256.61,771,256.61l-77.14-28.17a4.33,4.33,0,0,1-2.5-5.84l.48-1.09,4.76-10.68.65-1.45a4.32,4.32,0,0,1,5.13-2.4l88.81,25.13,26,2.51,66.42-49.11a4.33,4.33,0,0,1,5.8.43l.76.8,10.11,10.67h0a4.33,4.33,0,0,1-.37,6.31l-65,54.18s-6.27,58.62-7.71,63.81-8.45,6.08-8.45,6.08Z"/><path class="cls-52" d="M781.26,196.27a23,23,0,0,1,40.52-17.11c3.79,4.57,5.67,10.48,6.4,16.38.88,7.14-.24,15.31-5.85,19.82a18.25,18.25,0,0,1-11.13,3.55C797.66,219.12,782.71,211,781.26,196.27Z"/><path class="cls-52" d="M784.41,185.89a5.94,5.94,0,0,0-10.34-5.09c.8-5.2-2.23-11.55-7.24-13.16a11.56,11.56,0,0,0-13.4,5.6,8.41,8.41,0,0,0-8.94.13,8,8,0,0,0,3.29,14.3c-2.39,4.37-.65,10.28,3.38,13.19a10.68,10.68,0,0,0,13.6-1.34c-1,2.71-1.09,6,.63,8.33A8.83,8.83,0,0,0,773,211.4c4.19-.26,11.1-.73,13.2-4.36C789.42,201.4,783,192.25,784.41,185.89Z"/><path class="cls-52" d="M802,174.56a10,10,0,0,1-2.52-5.31,6.87,6.87,0,0,1,1.72-5.52,5.22,5.22,0,0,1,5.47-1.35,9.59,9.59,0,0,1,.55-9.49,11.74,11.74,0,0,1,8.64-4.81,14.17,14.17,0,0,1,9.56,2.91c3.44-2.22,8.86-2,11.78.85a9.38,9.38,0,0,1,1.33,11.29c2.38,2.54,1.65,7.54-.63,10.16s-6,3.66-9.47,3.4c.58,2.43-1.58,5.22-3.86,6.25a12.64,12.64,0,0,1-7.39.4,20.72,20.72,0,0,1-8.67-3.45C806,178,802.29,177.69,802,174.56Z"/><path class="cls-50" d="M799.55,233.07,796.13,211s-7.75,4.9-10-1.83c-2-6,4.53-8.06,8.43-5.93,0,0-10.86-20.09,7.3-26.19s24.36,19.29,25.89,25.42c2.69,10.81-3.86,17.86-9.35,19.73l-4.54.47s.59,5.7,1,7.56.91,5.92-4.5,7.43C803.11,239.63,799.55,233.07,799.55,233.07Z"/><path class="cls-52" d="M805.33,198.76a2,2,0,1,0,1.86-2.23A2.05,2.05,0,0,0,805.33,198.76Z"/><path class="cls-52" d="M815.59,196.82a2.05,2.05,0,1,0,1.86-2.23A2.06,2.06,0,0,0,815.59,196.82Z"/><path class="cls-53" d="M815,205.09a.55.55,0,0,1-.34-1c.94-.45,1.38-.87,1.49-1.38.16-.8-.5-2.06-1.91-3.64a.54.54,0,0,1,0-.77.56.56,0,0,1,.78,0c1.71,1.92,2.4,3.38,2.16,4.59a3.31,3.31,0,0,1-2.1,2.15A.33.33,0,0,1,815,205.09Z"/><path class="cls-53" d="M816.67,208h0a7.61,7.61,0,0,1-5.31-1,.54.54,0,0,1-.18-.75.55.55,0,0,1,.76-.18,6.54,6.54,0,0,0,4.53.87.56.56,0,0,1,.64.44A.55.55,0,0,1,816.67,208Z"/><path class="cls-53" d="M794.09,208.46a.55.55,0,0,1-.62-.37,2.94,2.94,0,0,0-4.59-1.41.55.55,0,0,1-.67-.87,4,4,0,0,1,6.3,1.94.54.54,0,0,1-.35.69Z"/><path class="cls-53" d="M791.42,208.41a.51.51,0,0,1-.32,0,.55.55,0,0,1-.28-.73l.82-1.84a.55.55,0,1,1,1,.45l-.82,1.84A.54.54,0,0,1,791.42,208.41Z"/><path class="cls-53" d="M801.57,193a.64.64,0,0,1-.57-.17.65.65,0,0,1,0-.92,7.18,7.18,0,0,1,6.83-1.88.65.65,0,0,1,.46.79.66.66,0,0,1-.79.46,5.93,5.93,0,0,0-5.58,1.54A.63.63,0,0,1,801.57,193Z"/><path class="cls-53" d="M813.42,190.65a.61.61,0,0,1-.47-.09.65.65,0,0,1-.2-.89,5.22,5.22,0,0,1,6.76-1.68.65.65,0,0,1-.63,1.13,3.94,3.94,0,0,0-5,1.25A.64.64,0,0,1,813.42,190.65Z"/><path class="cls-54" d="M813.81,222.63l2.06-.22c-4.71-.29-12.51-3.52-12.51-3.52a13.42,13.42,0,0,0,10.69,5.89C813.91,223.55,813.81,222.63,813.81,222.63Z"/><path class="cls-55" d="M808.79,205.9a3,3,0,1,1-2.75-3.14A2.95,2.95,0,0,1,808.79,205.9Z"/><path class="cls-55" d="M826.16,202.67a3,3,0,1,1-2.75-3.14A2.95,2.95,0,0,1,826.16,202.67Z"/><path class="cls-52" d="M794.51,203.2c1.44,1,4.48,9.9,5.19,8.87s-3.92-16.64-3.92-16.64,6.43-7.1,6-13.21c0,0,10,13.94,24,9.64,0,0-8.44-24-26.48-16.73s-12.19,23.3-12.19,23.3Z"/><path class="cls-56" d="M795,176c-12.54,9.45-2.55,23.8-2.55,23.8s-4.76-9.56,4.27-19c7.8-8.14,20-6.29,24.88-1.53C818.36,175.85,807.66,166.44,795,176Z"/><path class="cls-36" d="M791.15,232.11s.09-8.94,2-9.51,22,1.2,24.34,2.12.75,11.67.75,11.67-5.9,3.73-12.36,3.36S791.15,232.11,791.15,232.11Z"/><path class="cls-60" d="M788.91,260.27a64.07,64.07,0,0,0,28,38.48"/><path class="cls-60" d="M792.39,233.59a40.54,40.54,0,0,0,24.73,1.47"/><path class="cls-46" d="M782.2,227.4s-5.32,44.34-23.83,63.92l2.91,7.43s22-13.39,29.87-66.64Z"/><path class="cls-46" d="M818.53,233.59s15.44,27.87,12.78,56.63l3.59-32.32s1.12-16.29-9.56-29.32l-3.64,1.85Z"/><path class="cls-61" d="M899.4,516.34s-50.94,13.92-56.51,17.9-2.79,29.45,11.94,29.45,68-40.58,68-40.58,61.28,9.52,71.23,8.53,12.73-26.05,4.77-32.82-76.49,6.65-76.49,6.65-70.84-18.4-76.31-19.7c-8.36-2-13.13,27.34-5.85,29C851.12,517.18,899.4,516.34,899.4,516.34Z"/><path class="cls-62" d="M919.55,513c-27.3,1.57-46.06-13-53.25-35.28s-1.44-47.25,6.23-61.64,15.84-17.76,16.32-10.08,1.92,24,5.27,27.83,12-3.84,13.44-26.39-1.44-43.66,1.92-45.1S921,368.63,926.75,388,932,431,939.23,431.43s8.15-19.67,12.47-21.11,18.23,18.26,16.79,48.95S944.5,511.56,919.55,513Z"/><path class="cls-63" d="M919.29,508.62c-15.51,2-28.8-11.88-31.45-28.72s5.31-35,8.41-30.57,7.09,30.19,13.29,28.39,4.88-52.76,9.75-53.2,19.05,24.4,19.94,42.16S935.28,506.51,919.29,508.62Z"/><path class="cls-62" d="M948,373.88c-3.25-1.56.32,8.65,1.61,17.38s5.82,6.46,6.47,0S952.2,375.9,948,373.88Z"/><path class="cls-64" d="M843.43,537c1.87-1.87,5.49,1.9,9.22,9.26,2.85,5.62,4.73,12.54,2.19,15.14s-9.25-4.92-11.41-10.68C841.61,545.84,841.28,539.14,843.43,537Z"/></g></g></g></svg>